<svg xmlns="http://www.w3.org/2000/svg" width="18" height="18" viewBox="0 0 18 18">
  <g id="search" transform="translate(-3.5 -3.5)">
    <path id="Caminho_325" data-name="Caminho 325" d="M11.31,3.5a7.819,7.819,0,0,1,7.81,7.81,8.005,8.005,0,0,1-.436,2.547A8.194,8.194,0,0,1,17.2,16.435,7.719,7.719,0,0,1,11.31,19.12a7.81,7.81,0,1,1,0-15.62Zm0,13.613a5.668,5.668,0,0,0,4.337-1.946l0,0a6.237,6.237,0,0,0,1.119-1.906l0-.012a6.021,6.021,0,0,0,.34-1.936,5.8,5.8,0,1,0-5.8,5.8Z" transform="translate(0 0)" fill="#231f20"/>
    <path id="Caminho_326" data-name="Caminho 326" d="M29.33,30.33a1,1,0,0,1-.707-.293l-4.355-4.355a1,1,0,0,1,1.414-1.414l4.355,4.355a1,1,0,0,1-.707,1.707Z" transform="translate(-8.83 -8.83)" fill="#231f20"/>
  </g>
</svg>
