<svg xmlns="http://www.w3.org/2000/svg" width="35" height="35" viewBox="0 0 35 35">
  <g id="copy-bg" transform="translate(3008 240)">
    <rect id="bg" width="35" height="35" rx="17.5" transform="translate(-3008 -240)" fill="#ff0a6b"/>
    <path id="link" d="M1.265,14.5a4.318,4.318,0,0,1,0-6.108L3.407,6.254a4.319,4.319,0,0,1,6.513.466.75.75,0,1,1-1.2.9,2.819,2.819,0,0,0-4.252-.3L2.326,9.456a2.819,2.819,0,1,0,3.986,3.987l1.22-1.221a.75.75,0,0,1,1.061,1.06L7.374,14.5a4.323,4.323,0,0,1-6.108,0Zm7.749-3.736a4.312,4.312,0,0,1-3.15-1.721.75.75,0,1,1,1.2-.9,2.819,2.819,0,0,0,4.252.305l2.142-2.142A2.819,2.819,0,0,0,9.472,2.324L8.243,3.547A.75.75,0,0,1,7.185,2.483L8.412,1.262a4.319,4.319,0,1,1,6.107,6.11L12.378,9.513a4.317,4.317,0,0,1-3.054,1.265C9.22,10.778,9.118,10.775,9.014,10.768Z" transform="translate(-2998.392 -230.383)" fill="#fff"/>
  </g>
</svg>
