<svg xmlns="http://www.w3.org/2000/svg" width="40" height="40" viewBox="0 0 40 40">
  <path id="sound-on-outline" d="M0,20A20,20,0,1,1,20,40,20,20,0,0,1,0,20ZM12.6,2.493A19.061,19.061,0,1,0,20,1,18.942,18.942,0,0,0,12.6,2.493Zm1.662,25.475A3.229,3.229,0,0,1,13.225,25.8h1.3a2.014,2.014,0,0,0,.673,1.264,1.913,1.913,0,0,0,1.3.5,2.143,2.143,0,0,0,1.379-.478,3.627,3.627,0,0,0,1.01-1.434,10.355,10.355,0,0,1,.5-1.01,7.441,7.441,0,0,1,.554-.839,6.72,6.72,0,0,1,.629-.712,7.722,7.722,0,0,1,.728-.626L18.262,19.49a2.016,2.016,0,0,1-.5-.361,1.977,1.977,0,0,1-.37-.488l-2.606-2.549a6.041,6.041,0,0,0-.184.669,4.7,4.7,0,0,0-.1.712H13.2a7.484,7.484,0,0,1,.185-1.232,5.311,5.311,0,0,1,.4-1.126l-2.628-2.571.934-.913,5.284,5.215.015-.031L20.13,19.49l-.047.022,8.158,8.051-.934.913L22.258,23.4c-.318.256-.59.485-.814.691a3.958,3.958,0,0,0-.576.648,6.034,6.034,0,0,0-.445.743q-.207.4-.424.956a3.649,3.649,0,0,1-3.5,2.4A3.166,3.166,0,0,1,14.267,27.968Zm11.292-4.993a7.92,7.92,0,0,0,1.477-2.5,8.216,8.216,0,0,0,.5-2.836,8.317,8.317,0,0,0-.576-3.091,7.223,7.223,0,0,0-1.683-2.539l.977-.85a8.774,8.774,0,0,1,1.912,2.931,9.593,9.593,0,0,1,.076,6.863,9.684,9.684,0,0,1-1.748,2.931Zm-2.454-2.4a5.1,5.1,0,0,0,.554-1.307,5.958,5.958,0,0,0,.184-1.541,4.345,4.345,0,0,0-1.325-3.218A4.485,4.485,0,0,0,19.24,13.2a5.215,5.215,0,0,0-1.509.212,4.917,4.917,0,0,0-1.314.616l-.934-.913a6.049,6.049,0,0,1,1.738-.882,6.54,6.54,0,0,1,2.02-.308A5.809,5.809,0,0,1,23.5,13.551a5.609,5.609,0,0,1,1.651,4.175,8.119,8.119,0,0,1-.25,2.114,5.513,5.513,0,0,1-.793,1.711Zm-4.756-4.653a2.119,2.119,0,0,1,.435-.159,1.886,1.886,0,0,1,.456-.053,1.933,1.933,0,0,1,1.433.595,1.955,1.955,0,0,1,.587,1.423,2.235,2.235,0,0,1-.044.446,1.359,1.359,0,0,1-.152.4Z" fill="#ff0a6b"/>
</svg>
