<svg xmlns="http://www.w3.org/2000/svg" width="35" height="35" viewBox="0 0 35 35">
  <g id="twitter-bg" transform="translate(3098 240)">
    <rect id="bg" width="35" height="35" rx="17.5" transform="translate(-3098 -240)" fill="#1da1f2"/>
    <path id="twitter" d="M14.355,6.621c.01.142.01.284.01.427a9.268,9.268,0,0,1-9.33,9.334A9.264,9.264,0,0,1,0,14.908a6.781,6.781,0,0,0,.792.041,6.566,6.566,0,0,0,4.071-1.4A3.285,3.285,0,0,1,1.8,11.272a4.134,4.134,0,0,0,.619.051,3.467,3.467,0,0,0,.863-.112A3.281,3.281,0,0,1,.65,7.992V7.951a3.3,3.3,0,0,0,1.482.416A3.286,3.286,0,0,1,1.117,3.98,9.32,9.32,0,0,0,7.878,7.413,3.7,3.7,0,0,1,7.8,6.661a3.282,3.282,0,0,1,5.675-2.245,6.455,6.455,0,0,0,2.081-.792,3.271,3.271,0,0,1-1.442,1.808A6.572,6.572,0,0,0,16,4.925a7.05,7.05,0,0,1-1.645,1.7Z" transform="translate(-3088 -232.381)" fill="#fff"/>
  </g>
</svg>
