<?xml version="1.0" standalone="no"?>
<!DOCTYPE svg PUBLIC "-//W3C//DTD SVG 20010904//EN"
 "http://www.w3.org/TR/2001/REC-SVG-20010904/DTD/svg10.dtd">
<svg version="1.0" xmlns="http://www.w3.org/2000/svg"
 width="300.000000pt" height="252.000000pt" viewBox="0 0 300.000000 252.000000"
 preserveAspectRatio="xMidYMid meet">

<g transform="translate(0.000000,252.000000) scale(0.100000,-0.100000)"
fill="#000000" stroke="none">
<path d="M0 1270 l0 -1250 1500 0 1500 0 0 1250 0 1250 -1500 0 -1500 0 0
-1250z m2990 0 l0 -1241 -224 1 -224 1 -4 45 -3 44 55 2 c51 2 116 3 263 7
l57 1 0 468 0 467 -90 103 -90 103 90 104 90 103 0 441 0 441 -35 0 c-29 0
-35 4 -36 23 l-2 22 -4 -22 c-4 -21 -10 -23 -79 -23 -67 0 -74 2 -74 20 0 20
-7 20 -498 20 -274 0 -857 3 -1295 7 l-797 6 0 -470 0 -471 89 -99 89 -100
-27 -29 c-87 -95 -161 -186 -161 -199 0 -9 -11 -20 -25 -27 -13 -6 -22 -14
-20 -18 2 -4 -2 -7 -10 -7 -13 0 -15 101 -15 759 l0 758 1490 0 1490 0 0
-1240z m-1408 933 c13 -16 38 -67 38 -78 0 -3 -4 -5 -10 -5 -5 0 -10 9 -10 19
0 11 -12 33 -26 50 -14 17 -22 31 -16 31 5 0 15 -8 24 -17z m-37 -93 c3 -5 1
-10 -4 -10 -6 0 -11 5 -11 10 0 6 2 10 4 10 3 0 8 -4 11 -10z m-101 -72 c11
-10 16 -18 9 -18 -14 0 -53 48 -53 64 0 6 6 2 12 -9 6 -11 20 -28 32 -37z m46
42 c0 -5 -2 -10 -4 -10 -3 0 -8 5 -11 10 -3 6 -1 10 4 10 6 0 11 -4 11 -10z
m-377 -106 c73 -7 74 -24 1 -24 -53 0 -79 -21 -148 -119 -46 -65 -86 -101
-112 -101 -7 0 80 124 110 159 12 13 34 32 50 42 l29 17 -47 7 c-25 4 -57 5
-71 3 -13 -3 -22 -1 -19 3 9 15 68 28 104 24 19 -2 66 -7 103 -11z m-232 -53
c-6 -10 -7 -21 -4 -25 3 -3 1 -6 -5 -6 -16 0 -15 23 0 38 17 17 20 15 9 -7z
m403 -86 c-10 -15 -26 -40 -35 -56 -14 -24 -18 -27 -28 -15 -15 18 -5 40 33
75 29 27 36 51 9 30 -16 -13 -17 -12 -4 4 13 16 16 16 29 3 13 -13 13 -18 -4
-41z m164 44 c29 3 29 3 -53 -107 -50 -66 -89 -101 -102 -89 -1 2 12 21 30 44
89 117 100 134 90 144 -7 7 -24 -5 -52 -38 -43 -51 -51 -69 -25 -59 8 3 12 2
9 -4 -3 -6 -15 -10 -26 -10 -26 0 -25 39 3 75 23 30 77 57 93 47 5 -4 21 -5
33 -3z m278 -26 c-3 -10 -16 -24 -28 -32 -22 -13 -22 -13 -7 5 24 29 31 44 20
44 -12 0 -77 -89 -73 -101 1 -5 -2 -9 -8 -9 -22 0 -10 57 18 82 53 50 92 55
78 11z m-583 14 c-3 -7 -20 -29 -36 -50 -17 -22 -27 -44 -23 -53 4 -10 1 -14
-6 -12 -21 7 -21 46 1 77 25 34 26 41 7 41 -16 0 -83 -87 -78 -101 4 -15 -18
-10 -24 5 -8 22 23 74 54 90 33 18 115 20 105 3z m79 -15 c-30 -50 -70 -92
-87 -92 -21 0 -19 3 30 67 22 29 48 52 57 52 17 1 17 0 0 -27z m328 22 c0 -3
-16 -25 -35 -48 -19 -24 -35 -48 -35 -55 0 -6 -4 -11 -10 -11 -19 0 -10 42 18
81 15 21 35 39 45 39 9 0 17 -3 17 -6z m40 -47 c-47 -63 -50 -75 -12 -53 l27
17 -23 -20 c-26 -23 -52 -18 -52 11 0 26 60 98 83 98 14 0 10 -11 -23 -53z
m220 46 c0 -3 -19 -30 -41 -60 -38 -49 -69 -68 -69 -42 0 5 -6 7 -12 3 -8 -4
-10 -3 -5 2 5 5 12 9 17 9 5 0 25 21 45 48 31 40 65 62 65 40z m50 -2 c0 -15
-28 -33 -40 -26 -8 5 -8 11 1 21 13 15 39 19 39 5z m23 -36 c-48 -51 -59 -83
-20 -65 20 10 21 10 4 -4 -25 -20 -47 -10 -47 21 0 30 59 93 87 93 16 0 11 -9
-24 -45z m67 -7 c-22 -28 -39 -57 -36 -64 3 -8 -1 -11 -10 -7 -22 8 -17 36 16
81 19 26 38 42 51 42 18 0 16 -6 -21 -52z m81 1 c-23 -29 -41 -56 -41 -60 0
-5 -4 -9 -10 -9 -5 0 -10 9 -10 21 0 28 59 99 83 99 16 0 12 -8 -22 -51z m109
46 c0 -5 -91 -124 -135 -177 -8 -10 -22 -18 -30 -18 -15 0 17 49 103 158 29
35 62 55 62 37z m-620 -89 c0 -2 -8 -10 -17 -17 -16 -13 -17 -12 -4 4 13 16
21 21 21 13z m591 -24 c-13 -24 -59 -62 -75 -62 -6 0 6 11 26 25 20 14 40 34
43 46 4 11 9 18 12 16 2 -3 0 -14 -6 -25z m-709 -32 c-18 -17 -37 -30 -42 -30
-6 0 4 13 22 30 18 16 38 29 43 29 6 0 -5 -13 -23 -29z m370 -97 c-150 -2
-393 -2 -540 0 -147 1 -24 2 273 2 297 0 417 -1 267 -2z m-782 -119 c0 -23 20
-16 21 9 1 16 3 17 6 5 2 -9 -1 -27 -8 -39 -11 -22 -12 -22 -25 11 -17 39 -17
43 -4 35 6 -3 10 -13 10 -21z m75 -10 c0 -14 -3 -28 -7 -30 -4 -3 -8 12 -8 32
0 41 13 39 15 -2z m50 9 l7 -28 14 30 c11 25 13 25 8 5 -13 -50 -22 -57 -34
-26 -6 16 -13 33 -16 37 -3 5 -1 9 4 9 6 0 13 -12 17 -27z m92 -8 c10 -32 1
-51 -10 -22 -4 9 -8 8 -16 -3 -9 -13 -11 -13 -11 3 0 9 5 17 11 17 6 0 8 9 4
20 -3 11 -2 20 3 20 5 0 13 -16 19 -35z m131 2 c4 -34 -25 -49 -44 -22 -10 13
-10 23 -3 37 15 27 43 18 47 -15z m122 -19 c0 -5 -4 -8 -10 -8 -5 0 -10 5 -10
12 0 6 -6 4 -13 -6 -12 -16 -13 -13 -9 20 l5 37 18 -24 c10 -13 19 -27 19 -31z
m23 15 c4 -18 3 -33 -2 -33 -10 0 -21 51 -14 63 7 11 9 7 16 -30z m82 -31 c-2
-3 -8 4 -12 14 -3 10 -11 22 -16 25 -5 4 -6 12 -2 19 5 8 12 2 22 -20 7 -18
11 -35 8 -38z m75 58 c0 -5 -7 -7 -15 -4 -8 4 -15 8 -15 10 0 2 7 4 15 4 8 0
15 -4 15 -10z m43 -22 c-8 -46 -13 -48 -13 -5 0 21 4 37 10 37 5 0 7 -14 3
-32z m84 -20 c-2 -13 -4 -5 -4 17 -1 22 1 32 4 23 2 -10 2 -28 0 -40z m73 42
c0 -5 -7 -7 -15 -4 -8 4 -15 1 -15 -5 0 -6 6 -11 13 -11 8 0 9 -3 1 -8 -6 -4
-14 -14 -17 -22 -3 -8 -6 2 -6 23 -1 31 2 37 19 37 11 0 20 -4 20 -10z m37
-42 c-2 -13 -4 -5 -4 17 -1 22 1 32 4 23 2 -10 2 -28 0 -40z m73 41 c0 -5 -5
-7 -10 -4 -6 3 -13 -1 -17 -10 -6 -18 15 -38 31 -28 5 3 6 1 2 -5 -11 -19 -34
-14 -41 8 -4 12 -1 27 5 35 15 17 30 20 30 4z m88 -18 c2 -13 -2 -28 -8 -35
-9 -8 -11 -6 -5 12 4 14 1 29 -7 39 -11 14 -11 15 2 11 8 -2 17 -15 18 -27z
m-420 -29 c6 -2 12 4 12 14 0 14 3 15 12 6 10 -10 10 -15 -2 -22 -26 -17 -45
-7 -47 25 -2 27 -1 28 5 6 4 -14 13 -26 20 -29z m377 38 c-3 -5 -1 -20 6 -32
11 -22 10 -22 -6 -6 -16 15 -15 48 0 48 4 0 3 -4 0 -10z m-275 -38 c0 -13 -3
-12 -15 4 -19 25 -19 40 0 24 8 -7 15 -20 15 -28z m-186 3 c-4 -8 -8 -15 -10
-15 -2 0 -4 7 -4 15 0 8 4 15 10 15 5 0 7 -7 4 -15z m-111 -180 c-1 -5 -5 -18
-8 -27 -5 -13 -2 -18 11 -18 11 0 15 -3 9 -8 -6 -4 -11 -18 -10 -32 0 -14 -4
-28 -10 -32 -6 -5 -5 -8 3 -8 6 0 12 -7 12 -15 0 -8 -4 -15 -9 -15 -4 0 -8
-15 -7 -32 1 -26 6 -34 24 -36 26 -4 29 15 5 34 -16 12 -16 13 -1 14 11 0 15
6 11 20 -4 15 0 20 13 20 18 1 18 1 -1 16 -17 13 -18 16 -5 25 11 8 12 12 3
16 -17 6 -16 30 1 36 15 6 16 23 3 45 -6 8 -2 12 12 12 27 0 51 -10 51 -22 0
-5 -6 -6 -12 -2 -10 6 -10 4 0 -7 15 -16 17 -219 2 -219 -5 0 -10 -7 -10 -15
0 -12 -15 -15 -75 -15 -60 0 -75 3 -75 15 0 8 -4 15 -10 15 -16 0 -13 237 3
244 20 8 72 2 70 -9z m787 -200 c0 -43 -4 -75 -10 -75 -5 0 -10 -13 -10 -29
l0 -30 -65 0 -65 0 0 30 c0 16 -4 29 -9 29 -6 0 -7 82 -1 148 0 1 36 2 80 2
l80 0 0 -75z m-1361 50 c3 -3 -1 -10 -9 -15 -13 -8 -13 -10 -1 -10 8 0 11 -3
8 -7 -4 -3 -1 -13 6 -21 9 -12 9 -16 -1 -19 -6 -3 -10 -9 -6 -14 3 -5 -22 -9
-58 -9 -60 0 -64 1 -66 25 -1 14 5 28 16 34 16 10 16 10 0 11 -19 0 -20 19 -3
33 11 8 104 2 114 -8z m254 -2 c-7 -2 -19 -2 -25 0 -7 3 -2 5 12 5 14 0 19 -2
13 -5z m647 -27 c0 -3 -4 -8 -10 -11 -5 -3 -10 -1 -10 4 0 6 5 11 10 11 6 0
10 -2 10 -4z m-901 -85 c9 -6 10 -14 5 -22 -5 -8 -9 -18 -9 -23 0 -5 -12 -13
-28 -17 -16 -4 -25 -3 -21 2 10 16 -39 9 -59 -8 -19 -18 -20 -17 -13 9 3 15 2
30 -4 33 -15 10 -12 23 8 28 31 8 107 7 121 -2z m998 -43 c-2 -13 -4 -5 -4 17
-1 22 1 32 4 23 2 -10 2 -28 0 -40z m-712 32 c3 -5 1 -10 -4 -10 -6 0 -11 5
-11 10 0 6 2 10 4 10 3 0 8 -4 11 -10z m-65 -14 c0 -3 -4 -8 -10 -11 -5 -3
-10 -1 -10 4 0 6 5 11 10 11 6 0 10 -2 10 -4z m680 -17 c0 -4 -7 -9 -15 -13
-9 -3 -15 0 -15 8 0 7 7 13 15 13 8 0 15 -4 15 -8z m-372 -42 c-21 -17 -42
-43 -47 -57 -9 -22 -10 -22 -10 -4 -1 26 16 49 54 73 44 28 45 25 3 -12z m177
15 c-3 -3 -11 0 -18 7 -9 10 -8 11 6 5 10 -3 15 -9 12 -12z m-394 -29 c8 -23
7 -23 -76 -23 -84 0 -91 3 -79 35 5 13 19 15 77 13 62 -3 71 -6 78 -25z m704
12 c0 -11 -119 -20 -142 -11 -8 3 -11 11 -8 16 8 14 150 9 150 -5z m281 -49
c8 -3 14 -1 14 4 0 18 19 10 25 -10 3 -11 11 -20 16 -20 5 0 3 13 -6 30 -18
34 -18 40 -5 40 19 0 70 -104 70 -143 0 -29 5 -40 23 -47 40 -17 57 -37 57
-68 0 -20 -7 -36 -20 -45 -12 -9 -18 -20 -14 -30 4 -11 -1 -16 -17 -19 -18 -2
-26 -13 -34 -44 -12 -47 -35 -49 -35 -3 0 20 5 29 16 29 11 0 14 5 10 16 -3 9
-6 22 -6 30 0 10 -14 14 -55 14 -51 0 -69 10 -45 25 6 3 10 13 10 22 0 13 -12
15 -74 11 l-75 -3 -7 59 c-6 60 -16 84 -43 119 -13 16 -13 17 0 12 9 -3 24 6
38 26 27 37 38 32 18 -8 -24 -47 -30 -82 -6 -38 23 43 58 85 70 85 4 0 9 -7
11 -16 3 -13 6 -13 23 4 20 19 20 19 23 -4 2 -12 10 -25 18 -28z m-1288 15
c-3 -22 0 -28 11 -26 9 1 23 -3 32 -8 15 -9 15 -13 -2 -41 -11 -19 -19 -54
-20 -89 -1 -32 -6 -60 -11 -63 -12 -8 -10 -94 3 -94 6 0 8 -8 5 -17 -3 -10 -6
-39 -7 -65 -2 -33 -7 -48 -16 -48 -7 0 -13 -4 -13 -10 0 -5 6 -7 14 -4 15 6
32 -13 22 -23 -4 -4 -46 -8 -94 -10 -54 -2 -82 0 -73 6 7 5 10 14 6 21 -5 9
-2 10 14 5 12 -4 21 -2 21 4 0 6 -9 11 -20 11 -27 0 -25 8 10 41 29 29 29 31
0 33 -10 1 -17 18 -23 56 -4 30 -12 59 -18 65 -8 7 -10 4 -6 -10 3 -11 8 -38
11 -60 4 -22 9 -52 12 -67 4 -21 2 -28 -10 -28 -10 0 -16 -9 -16 -24 0 -14 -5
-28 -11 -32 -7 -4 -9 0 -5 12 7 23 -8 52 -18 35 -4 -6 -4 -11 1 -11 4 0 8 -13
8 -30 0 -16 -3 -30 -7 -30 -5 0 -8 -5 -8 -11 0 -6 -6 -17 -14 -24 -12 -12 -15
-11 -21 13 -6 23 -8 25 -16 9 -6 -9 -7 -22 -3 -29 5 -7 3 -8 -5 -4 -7 5 -10
14 -7 22 7 19 -9 18 -30 -3 -17 -17 -18 -17 -11 0 3 9 2 17 -3 17 -6 0 -10 5
-10 11 0 6 9 9 19 6 14 -3 18 -1 14 9 -6 17 -15 18 -31 2 -8 -8 -15 -8 -27 2
-12 10 -15 10 -15 -4 0 -9 -8 -16 -17 -16 -17 -1 -17 -1 -1 -11 10 -5 22 -18
27 -28 9 -16 6 -18 -26 -15 -20 1 -40 9 -44 16 -7 11 -11 11 -18 -1 -7 -11
-11 -10 -20 5 -10 18 -11 18 -17 -3 -4 -14 -11 -20 -22 -16 -11 5 -13 3 -7 -8
6 -11 5 -12 -6 -1 -16 14 -33 16 -24 2 9 -15 -2 -12 -19 6 -9 8 -16 26 -16 38
0 30 -45 53 -58 30 -7 -12 -10 -13 -19 -2 -18 23 -21 57 -7 75 15 21 19 63 5
63 -5 0 -12 -10 -15 -22 -3 -13 -3 9 -1 47 3 68 38 185 55 185 4 0 17 16 29
35 11 19 24 35 28 35 4 0 26 -11 48 -25 l40 -25 -45 4 -45 5 40 -19 c46 -21
71 -24 80 -10 3 6 1 10 -4 10 -6 0 -11 4 -11 10 0 5 7 7 15 4 8 -4 15 -13 15
-21 0 -10 6 -13 16 -9 9 3 21 6 27 6 7 1 -5 10 -26 21 -38 20 -39 21 -20 41
10 11 30 26 45 34 52 27 148 12 148 -23 1 -16 2 -16 13 -2 17 22 51 39 79 39
17 0 19 3 9 9 -10 7 -11 13 -2 30 10 18 21 21 77 21 l66 0 -4 -29z m447 -14
c-8 -12 -15 -33 -16 -47 -1 -20 -3 -19 -9 10 -7 26 -5 39 7 52 22 24 37 12 18
-15z m57 -6 c-9 -16 -18 -28 -21 -26 -4 5 27 55 34 55 2 0 -4 -13 -13 -29z
m165 9 c-6 24 -5 24 8 6 8 -11 15 -31 15 -44 0 -19 -2 -21 -13 -10 -7 7 -20
27 -30 43 l-18 30 22 -25 22 -25 -6 25z m83 5 c16 -19 27 -145 12 -145 -15 0
-22 25 -22 76 0 25 -5 54 -10 65 -13 22 2 26 20 4z m100 1 c0 -2 -7 -7 -16
-10 -8 -3 -12 -2 -9 4 6 10 25 14 25 6z m190 -7 c12 -8 9 -9 -10 -4 l-25 6 25
-22 25 -21 -24 14 c-14 8 -27 20 -29 26 -5 15 18 15 38 1z m420 -88 c14 -50
13 -51 -15 -51 -22 0 -25 4 -25 35 0 20 -7 52 -15 73 l-16 37 31 -30 c16 -16
35 -45 40 -64z m-1149 51 c8 -22 8 -22 -22 -7 -17 9 -36 14 -42 11 -7 -2 -5
-5 4 -5 23 -1 69 -47 69 -68 -1 -17 -1 -17 -11 -1 -11 20 -68 33 -103 24 -17
-4 -26 -15 -31 -36 -4 -17 -10 -28 -14 -26 -4 3 -13 -4 -20 -16 -7 -11 -8 -17
-3 -14 6 3 24 -7 40 -24 34 -33 68 -38 98 -14 18 14 18 15 -6 8 -24 -6 -24 -6
-5 9 11 9 22 11 23 6 2 -5 8 -7 13 -3 5 3 9 1 9 -5 0 -5 -5 -13 -11 -16 -7 -5
-5 -15 6 -31 15 -23 15 -25 -10 -34 -50 -19 -255 -7 -255 15 0 6 21 16 48 22
42 9 43 10 15 12 -37 1 -42 11 -14 28 16 10 22 9 32 -3 7 -8 22 -20 33 -26 17
-8 15 -5 -6 19 -46 49 -31 120 34 162 18 11 28 21 22 21 -36 0 -94 -77 -94
-125 0 -21 -5 -25 -28 -25 -28 0 -28 1 -22 48 13 97 50 123 169 119 66 -2 75
-4 82 -25z m-781 -42 c13 -8 13 -10 -2 -10 -9 0 -20 5 -23 10 -8 13 5 13 25 0z
m1553 3 c11 -20 18 -123 8 -123 -7 0 -11 22 -11 53 0 29 -5 58 -12 65 -9 9 -9
12 -1 12 7 0 14 -3 16 -7z m-640 -23 c3 -11 1 -18 -4 -14 -5 3 -9 12 -9 20 0
20 7 17 13 -6z m68 -27 c13 -17 13 -17 -6 -3 -11 8 -22 16 -24 17 -2 2 0 3 6
3 6 0 17 -8 24 -17z m149 -43 c0 -12 -24 -12 -60 0 -21 7 -19 8 18 9 23 1 42
-3 42 -9z m130 -35 c0 -21 -5 -35 -12 -35 -8 0 -13 14 -13 35 0 21 5 35 13 35
7 0 12 -14 12 -35z m-585 5 c3 -5 2 -10 -4 -10 -5 0 -13 5 -16 10 -3 6 -2 10
4 10 5 0 13 -4 16 -10z m905 -60 c0 -16 -2 -30 -4 -30 -2 0 -6 14 -8 30 -3 17
-1 30 4 30 4 0 8 -13 8 -30z m160 20 c0 -7 -8 -9 -20 -5 -11 4 -20 2 -20 -4 0
-6 6 -11 14 -11 24 0 11 -34 -15 -40 -66 -18 -93 -20 -81 -8 7 7 12 26 12 43
0 30 1 30 55 33 36 2 55 -1 55 -8z m-500 -45 c0 -8 5 -15 10 -15 6 0 10 -3 10
-7 0 -5 -65 -7 -145 -5 -134 3 -145 2 -146 -15 -1 -15 -2 -15 -6 -2 -3 12 -16
16 -43 16 -22 0 -40 -3 -40 -8 0 -5 -6 -6 -14 -3 -9 3 -17 -3 -21 -16 -7 -23
4 -44 12 -22 3 8 30 12 88 12 48 0 87 5 90 10 5 8 11 7 21 -1 8 -7 47 -12 93
-12 l79 0 -5 -93 c-4 -91 -4 -93 19 -96 17 -2 23 -9 23 -28 0 -20 -5 -25 -25
-25 -21 0 -25 5 -28 35 -2 19 -9 41 -15 49 -8 10 -8 12 -1 8 7 -4 11 5 12 24
l1 30 -77 -3 c-42 -2 -83 -8 -91 -12 -10 -6 -12 -5 -7 3 11 17 -73 8 -86 -10
-8 -11 -9 -10 -4 4 5 15 2 17 -15 12 -15 -5 -19 -4 -15 4 4 6 14 11 22 11 8 0
12 5 9 10 -11 17 -51 12 -52 -7 -1 -10 -4 -29 -8 -43 -4 -14 -3 -21 2 -15 7 9
26 10 87 6 12 -1 16 -6 12 -16 -7 -18 3 -19 26 -1 10 7 14 17 10 21 -4 5 -1 5
6 1 10 -6 11 -11 0 -23 -16 -20 -19 -43 -8 -62 8 -13 9 -12 10 7 0 12 5 22 10
22 6 0 10 -5 10 -10 0 -7 6 -7 20 0 18 10 20 8 20 -20 0 -28 -2 -30 -20 -20
-11 6 -20 7 -20 2 0 -15 -78 -12 -91 5 -11 13 -10 18 10 34 13 11 18 19 13 19
-6 0 -14 -5 -17 -10 -5 -8 -12 -7 -23 2 -14 10 -15 10 -5 -2 10 -11 9 -16 -5
-27 -9 -8 -11 -12 -4 -8 7 4 12 0 12 -9 0 -19 -30 -21 -53 -3 -15 11 -24 69
-26 170 -1 15 -6 27 -12 27 -8 0 -9 -16 -5 -47 4 -33 3 -42 -3 -28 -5 11 -10
52 -10 92 l-1 71 93 7 c50 3 139 5 197 3 80 -2 104 0 103 10 -2 6 2 12 7 12 6
0 10 -7 10 -15z m810 -5 c0 -5 -22 -10 -50 -10 -27 0 -50 5 -50 10 0 6 23 10
50 10 28 0 50 -4 50 -10z m198 3 c-21 -2 -38 -8 -38 -14 0 -5 -4 -9 -10 -9 -5
0 -7 7 -4 15 4 10 19 14 48 13 l41 -1 -37 -4z m-1478 -23 c0 -5 -5 -10 -11
-10 -8 0 -8 -4 -2 -12 16 -21 22 -56 9 -61 -6 -2 -44 -3 -83 -2 -44 0 -73 -4
-73 -10 0 -6 -3 -5 -8 2 -4 6 -22 13 -40 16 -27 5 -35 2 -42 -16 -8 -20 -9
-19 -9 8 -1 19 6 36 18 45 20 13 20 14 -1 32 -21 18 -18 18 110 18 81 0 132
-4 132 -10z m960 -79 c0 -79 -8 -111 -21 -89 -6 9 -9 2 -9 -19 0 -18 -4 -33
-9 -33 -5 0 -12 43 -16 95 -5 60 -12 95 -19 95 -24 0 21 20 47 20 27 0 27 0
27 -69z m310 59 c0 -5 -20 -10 -45 -10 -25 0 -45 5 -45 10 0 6 20 10 45 10 25
0 45 -4 45 -10z m167 -12 c-3 -8 -6 -5 -6 6 -1 11 2 17 5 13 3 -3 4 -12 1 -19z
m50 16 c-3 -3 -12 -4 -19 -1 -8 3 -5 6 6 6 11 1 17 -2 13 -5z m41 -12 c2 -7
-1 -12 -8 -12 -6 0 -9 4 -6 9 4 5 1 12 -4 14 -6 3 -5 4 2 3 6 -1 14 -8 16 -14z
m-1038 -27 c0 -8 -4 -16 -9 -19 -5 -3 -8 5 -7 18 1 25 16 26 16 1z m320 14
c11 -7 -8 -9 -72 -6 -71 3 -85 1 -76 -10 6 -7 7 -13 2 -13 -5 0 2 -9 15 -19
17 -13 35 -17 56 -14 l31 5 0 -64 c0 -57 2 -63 22 -66 12 -2 22 -8 22 -13 0
-5 -5 -8 -12 -6 -6 1 -14 -7 -16 -17 -3 -14 0 -17 12 -13 9 4 16 2 16 -2 0
-15 -27 -20 -39 -8 -6 6 -11 21 -11 34 0 13 -5 23 -11 23 -5 0 -7 -5 -3 -12 4
-7 3 -8 -5 -4 -8 6 -10 1 -6 -16 5 -19 2 -23 -20 -24 -22 -2 -26 2 -22 18 10
36 -2 48 -51 48 -64 0 -47 9 25 13 51 4 60 2 56 -11 -4 -9 -1 -13 7 -10 7 2
17 14 21 26 9 25 12 24 -128 24 -55 0 -70 3 -67 13 3 8 -3 15 -13 18 -10 2 -5
3 10 1 38 -5 30 19 -9 27 -16 4 -21 7 -11 8 18 1 67 47 67 62 0 5 -19 6 -41 3
-27 -4 -39 -3 -35 4 8 14 267 15 286 1z m693 -21 l52 -1 -45 -6 -45 -7 55 -9
55 -10 3 -43 c3 -41 2 -42 -26 -42 -17 0 -32 -6 -36 -15 -3 -8 -10 -15 -15
-15 -6 0 -8 6 -5 14 7 19 -29 39 -44 24 -6 -6 -22 -8 -36 -4 -19 5 -26 13 -26
30 0 14 -5 26 -11 28 -7 2 0 18 16 36 17 20 34 31 42 28 8 -4 38 -7 66 -8z
m-185 -40 c7 -7 12 -28 11 -47 l-1 -36 -9 40 c-5 21 -15 43 -22 47 -7 4 -7 8
-1 8 5 0 15 -5 22 -12z m-1339 -26 c18 -26 18 -29 3 -39 -16 -11 -16 -12 1
-12 10 -1 17 -7 15 -13 -3 -9 -29 -14 -76 -15 -58 -1 -70 1 -65 13 3 10 -2 14
-19 14 -14 0 -25 -6 -25 -12 0 -7 -3 -20 -7 -28 -5 -13 8 -15 89 -13 52 0 95
-3 95 -8 0 -5 -9 -9 -20 -9 -11 0 -20 -4 -20 -10 0 -5 9 -10 20 -10 28 0 25
-17 -5 -22 -13 -3 -22 -2 -20 2 2 4 -5 17 -16 28 -22 25 -38 30 -19 7 7 -8 9
-15 4 -15 -5 0 -2 -5 6 -10 12 -8 9 -10 -12 -10 -16 0 -28 5 -28 10 0 6 -5 10
-11 10 -5 0 -7 -5 -3 -12 5 -7 2 -9 -8 -6 -8 4 -21 2 -29 -2 -8 -5 -19 -5 -26
1 -7 6 -16 8 -21 5 -16 -10 -21 33 -6 48 8 8 14 30 14 48 0 25 -3 29 -10 18
-13 -21 -12 -6 2 25 13 28 19 30 36 13 9 -9 12 -9 12 0 0 7 13 12 29 12 17 0
33 5 36 10 13 21 63 11 84 -18z m-232 -39 c-3 -10 -5 -2 -5 17 0 19 2 27 5 18
2 -10 2 -26 0 -35z m604 -16 c-10 -9 -11 -8 -5 6 3 10 9 15 12 12 3 -3 0 -11
-7 -18z m-1280 -10 c-10 -9 -11 -8 -5 6 3 10 9 15 12 12 3 -3 0 -11 -7 -18z
m284 2 c11 -17 -1 -21 -15 -4 -8 9 -8 15 -2 15 6 0 14 -5 17 -11z m351 -29
c-9 -3 -41 -5 -71 -5 -41 0 -55 -4 -55 -14 0 -11 -4 -9 -15 5 -14 19 -14 19
-15 -1 -1 -18 -1 -19 -11 -2 -14 24 -29 21 -29 -7 0 -15 7 -26 18 -29 14 -4
15 -5 1 -6 -9 0 -24 10 -32 23 -15 23 -15 25 6 39 26 17 79 19 88 5 4 -6 12
-7 20 -2 8 5 26 9 41 9 15 0 30 4 34 8 4 4 14 1 22 -5 12 -10 12 -13 -2 -18z
m878 5 c-5 -11 1 -15 20 -15 14 0 26 -5 26 -11 0 -6 -7 -9 -15 -5 -8 3 -15 1
-15 -4 0 -6 6 -10 13 -10 8 0 7 -4 -3 -10 -13 -8 -13 -10 2 -10 11 0 20 10 24
25 4 15 13 25 23 25 24 0 29 -7 24 -33 -4 -21 -10 -23 -84 -24 l-79 0 0 38 c0
35 2 38 33 42 17 2 33 5 34 5 1 1 0 -5 -3 -13z m274 -17 c0 -7 3 -22 7 -33 5
-16 1 -20 -19 -20 -21 0 -25 4 -19 20 3 11 6 26 6 33 0 6 6 12 12 12 6 0 12
-6 13 -12z m-1104 -40 c6 -4 9 -8 6 -9 -40 -6 -61 -6 -66 2 -3 5 -10 7 -15 4
-5 -3 -6 1 -2 10 5 13 7 14 14 3 8 -12 10 -9 8 8 -2 17 26 22 35 6 5 -9 14
-20 20 -24z m266 12 c0 -16 -4 -30 -10 -30 -11 0 -14 43 -3 53 11 12 13 8 13
-23z m48 23 c-21 -5 -24 -23 -5 -23 8 0 8 -3 -2 -9 -11 -7 -10 -10 5 -14 16
-4 16 -5 -3 -6 -19 -1 -23 4 -23 29 0 25 4 30 23 29 16 -1 18 -2 5 -6z m329
-5 c8 23 23 12 23 -18 0 -30 -14 -40 -24 -17 -5 10 -7 10 -12 0 -11 -24 -24
-13 -24 18 0 28 2 30 17 18 13 -11 17 -11 20 -1z m548 -18 c0 -18 -6 -26 -23
-28 -13 -2 -25 3 -28 12 -10 26 4 48 28 44 17 -2 23 -10 23 -28z m225 -17
c-14 -3 -28 -9 -31 -15 -4 -5 -9 -3 -12 6 -5 13 1 16 31 15 28 -1 31 -3 12 -6z
m160 -3 c0 -5 -7 -7 -15 -4 -8 4 -15 8 -15 10 0 2 7 4 15 4 8 0 15 -4 15 -10z
m-1984 -57 c1 -10 4 -25 8 -33 5 -11 0 -15 -19 -15 -20 0 -24 4 -18 20 3 11 6
26 6 33 0 19 23 14 23 -5z m-63 -6 c3 10 5 3 6 -16 1 -33 0 -34 -18 -17 -18
17 -19 17 -24 -1 -3 -10 -5 -3 -6 16 -1 33 0 34 18 17 18 -17 19 -17 24 1z
m142 -17 c0 -18 -6 -26 -23 -28 -13 -2 -25 3 -28 12 -10 26 4 48 28 44 17 -2
23 -10 23 -28z m175 11 c9 -14 9 -14 10 2 0 20 16 23 23 5 3 -10 7 -10 20 1
15 12 17 10 16 -20 0 -19 -3 -28 -6 -21 -2 6 -11 12 -18 12 -7 0 -16 -6 -18
-12 -4 -10 -8 -10 -15 1 -7 9 -12 10 -16 2 -11 -17 -46 -13 -53 7 -13 33 -43
38 -43 5 0 -9 6 -13 15 -9 8 3 15 1 15 -4 0 -16 -40 -11 -46 5 -12 31 3 43 55
43 37 0 54 -5 61 -17z m135 8 c8 -12 -24 -51 -35 -44 -4 3 -7 16 -7 30 0 17 5
25 18 25 10 0 21 -5 24 -11z m55 -33 c0 -6 -11 -12 -25 -12 -29 -2 -28 -4 -14
33 10 27 11 27 25 9 8 -11 14 -25 14 -30z m65 13 c1 -21 -4 -26 -22 -26 -19 0
-23 5 -23 29 0 25 4 29 23 26 16 -2 22 -10 22 -29z m47 1 c-2 -16 -8 -30 -12
-30 -4 0 -10 14 -12 30 -4 23 -1 30 12 30 13 0 16 -7 12 -30z m38 0 c0 -10 -4
-22 -10 -25 -6 -4 -10 7 -10 25 0 18 4 29 10 25 6 -3 10 -15 10 -25z m32 -5
c4 -17 1 -25 -8 -25 -9 0 -14 11 -14 31 0 35 15 31 22 -6z m49 5 c5 0 9 7 9
15 0 8 5 15 10 15 6 0 10 -13 10 -30 0 -30 -14 -41 -23 -17 -4 9 -8 8 -16 -3
-8 -12 -10 -7 -10 20 1 19 3 27 6 18 2 -10 9 -18 14 -18z m77 23 c-19 -5 -25
-23 -7 -23 5 0 8 -4 5 -9 -4 -5 0 -12 6 -14 7 -3 3 -6 -9 -6 -19 -1 -23 4 -23
29 0 25 4 30 23 29 16 -1 18 -2 5 -6z m112 -4 c0 -6 -7 -9 -15 -6 -19 8 -30
-12 -15 -26 9 -9 17 -5 34 16 27 34 59 33 64 -1 4 -27 -23 -40 -49 -23 -12 7
-19 7 -19 1 0 -15 -36 -12 -50 5 -10 12 -10 18 0 30 14 17 50 20 50 4z m103
-1 c3 -10 7 -10 20 1 15 12 17 10 16 -20 0 -19 -3 -28 -6 -21 -6 14 -33 16
-33 2 0 -5 -4 -10 -10 -10 -5 0 -10 14 -10 30 0 30 15 41 23 18z m110 0 c3
-10 7 -10 20 1 15 12 17 10 16 -20 0 -19 -3 -28 -6 -21 -6 14 -33 16 -33 2 0
-5 -4 -10 -10 -10 -5 0 -10 14 -10 30 0 30 15 41 23 18z m85 5 c-21 -5 -24
-23 -5 -23 8 0 8 -3 -2 -9 -11 -7 -10 -10 5 -14 16 -4 16 -5 -3 -6 -19 -1 -23
4 -23 29 0 25 4 30 23 29 16 -1 18 -2 5 -6z m65 -6 c3 10 5 3 6 -16 1 -29 -1
-32 -15 -20 -13 10 -17 10 -25 -2 -6 -10 -9 -4 -9 20 0 33 1 34 19 17 18 -17
19 -17 24 1z m82 3 c3 -5 11 -10 16 -10 6 0 7 5 4 10 -6 10 37 15 47 5 3 -3 3
-17 0 -30 -3 -20 -7 -23 -18 -14 -11 9 -14 8 -14 -2 -1 -10 -5 -9 -14 4 -12
15 -14 16 -20 2 -8 -22 -44 -19 -51 5 -3 11 -3 24 0 30 8 13 42 13 50 0z m117
1 c-14 -9 -13 -32 3 -43 6 -4 0 -8 -12 -8 -19 0 -23 6 -23 30 0 24 4 30 23 30
15 0 18 -3 9 -9z m58 -2 c0 -5 -6 -7 -12 -3 -7 4 -5 -2 6 -14 17 -20 17 -22 2
-28 -10 -4 -23 -1 -29 6 -10 10 -8 12 8 6 19 -6 19 -5 1 8 -10 8 -15 19 -11
25 8 14 35 14 35 0z m98 -16 c-2 -17 -10 -29 -20 -31 -14 -3 -18 3 -18 27 0
25 4 31 21 31 16 0 20 -5 17 -27z m50 20 c-21 -5 -24 -23 -5 -23 8 0 8 -3 -2
-9 -11 -7 -10 -10 5 -14 16 -4 16 -5 -3 -6 -19 -1 -23 4 -23 29 0 25 4 30 23
29 16 -1 18 -2 5 -6z m72 -23 c0 -16 -4 -30 -10 -30 -11 0 -14 43 -3 53 11 12
13 8 13 -23z m62 5 c6 -29 2 -35 -24 -35 -13 0 -18 8 -18 30 0 39 35 43 42 5z
m88 -19 c0 -6 -11 -12 -25 -12 -28 -2 -31 7 -14 38 11 21 12 21 25 3 8 -10 14
-24 14 -29z m54 27 c-3 10 -1 17 5 17 6 0 11 -14 11 -32 0 -30 -1 -30 -19 -14
-18 17 -19 17 -24 -1 -3 -10 -5 -3 -6 16 -1 34 -1 34 19 16 18 -17 20 -17 14
-2z m91 -13 c0 -18 -6 -26 -23 -28 -13 -2 -25 3 -28 12 -10 26 4 48 28 44 17
-2 23 -10 23 -28z m61 18 c5 -8 1 -9 -12 -5 -18 7 -18 7 0 -7 19 -16 14 -36
-9 -36 -8 0 -17 5 -21 12 -5 8 -1 9 12 5 18 -7 18 -7 0 7 -19 16 -14 36 9 36
8 0 17 -5 21 -12z m29 -38 c3 -5 1 -10 -4 -10 -6 0 -11 5 -11 10 0 6 2 10 4
10 3 0 8 -4 11 -10z"/>
<path d="M1302 1509 c1 -12 9 -24 16 -27 9 -3 13 3 10 19 -1 12 -9 24 -16 27
-9 3 -13 -3 -10 -19z"/>
<path d="M785 1020 c-16 -7 -17 -9 -3 -9 9 -1 20 4 23 9 7 11 7 11 -20 0z"/>
<path d="M2086 885 c-11 -29 -6 -44 21 -70 l28 -25 -24 -22 c-13 -13 -21 -18
-17 -11 4 8 -6 13 -31 15 -37 3 -38 4 -43 48 l-5 45 -8 -34 c-4 -18 -7 -39 -7
-46 0 -13 45 -30 69 -26 7 1 10 -2 7 -8 -4 -6 24 -9 78 -9 l85 2 7 29 c3 15 3
31 0 34 -3 4 -6 -3 -6 -15 0 -13 -6 -22 -15 -22 -8 0 -15 9 -15 19 0 11 -3 26
-6 34 -5 13 -9 12 -27 -6 -12 -12 -21 -28 -19 -34 2 -7 -4 -13 -11 -13 -20 0
-16 32 6 48 10 8 17 26 17 46 0 30 -2 32 -39 34 -28 2 -40 -2 -45 -13z"/>
<path d="M2110 720 c0 -5 7 -10 15 -10 8 0 15 5 15 10 0 6 -7 10 -15 10 -8 0
-15 -4 -15 -10z"/>
<path d="M2170 688 c0 -11 12 -10 30 2 12 7 10 9 -8 7 -12 0 -22 -5 -22 -9z"/>
<path d="M766 845 c-10 -8 -23 -12 -28 -9 -5 3 -8 2 -7 -3 1 -4 -1 -16 -6 -26
-11 -26 4 -86 25 -97 53 -29 120 5 120 61 0 32 -44 89 -68 89 -10 0 -26 -7
-36 -15z"/>
<path d="M484 803 c18 -36 33 -49 33 -28 0 8 -11 25 -25 37 l-25 23 17 -32z"/>
<path d="M694 796 c-3 -8 -4 -23 -2 -33 3 -11 6 -6 9 15 6 34 2 42 -7 18z"/>
<path d="M298 773 c6 -2 18 -2 25 0 6 3 1 5 -13 5 -14 0 -19 -2 -12 -5z"/>
<path d="M464 752 c8 -14 77 -25 88 -14 6 6 3 12 -7 16 -10 4 -14 2 -9 -5 4
-8 -1 -9 -17 -4 -13 3 -32 9 -43 12 -11 3 -16 1 -12 -5z"/>
<path d="M570 734 c0 -8 4 -13 9 -10 5 3 20 -4 35 -15 35 -27 34 -15 -1 16
-33 29 -43 31 -43 9z"/>
<path d="M277 733 c-4 -3 -7 -11 -7 -17 0 -6 5 -5 12 2 6 6 9 14 7 17 -3 3 -9
2 -12 -2z"/>
<path d="M633 605 c-2 -26 1 -35 12 -35 12 0 14 7 11 28 -2 15 -5 30 -5 35 -1
4 -4 7 -8 7 -5 0 -9 -16 -10 -35z"/>
<path d="M319 601 c8 -5 20 -7 28 -4 7 3 13 0 13 -7 0 -6 -8 -10 -17 -8 -20 3
-43 -9 -43 -22 0 -5 13 -5 30 0 22 6 28 5 24 -2 -5 -7 -1 -9 9 -5 9 3 22 1 29
-6 19 -17 38 -19 32 -3 -6 17 12 31 21 16 4 -6 12 -7 18 -3 19 12 37 12 37 0
0 -8 3 -8 11 0 16 16 59 4 52 -15 -9 -22 14 -6 28 19 10 19 8 20 -18 18 -15
-2 -33 0 -40 4 -6 4 -14 3 -18 -3 -4 -6 -9 -8 -13 -6 -4 2 -27 5 -52 7 -25 1
-57 8 -72 16 -31 15 -82 19 -59 4z"/>
<path d="M823 533 c9 -2 17 -9 17 -14 0 -5 4 -9 8 -9 5 0 9 7 9 15 0 10 -9 15
-26 14 -17 -1 -20 -3 -8 -6z"/>
<path d="M375 520 c-3 -5 -1 -10 4 -10 6 0 11 5 11 10 0 6 -2 10 -4 10 -3 0
-8 -4 -11 -10z"/>
<path d="M230 511 c0 -6 5 -11 10 -11 6 0 10 -5 10 -11 0 -6 -7 -9 -15 -5 -9
3 -15 0 -15 -9 0 -8 3 -15 8 -16 4 0 16 -2 27 -4 16 -3 20 2 22 25 1 17 -2 30
-7 30 -4 0 -15 3 -24 6 -9 3 -16 1 -16 -5z"/>
<path d="M470 510 c-9 -5 -9 -9 -1 -14 6 -4 11 -3 11 3 0 13 47 -4 75 -27 19
-16 19 -16 5 3 -8 11 -15 21 -16 23 -5 9 -63 19 -74 12z"/>
<path d="M381 484 c-17 -14 -28 -30 -25 -36 4 -5 20 3 37 19 16 15 27 22 23
16 -4 -7 -3 -13 3 -13 17 0 21 17 7 29 -11 9 -21 6 -45 -15z"/>
<path d="M772 488 c-7 -7 -12 -20 -12 -30 0 -13 8 -18 30 -18 33 0 40 21 16
46 -18 17 -19 17 -34 2z"/>
<path d="M467 451 c-4 -17 -3 -21 5 -13 5 5 8 16 6 23 -3 8 -7 3 -11 -10z"/>
<path d="M327 395 c-4 -8 -2 -17 2 -20 5 -2 11 4 14 15 6 23 -8 27 -16 5z"/>
<path d="M1055 850 c-3 -5 -2 -10 4 -10 5 0 13 5 16 10 3 6 2 10 -4 10 -5 0
-13 -4 -16 -10z"/>
<path d="M1105 850 c3 -5 11 -10 16 -10 6 0 7 5 4 10 -3 6 -11 10 -16 10 -6 0
-7 -4 -4 -10z"/>
<path d="M1416 535 c-28 -21 -16 -50 19 -50 22 0 31 5 33 20 4 28 -28 47 -52
30z"/>
<path d="M1480 505 c0 -13 4 -14 20 -5 11 6 20 13 20 15 0 3 -9 5 -20 5 -11 0
-20 -7 -20 -15z"/>
<path d="M1496 468 c3 -5 10 -6 15 -3 13 9 11 12 -6 12 -8 0 -12 -4 -9 -9z"/>
<path d="M1365 350 c-3 -5 -3 -15 1 -21 6 -11 23 6 24 24 0 10 -18 9 -25 -3z"/>
<path d="M1620 340 c0 -13 5 -20 13 -17 6 2 12 10 12 17 0 7 -6 15 -12 18 -8
2 -13 -5 -13 -18z"/>
<path d="M1773 493 c-7 -2 -13 -16 -13 -29 0 -19 5 -24 25 -24 30 0 43 24 25
45 -13 16 -17 17 -37 8z"/>
<path d="M1836 471 c-4 -7 -5 -15 -2 -18 9 -9 19 4 14 18 -4 11 -6 11 -12 0z"/>
<path d="M1865 460 c3 -5 12 -7 20 -3 21 7 19 13 -6 13 -11 0 -18 -4 -14 -10z"/>
<path d="M1071 451 c-19 -12 -6 -41 19 -41 25 0 38 29 19 41 -8 5 -16 9 -19 9
-3 0 -11 -4 -19 -9z"/>
<path d="M1722 360 c14 -22 24 -19 15 5 -4 8 -11 15 -17 15 -6 0 -6 -7 2 -20z"/>
<path d="M1693 340 c-1 -11 2 -20 8 -20 5 0 9 9 9 20 0 11 -4 20 -8 20 -4 0
-8 -9 -9 -20z"/>
<path d="M2062 339 c2 -6 8 -10 13 -10 5 0 11 4 13 10 2 6 -4 11 -13 11 -9 0
-15 -5 -13 -11z"/>
<path d="M544 249 c-10 -17 13 -36 27 -22 12 12 4 33 -11 33 -5 0 -12 -5 -16
-11z"/>
<path d="M720 240 c0 -13 5 -20 13 -17 6 2 12 10 12 17 0 7 -6 15 -12 18 -8 2
-13 -5 -13 -18z"/>
<path d="M1395 250 c-7 -12 2 -30 16 -30 5 0 9 9 9 20 0 21 -15 27 -25 10z"/>
<path d="M1777 245 c-8 -18 11 -31 25 -17 11 11 3 32 -12 32 -4 0 -10 -7 -13
-15z"/>
<path d="M1850 250 c0 -5 5 -10 11 -10 5 0 7 5 4 10 -3 6 -8 10 -11 10 -2 0
-4 -4 -4 -10z"/>
<path d="M2060 240 c0 -19 3 -21 12 -12 9 9 9 15 0 24 -9 9 -12 7 -12 -12z"/>
<path d="M2465 250 c-7 -12 2 -30 16 -30 12 0 12 27 0 35 -5 3 -12 1 -16 -5z"/>
</g>
</svg>
