<?xml version="1.0" standalone="no"?>
<!DOCTYPE svg PUBLIC "-//W3C//DTD SVG 20010904//EN"
 "http://www.w3.org/TR/2001/REC-SVG-20010904/DTD/svg10.dtd">
<svg version="1.0" xmlns="http://www.w3.org/2000/svg"
 width="299.000000pt" height="236.000000pt" viewBox="0 0 299.000000 236.000000"
 preserveAspectRatio="xMidYMid meet">

<g transform="translate(0.000000,236.000000) scale(0.100000,-0.100000)"
fill="#000000" stroke="none">
<path d="M1464 1811 c-29 -13 -80 -74 -109 -131 -28 -54 -33 -121 -11 -139 8
-7 12 -21 8 -33 -3 -13 1 -24 12 -30 9 -5 16 -15 16 -22 0 -17 38 -28 46 -14
4 5 3 41 0 79 -8 79 4 114 35 104 14 -5 19 -2 19 10 0 13 -6 16 -26 11 -23 -6
-25 -5 -19 16 15 49 35 76 65 88 67 28 112 -31 114 -150 1 -47 -4 -72 -16 -90
-24 -32 -23 -60 1 -60 32 0 81 84 81 140 0 44 -23 114 -45 136 -8 9 -15 23
-15 33 0 35 -109 72 -156 52z m-49 -128 c-7 -27 -16 -57 -19 -68 -3 -11 -3 3
0 30 6 46 19 85 29 85 2 0 -2 -21 -10 -47z"/>
<path d="M1803 1726 c-55 -46 -78 -122 -89 -291 -3 -44 -7 -82 -10 -84 -3 -3
-25 2 -50 11 -42 15 -44 15 -44 -3 0 -10 4 -20 8 -23 12 -7 -3 -153 -17 -170
-20 -24 -67 0 -110 58 -44 58 -81 128 -81 151 0 22 -13 19 -39 -9 -22 -24 -25
-24 -69 -11 -25 8 -59 24 -74 35 -15 11 -28 16 -28 10 0 -6 -20 -20 -45 -32
-25 -12 -45 -28 -45 -35 0 -19 13 -16 54 12 32 22 36 23 36 6 0 -10 -8 -42
-19 -72 -10 -30 -21 -72 -25 -94 -14 -80 -19 -83 -31 -20 -7 34 -9 67 -4 76
10 19 -7 39 -32 39 -18 0 -33 -26 -23 -41 6 -10 -6 -123 -12 -116 -13 13 -55
180 -55 220 l-1 49 -28 -27 c-15 -15 -30 -26 -32 -25 -1 1 -16 -3 -31 -9 -16
-6 -30 -11 -32 -11 -2 0 12 31 31 70 37 72 39 96 13 160 -13 32 -66 74 -91 73
-10 -1 -16 2 -13 8 4 5 0 9 -7 10 -7 0 -31 2 -53 3 -57 5 -91 -31 -100 -106
-4 -35 -3 -63 4 -75 10 -17 10 -17 11 0 0 9 6 17 13 17 8 0 22 9 32 20 18 20
13 25 -22 21 -18 -3 -16 22 5 58 24 43 68 42 117 0 19 -17 35 -36 34 -43 -1
-6 3 -24 9 -39 16 -39 16 -42 -15 -56 -26 -12 -26 -14 -10 -25 18 -14 24 -32
7 -21 -5 3 -15 -5 -21 -19 -8 -16 -23 -26 -48 -31 -31 -6 -33 -9 -16 -15 19
-8 19 -9 -2 -9 -13 -1 -23 4 -23 9 0 6 -7 10 -15 10 -14 0 -35 37 -35 59 0 5
24 7 53 6 28 -1 58 0 65 3 18 6 15 19 -7 25 -15 3 -18 1 -14 -11 5 -12 2 -14
-11 -9 -10 4 -23 7 -29 7 -6 0 -2 7 9 15 19 14 18 14 -3 15 -32 0 -38 -3 -37
-17 1 -9 -6 -11 -22 -7 -21 5 -24 3 -24 -22 0 -42 19 -104 32 -104 7 0 9 -20
5 -62 -3 -34 -2 -56 3 -49 16 27 18 -9 5 -139 -14 -132 -12 -180 6 -180 5 0 9
5 9 10 0 6 6 10 13 9 27 -3 37 2 37 21 0 11 -4 20 -10 20 -21 0 -9 20 13 21
21 0 21 1 -3 11 -31 13 -12 22 36 16 34 -4 47 8 19 18 -8 4 -15 13 -15 21 0
22 57 -21 75 -58 25 -48 71 -89 84 -76 7 7 48 13 97 13 47 1 105 5 130 9 39 5
43 9 39 28 -14 59 -23 123 -18 130 10 17 112 2 128 -19 18 -24 19 -34 3 -31
-7 2 -4 -1 7 -6 12 -5 31 -28 44 -50 l23 -40 97 6 c102 6 210 34 242 63 13 12
19 30 19 60 0 35 5 47 25 60 13 8 29 13 35 9 12 -8 13 8 1 21 -5 5 -17 37 -26
72 -14 57 -14 64 0 79 20 20 13 74 -21 156 l-24 57 21 72 c31 100 57 122 113
97 33 -15 51 -79 22 -79 -18 0 -37 -23 -28 -35 4 -6 18 -11 32 -13 14 -1 31
-4 38 -7 28 -10 3 -120 -30 -131 -10 -3 -18 -9 -18 -14 0 -5 7 -7 15 -4 8 4
15 2 15 -4 0 -6 -5 -12 -12 -14 -7 -3 4 -21 25 -45 20 -22 37 -47 37 -54 0 -8
-21 -52 -45 -98 -25 -45 -45 -86 -45 -90 0 -3 46 -7 102 -8 56 -2 105 -6 110
-11 10 -10 110 8 119 22 4 5 15 5 25 1 28 -11 94 -23 89 -16 -3 6 58 5 168 -2
20 -1 37 0 37 4 0 3 7 6 15 6 8 0 15 -4 15 -9 0 -5 4 -7 10 -3 5 3 11 -29 13
-82 l3 -88 2 93 2 93 95 -3 c88 -3 95 -2 95 16 0 17 3 16 23 -7 20 -24 26 -26
57 -17 19 6 50 10 67 10 32 0 33 1 33 44 0 35 -4 46 -19 51 -10 3 -26 14 -35
24 -16 17 -16 21 0 60 12 31 13 45 5 55 -6 7 -8 27 -5 44 5 24 1 36 -19 56
-15 14 -36 26 -48 26 -21 0 -21 -1 -5 -19 26 -29 38 -81 20 -88 -7 -3 -14 -18
-14 -33 0 -24 -5 -29 -36 -35 -43 -8 -56 5 -51 48 2 15 0 27 -5 27 -4 0 -8
-28 -8 -62 0 -43 5 -67 17 -80 9 -10 18 -31 19 -46 2 -25 1 -24 -17 10 -15 29
-24 37 -47 36 -26 -1 -92 26 -92 38 0 3 8 14 19 25 24 26 31 62 31 156 0 67
-2 76 -26 98 -28 26 -66 32 -108 15 -20 -7 -26 -16 -25 -37 0 -27 1 -27 9 -5
7 17 17 22 45 22 54 0 104 -58 53 -61 -17 -1 -19 -2 -5 -6 26 -7 21 -26 -6
-21 -20 4 -24 1 -24 -24 0 -33 5 -36 15 -8 5 13 11 17 21 10 11 -6 12 -16 5
-41 -10 -34 -33 -52 -30 -23 0 9 -5 19 -13 22 -11 4 -13 -2 -8 -26 4 -22 2
-34 -8 -39 -15 -9 -16 -44 -1 -54 15 -12 -4 -29 -32 -28 -60 1 -66 9 -63 87 2
49 -1 72 -9 72 -8 0 -11 -19 -9 -55 3 -54 2 -56 -40 -92 -34 -29 -45 -33 -52
-22 -7 11 -9 9 -9 -7 0 -30 -23 -46 -75 -52 -36 -4 -45 -1 -45 11 0 8 -7 28
-15 43 -12 24 -12 31 -2 42 15 15 47 6 47 -13 0 -7 7 -15 14 -18 11 -4 13 -1
9 11 -4 9 -10 19 -13 22 -12 9 -21 60 -10 60 20 0 10 18 -14 24 -28 7 -59 50
-53 74 4 13 5 12 6 -4 1 -25 25 -49 40 -40 5 4 8 15 6 26 -2 11 2 20 8 20 8 0
7 3 -2 9 -11 7 -10 11 4 19 17 9 17 10 -3 21 -18 10 -23 8 -33 -10 -9 -17 -13
-19 -20 -8 -7 11 -12 12 -28 2 -18 -12 -19 -10 -14 25 3 20 6 38 7 39 1 1 21
-2 46 -7 50 -9 62 -6 54 15 -8 20 -31 26 -59 15 -31 -12 -34 6 -6 42 19 24 19
24 1 36 -12 7 -21 8 -25 2 -4 -6 -11 -8 -16 -5 -5 3 -6 -2 -2 -11 4 -12 3 -15
-5 -10 -7 4 -14 -4 -18 -21 -3 -15 -8 -35 -10 -45 -7 -24 17 -108 30 -108 11
0 14 -15 19 -79 3 -38 -21 -36 -44 3 -14 23 -29 36 -42 36 -12 0 -28 4 -36 9
-12 8 -12 13 3 36 16 25 16 28 1 45 -10 11 -14 26 -11 38 4 11 -6 41 -24 75
-16 31 -30 66 -30 76 0 11 -17 38 -38 61 -31 31 -46 40 -73 40 -19 0 -43 3
-55 6 -14 4 -31 -3 -51 -20z m-893 -177 c0 -6 -4 -7 -10 -4 -5 3 -10 11 -10
16 0 6 5 7 10 4 6 -3 10 -11 10 -16z m14 -72 c4 -19 3 -26 -4 -22 -5 3 -10 18
-10 32 0 32 5 28 14 -10z m1921 -247 c-3 -5 -10 -10 -16 -10 -5 0 -9 5 -9 10
0 6 7 10 16 10 8 0 12 -4 9 -10z"/>
<path d="M1190 1704 c8 -10 21 -25 28 -32 6 -7 12 -19 12 -26 0 -8 3 -28 7
-46 4 -23 3 -31 -5 -26 -7 4 -10 -5 -10 -26 1 -18 -3 -55 -7 -83 -8 -46 -7
-49 8 -36 10 7 17 24 17 37 0 13 10 33 22 44 14 12 19 24 13 28 -6 4 -11 29
-11 55 -2 60 -19 94 -59 114 -29 16 -30 16 -15 -3z"/>
<path d="M1022 1688 c-14 -14 -16 -42 -3 -34 7 5 23 46 17 46 -1 0 -7 -5 -14
-12z"/>
<path d="M1545 1663 c-22 -22 -14 -37 23 -41 37 -4 44 17 10 26 -20 5 -20 6
-3 12 16 6 17 7 2 13 -9 3 -23 -1 -32 -10z"/>
<path d="M2300 1630 c-12 -8 -12 -10 -1 -10 11 0 11 -3 1 -15 -11 -13 -8 -14
16 -10 25 5 32 1 52 -28 12 -18 22 -39 22 -45 0 -7 5 -12 11 -12 8 0 8 -4 0
-14 -8 -9 -8 -16 -2 -20 12 -8 20 19 18 59 -2 23 -7 31 -24 33 -13 2 -23 9
-23 15 -1 15 -35 57 -47 57 -4 0 -15 -5 -23 -10z"/>
<path d="M991 1580 l1 -45 8 35 c5 20 5 39 -1 45 -5 5 -9 -8 -8 -35z"/>
<path d="M1835 1580 c3 -5 -2 -10 -12 -10 -15 0 -16 -2 -3 -10 24 -16 40 -12
40 10 0 11 -7 20 -16 20 -8 0 -12 -4 -9 -10z"/>
<path d="M1043 1563 c9 -2 23 -2 30 0 6 3 -1 5 -18 5 -16 0 -22 -2 -12 -5z"/>
<path d="M1525 1560 c-3 -5 -1 -10 4 -10 6 0 11 5 11 10 0 6 -2 10 -4 10 -3 0
-8 -4 -11 -10z"/>
<path d="M1170 1551 c0 -5 9 -11 20 -14 24 -6 27 8 4 17 -21 8 -24 8 -24 -3z"/>
<path d="M377 1522 c-24 -10 -106 -112 -114 -141 -3 -14 -1 -37 5 -53 5 -15 6
-30 2 -33 -5 -3 -14 12 -21 32 -18 57 -49 92 -84 99 -35 6 -115 -12 -115 -26
0 -5 -8 -11 -19 -15 -28 -9 -35 -117 -10 -165 10 -19 25 -50 34 -67 8 -18 20
-33 25 -33 15 0 12 31 -6 51 -9 10 -18 35 -21 57 -5 34 -2 41 16 47 25 8 27
21 5 33 -24 13 -13 45 20 57 26 9 31 6 61 -29 38 -46 61 -106 43 -117 -18 -11
10 -66 37 -73 14 -4 25 -16 29 -32 4 -16 12 -24 20 -21 8 3 18 1 24 -5 16 -16
66 13 70 40 2 12 6 20 10 18 19 -11 2 56 -20 83 -40 46 -49 132 -15 130 9 0 9
-2 0 -6 -22 -8 -14 -25 10 -21 36 5 28 33 -10 32 -39 -2 -43 14 -12 57 29 41
67 39 108 -6 32 -35 32 -36 7 -29 -22 5 -26 3 -26 -16 0 -20 4 -22 34 -16 32
6 35 4 45 -26 18 -54 -9 -119 -59 -142 -8 -3 2 -4 22 -2 20 3 38 1 40 -4 2 -5
24 -2 49 6 l46 16 -4 66 c-2 39 -11 78 -21 92 -9 14 -26 46 -39 71 -13 25 -34
56 -47 68 -25 24 -88 36 -119 23z m-112 -362 c3 -5 -1 -10 -10 -10 -9 0 -13 5
-10 10 3 6 8 10 10 10 2 0 7 -4 10 -10z"/>
<path d="M756 1521 c-9 -14 38 -35 60 -27 21 8 9 22 -27 31 -16 4 -30 2 -33
-4z"/>
<path d="M1523 1519 c14 -8 22 -8 30 0 8 8 3 11 -18 11 -26 -1 -28 -2 -12 -11z"/>
<path d="M2321 1506 c-17 -20 10 -39 39 -28 l22 8 -25 17 c-21 13 -27 14 -36
3z"/>
<path d="M1910 1502 c0 -6 6 -13 13 -15 9 -4 8 -8 -3 -16 -13 -9 -13 -11 3
-11 21 0 22 23 2 40 -9 8 -15 8 -15 2z"/>
<path d="M1080 1490 c0 -5 5 -10 11 -10 5 0 7 5 4 10 -3 6 -8 10 -11 10 -2 0
-4 -4 -4 -10z"/>
<path d="M1115 1480 c4 -6 11 -8 16 -5 14 9 11 15 -7 15 -8 0 -12 -5 -9 -10z"/>
<path d="M991 1464 c0 -11 3 -14 6 -6 3 7 2 16 -1 19 -3 4 -6 -2 -5 -13z"/>
<path d="M1068 1433 c6 -2 18 -2 25 0 6 3 1 5 -13 5 -14 0 -19 -2 -12 -5z"/>
<path d="M2558 1433 c6 -2 18 -2 25 0 6 3 1 5 -13 5 -14 0 -19 -2 -12 -5z"/>
<path d="M1010 1395 c0 -19 23 -45 40 -45 6 0 9 -3 7 -7 -3 -5 6 -9 19 -9 13
-1 24 2 24 7 0 5 -4 9 -10 9 -5 0 -25 14 -45 31 -27 24 -35 27 -35 14z"/>
<path d="M1878 1383 c6 -2 18 -2 25 0 6 3 1 5 -13 5 -14 0 -19 -2 -12 -5z"/>
<path d="M2815 1330 c3 -5 13 -10 21 -10 8 0 14 5 14 10 0 6 -9 10 -21 10 -11
0 -17 -4 -14 -10z"/>
<path d="M120 1295 c0 -8 9 -15 20 -15 11 0 20 2 20 5 0 2 -9 9 -20 15 -16 9
-20 8 -20 -5z"/>
<path d="M459 1271 c11 -7 11 -9 0 -14 -8 -3 -9 -6 -3 -6 6 -1 17 6 24 14 10
13 9 15 -11 15 -17 0 -20 -3 -10 -9z"/>
<path d="M382 1253 c6 -7 20 -12 32 -12 19 1 19 2 2 6 -14 4 -16 7 -6 13 8 5
4 8 -13 7 -19 -2 -23 -5 -15 -14z"/>
<path d="M2375 1230 c3 -5 8 -10 11 -10 2 0 4 5 4 10 0 6 -5 10 -11 10 -5 0
-7 -4 -4 -10z"/>
<path d="M650 1133 c-23 -58 -23 -61 0 -20 12 21 20 43 18 48 -2 6 -10 -7 -18
-28z"/>
<path d="M615 1059 c-4 -6 -5 -12 -2 -15 2 -3 7 2 10 11 7 17 1 20 -8 4z"/>
<path d="M473 1004 c-25 -26 -22 -33 12 -26 25 4 31 18 17 38 -5 7 -14 3 -29
-12z"/>
<path d="M520 990 c0 -5 5 -10 11 -10 5 0 7 5 4 10 -3 6 -8 10 -11 10 -2 0 -4
-4 -4 -10z"/>
<path d="M390 950 c0 -5 12 -10 26 -10 14 0 23 4 19 10 -3 6 -15 10 -26 10
-10 0 -19 -4 -19 -10z"/>
<path d="M0 170 l0 -170 1495 0 1495 0 0 170 0 170 -1495 0 -1495 0 0 -170z
m1567 108 c-2 -7 2 -30 9 -50 13 -38 8 -48 -14 -26 -9 9 -15 9 -24 0 -7 -7
-15 -12 -19 -12 -10 0 9 59 25 79 8 11 8 13 -1 7 -7 -4 -13 -2 -13 3 0 6 9 11
21 11 12 0 19 -5 16 -12z m-549 -45 c-3 -33 -6 -38 -28 -38 -19 0 -26 6 -28
23 -5 36 5 52 33 52 24 0 26 -3 23 -37z m71 25 c-6 -45 1 -58 31 -58 17 0 30
-4 30 -10 0 -11 -43 -14 -54 -3 -4 4 -19 7 -34 8 -20 0 -28 6 -30 23 -2 13 -1
30 2 38 7 17 58 19 55 2z m122 -5 c1 -17 2 -17 6 0 3 11 14 17 35 17 24 0 28
-3 19 -13 -8 -10 -7 -17 1 -25 6 -6 8 -18 4 -27 -7 -19 -47 -17 -54 4 -3 10 2
11 18 6 15 -5 20 -4 16 4 -12 19 -43 12 -49 -10 -8 -29 -51 -22 -55 9 -5 36 5
52 33 52 17 0 25 -6 26 -17z m143 -40 c-9 -21 -18 -33 -21 -26 -2 6 3 28 13
50 9 21 18 33 21 26 2 -6 -3 -28 -13 -50z m66 47 c0 -19 -30 -83 -36 -78 -8 8
17 88 28 88 4 0 8 -5 8 -10z m90 0 c0 -5 -8 -11 -17 -11 -17 -1 -16 -2 0 -6
28 -7 18 -48 -12 -48 -13 0 -26 6 -29 14 -3 9 2 11 19 7 l24 -6 -22 11 c-35
18 -30 49 7 49 17 0 30 -4 30 -10z m145 -10 c9 -29 -12 -62 -38 -58 -22 3 -34
35 -23 64 8 22 54 18 61 -6z m93 -3 c3 -12 -4 -20 -17 -24 -12 -3 -21 -12 -21
-19 0 -8 -4 -14 -10 -14 -5 0 -10 18 -10 41 0 38 2 40 27 37 17 -2 29 -10 31
-21z m61 -13 c7 -19 10 -39 6 -42 -4 -4 -10 -1 -12 6 -3 6 -11 12 -18 12 -7 0
-15 -6 -18 -12 -2 -7 -8 -10 -12 -6 -10 9 16 78 30 78 6 0 17 -16 24 -36z m41
6 c0 -16 5 -30 10 -30 6 0 10 14 10 30 0 17 5 30 11 30 6 0 9 -16 7 -37 -2
-30 -8 -39 -25 -41 -22 -3 -41 20 -37 46 1 6 2 17 3 22 3 24 21 7 21 -20z m70
0 c0 -24 4 -30 20 -30 12 0 20 6 19 13 -5 37 2 47 32 47 29 0 30 -2 27 -37
l-3 -38 -57 -2 -58 -2 0 39 c0 22 5 40 10 40 6 0 10 -13 10 -30z m-212 -96 c2
-20 -2 -42 -9 -50 -13 -16 -49 -19 -49 -4 0 5 -7 7 -15 4 -8 -4 -15 -12 -15
-20 0 -22 -28 -16 -35 7 -5 16 -9 18 -21 8 -16 -13 -16 -13 -32 16 -10 17 -11
17 -12 3 0 -9 -4 -20 -10 -23 -13 -8 -13 45 0 65 9 13 12 12 25 -4 13 -17 15
-18 15 -3 0 26 20 20 21 -5 l0 -23 9 23 c11 25 60 32 60 8 0 -9 -7 -12 -19 -9
-19 5 -37 -22 -21 -32 15 -10 36 5 54 40 26 47 51 46 54 -1z m-494 10 c9 -8
16 -11 16 -5 0 6 14 11 30 11 24 0 30 -4 31 -22 l2 -23 4 23 c5 26 21 28 39 5
13 -17 13 -17 14 0 0 25 35 21 47 -5 10 -23 10 -23 17 -2 5 16 15 21 46 22 22
1 40 -3 40 -8 0 -6 -10 -11 -22 -11 -17 -1 -19 -2 -5 -6 9 -2 17 -9 17 -14 0
-5 -8 -10 -17 -10 -17 -1 -17 -2 0 -6 26 -7 21 -23 -8 -23 -21 0 -25 5 -26 33
l0 32 -17 -33 c-18 -38 -36 -37 -40 1 -4 33 -22 26 -22 -9 0 -27 -17 -32 -27
-8 -6 15 -8 15 -21 -2 -10 -13 -16 -15 -19 -7 -3 10 -9 10 -24 0 -14 -9 -24
-9 -36 -1 -12 8 -23 8 -34 1 -42 -26 -66 26 -29 63 24 24 24 24 44 4z m1196
-15 c-17 -5 -19 -7 -7 -8 30 -2 18 -46 -12 -46 -13 0 -26 6 -29 14 -3 10 2 11
19 6 l24 -8 -25 22 c-24 20 -24 21 -6 36 15 11 23 12 40 3 21 -12 21 -12 -4
-19z m-1783 9 c-2 -7 -14 -12 -25 -10 -17 2 -22 -2 -22 -18 0 -17 4 -20 21
-15 15 5 20 3 17 -6 -7 -20 -47 -23 -54 -5 -3 9 -3 27 0 41 5 20 13 25 37 25
20 0 29 -4 26 -12z m101 -4 c8 -15 10 -15 15 0 5 14 23 16 113 15 115 -2 127
-8 105 -55 -15 -33 -53 -29 -61 6 -4 15 -9 20 -13 13 -4 -6 -4 -18 -1 -27 3
-9 2 -16 -4 -16 -5 0 -13 7 -16 17 -6 14 -8 14 -21 -3 -13 -18 -14 -16 -15 21
0 31 -2 37 -12 27 -13 -13 -14 -17 -17 -47 0 -8 -6 -15 -12 -15 -7 0 -9 11 -6
29 4 20 2 31 -8 35 -10 3 -15 -4 -17 -26 -4 -39 -21 -46 -36 -16 l-11 23 0
-22 c-1 -13 -6 -23 -12 -23 -8 0 -10 12 -6 34 5 31 3 33 -16 28 -12 -3 -16 -7
-9 -10 18 -6 15 -22 -5 -23 -17 -1 -17 -2 0 -6 26 -7 21 -23 -8 -23 -20 0 -25
5 -25 24 0 45 10 56 51 56 25 0 41 -6 47 -16z m332 -8 c0 -42 -10 -56 -42 -56
-27 0 -30 3 -24 23 3 12 6 30 6 40 0 12 8 17 30 17 25 0 30 -4 30 -24z m70 14
c0 -5 -10 -11 -22 -11 -17 -1 -19 -2 -5 -6 9 -2 17 -9 17 -14 0 -5 -8 -10 -17
-10 -17 -1 -17 -2 0 -6 27 -7 20 -25 -8 -21 -14 2 -25 6 -25 11 0 4 0 21 0 37
0 27 3 30 30 30 17 0 30 -4 30 -10z m710 -1 c0 -5 -8 -9 -17 -9 -15 0 -15 -1
2 -14 11 -8 16 -19 12 -30 -8 -21 -57 -22 -57 0 0 11 6 14 23 10 l22 -6 -22
11 c-13 7 -23 18 -23 25 0 8 -8 10 -22 6 -19 -5 -20 -7 -5 -10 9 -2 17 -8 17
-13 0 -5 -8 -10 -17 -10 -17 -1 -17 -2 0 -6 28 -7 19 -23 -13 -23 -31 0 -33 7
-15 67 5 14 115 16 115 2z m99 -6 c10 -17 10 -17 11 0 0 14 10 17 61 17 59 0
61 -1 56 -22 l-6 -23 16 23 c9 12 26 22 39 22 21 0 24 -5 24 -34 0 -42 -5 -44
-117 -44 -79 -1 -83 0 -84 21 l-2 22 -4 -22 c-5 -28 -12 -29 -29 -5 -13 16
-13 16 -14 0 0 -10 -4 -18 -10 -18 -11 0 -13 24 -4 58 8 27 48 30 63 5z m233
-13 c-2 -17 0 -30 6 -30 6 0 13 14 17 30 7 30 24 42 26 18 0 -10 2 -10 6 0 2
6 18 12 35 12 19 0 28 -4 25 -12 -2 -7 -14 -12 -25 -10 -17 2 -22 -2 -22 -18
0 -17 4 -20 23 -15 12 4 32 19 44 33 26 31 32 27 40 -22 4 -24 2 -36 -6 -36
-6 0 -11 5 -11 10 0 6 -7 10 -15 10 -8 0 -15 -5 -15 -11 0 -6 -7 -8 -15 -5 -9
3 -18 -1 -21 -9 -6 -15 -35 -22 -33 -7 1 4 -2 18 -7 31 l-7 25 -9 -23 c-5 -16
-14 -21 -30 -19 -19 2 -24 10 -26 41 -2 26 1 37 11 37 9 0 12 -9 9 -30z"/>
<path d="M980 230 c0 -11 5 -20 10 -20 6 0 10 9 10 20 0 11 -4 20 -10 20 -5 0
-10 -9 -10 -20z"/>
<path d="M1050 220 c0 -5 5 -10 11 -10 5 0 7 5 4 10 -3 6 -8 10 -11 10 -2 0
-4 -4 -4 -10z"/>
<path d="M1170 236 c0 -8 5 -18 10 -21 6 -3 10 3 10 14 0 12 -4 21 -10 21 -5
0 -10 -6 -10 -14z"/>
<path d="M1610 229 c0 -24 23 -21 28 4 2 10 -3 17 -12 17 -10 0 -16 -9 -16
-21z"/>
<path d="M1977 244 c-8 -8 3 -34 14 -34 5 0 9 9 9 20 0 19 -11 26 -23 14z"/>
<path d="M1666 124 c-9 -22 -8 -24 9 -24 8 0 15 9 15 20 0 24 -15 27 -24 4z"/>
<path d="M1174 125 c-4 -9 -4 -18 -1 -21 10 -10 48 7 44 19 -6 19 -36 20 -43
2z"/>
<path d="M1243 125 c-3 -9 -3 -18 0 -21 9 -9 27 6 27 22 0 19 -19 18 -27 -1z"/>
<path d="M920 120 c0 -24 15 -27 24 -4 9 22 8 24 -9 24 -8 0 -15 -9 -15 -20z"/>
<path d="M1017 119 c-3 -13 -1 -19 6 -16 15 5 22 37 9 37 -5 0 -12 -9 -15 -21z"/>
<path d="M1985 139 c-11 -4 -14 -8 -7 -8 18 -1 15 -19 -5 -24 -14 -4 -13 -5 4
-6 14 -1 24 7 28 20 8 26 5 29 -20 18z"/>
<path d="M2100 131 c-13 -26 -13 -31 5 -31 9 0 15 9 15 25 0 30 -6 32 -20 6z"/>
<path d="M2028 103 c7 -3 16 -2 19 1 4 3 -2 6 -13 5 -11 0 -14 -3 -6 -6z"/>
</g>
</svg>
