<?xml version="1.0" standalone="no"?>
<!DOCTYPE svg PUBLIC "-//W3C//DTD SVG 20010904//EN"
 "http://www.w3.org/TR/2001/REC-SVG-20010904/DTD/svg10.dtd">
<svg version="1.0" xmlns="http://www.w3.org/2000/svg"
 width="225.000000pt" height="449.000000pt" viewBox="0 0 225.000000 449.000000"
 preserveAspectRatio="xMidYMid meet">

<g transform="translate(0.000000,449.000000) scale(0.100000,-0.100000)"
fill="#000000" stroke="none">
<path d="M1013 4402 l-923 -2 -1 -873 c-1 -479 -3 -885 -4 -902 -2 -16 -3 -83
-4 -148 -1 -66 -5 -116 -10 -113 -5 3 -15 -2 -22 -12 -13 -15 -12 -16 3 -4 11
9 18 10 23 2 3 -5 4 -10 0 -10 -3 0 -1 -9 5 -20 6 -11 15 -18 19 -15 5 2 17
-7 26 -21 9 -15 12 -23 6 -20 -6 4 -12 0 -13 -11 0 -10 -2 -25 -2 -33 -1 -8
-9 -14 -19 -12 -11 2 -15 -2 -11 -12 3 -8 2 -22 -3 -31 -7 -11 -9 9 -9 61 1
66 -2 77 -16 80 -16 2 -16 0 -2 -28 15 -29 15 -30 -4 -23 -11 3 -23 1 -27 -4
-4 -7 0 -8 11 -4 14 5 15 3 5 -15 -7 -14 -8 -23 -1 -27 6 -4 10 -3 9 2 -3 17
1 33 9 33 16 0 0 -71 -19 -81 -15 -8 -19 -6 -20 8 -1 10 -1 22 0 26 1 5 -3 6
-8 2 -7 -4 -10 -394 -11 -1101 l0 -1094 1044 0 c892 1 1045 3 1050 15 3 8 1
17 -4 20 -5 3 -7 12 -4 19 3 8 1 17 -4 20 -5 3 -9 -2 -8 -11 0 -9 -5 -18 -12
-20 -8 -3 -10 1 -5 14 3 10 3 15 -1 12 -4 -4 -9 -17 -11 -29 -2 -12 -7 -25
-11 -29 -4 -3 -4 2 -1 11 3 10 2 20 -3 23 -6 4 -10 16 -9 28 1 20 2 20 8 -3 7
-24 8 -24 14 -4 4 12 15 21 25 21 9 0 32 1 50 2 l32 1 0 500 c0 489 0 500 20
510 16 9 20 21 20 63 l0 52 -92 -3 c-123 -3 -141 -8 -133 -32 11 -33 -12 -60
-51 -60 -34 0 -62 29 -36 38 7 2 12 10 12 18 0 8 7 11 18 8 14 -5 14 -3 -2 10
-35 28 -56 15 -56 -35 0 -14 -7 -19 -25 -19 -26 0 -33 18 -14 37 7 7 3 12 -15
17 l-26 6 0 154 c0 131 2 155 16 160 28 11 61 6 74 -9 7 -9 15 -13 18 -10 11
11 11 40 -1 54 -9 10 -9 15 -1 18 7 2 9 13 7 24 -4 15 3 28 23 44 41 32 54 18
54 -59 0 -35 5 -67 12 -74 8 -8 45 -12 100 -12 79 0 87 -2 82 -17 -5 -15 -3
-15 10 1 9 11 16 22 16 25 0 3 -44 6 -97 6 l-98 0 2 70 c2 62 6 72 29 91 22
18 25 27 19 53 l-7 31 49 -1 c47 -2 48 -2 10 -8 -21 -3 -38 -9 -37 -13 0 -5 0
-16 0 -26 0 -15 8 -19 41 -20 22 -1 45 -4 50 -8 5 -3 9 96 9 242 l0 247 -35
39 -36 39 36 43 35 43 0 1027 c0 878 -2 1026 -14 1026 -8 0 -17 6 -19 13 -4
10 -6 10 -6 0 -1 -16 -108 -18 -113 -2 -5 15 40 14 -985 11z m202 -822 c10
-11 16 -22 14 -24 -2 -3 -14 6 -26 20 -12 13 -18 24 -14 24 4 0 16 -9 26 -20z
m35 -80 c0 -13 -1 -13 -10 0 -5 8 -10 22 -10 30 0 13 1 13 10 0 5 -8 10 -22
10 -30z m-194 -89 c15 -12 22 -21 16 -21 -18 0 -62 60 -61 83 1 16 3 14 10
-10 5 -17 21 -41 35 -52z m119 69 c3 -5 1 -10 -4 -10 -6 0 -11 5 -11 10 0 6 2
10 4 10 3 0 8 -4 11 -10z m-60 -30 c3 -6 -1 -7 -9 -4 -18 7 -21 14 -7 14 6 0
13 -4 16 -10z m-373 -114 c52 -1 31 -16 -36 -25 -67 -9 -86 -25 -160 -131 -60
-85 -78 -103 -101 -98 -13 2 -4 21 40 83 59 83 109 134 135 135 36 3 -29 19
-80 20 l-55 2 30 14 c23 11 49 13 110 7 44 -3 97 -7 117 -7z m-262 -20 c0 -2
-8 -10 -17 -17 -16 -13 -17 -12 -4 4 13 16 21 21 21 13z m-33 -68 c-3 -7 -5
-2 -5 12 0 14 2 19 5 13 2 -7 2 -19 0 -25z m221 -27 c-36 -29 -81 -98 -73
-112 5 -7 3 -10 -6 -7 -39 13 -13 84 44 118 42 26 67 26 35 1z m71 0 c-8 -11
-27 -39 -43 -61 -25 -35 -27 -43 -15 -51 11 -8 10 -9 -6 -7 -32 5 -30 43 5 93
20 29 38 45 52 45 18 0 19 -2 7 -19z m101 11 c0 -5 -3 -12 -7 -16 -5 -4 -8
-11 -8 -15 0 -5 -17 -27 -37 -50 -37 -40 -61 -51 -73 -31 -3 6 -2 10 3 10 5 0
29 25 52 55 38 49 70 70 70 47z m60 -17 c0 -13 -14 -40 -31 -59 -17 -20 -27
-40 -23 -47 4 -7 1 -10 -7 -7 -26 8 -21 45 10 81 35 40 38 49 14 41 -15 -5
-16 -4 -3 5 25 18 40 12 40 -14z m123 15 c-28 -12 -95 -100 -88 -118 3 -8 0
-12 -7 -10 -7 3 -14 18 -16 35 -3 25 4 37 39 67 26 22 53 36 68 35 25 0 25 -1
4 -9z m67 3 c0 -3 -26 -40 -57 -82 -94 -123 -89 -115 -62 -101 13 7 35 22 49
34 14 11 12 7 -6 -11 -29 -28 -101 -59 -112 -48 -2 2 13 25 34 51 22 27 32 44
24 39 -8 -5 12 21 44 58 52 58 86 82 86 60z m90 2 c0 -3 -18 -30 -41 -60 -23
-31 -38 -59 -33 -66 4 -7 2 -10 -7 -7 -28 9 -21 48 16 94 31 37 65 58 65 39z
m80 0 c0 -3 -19 -31 -41 -61 -43 -56 -46 -81 -7 -48 l23 18 -22 -23 c-25 -28
-53 -22 -53 10 0 25 66 109 86 109 8 0 14 -2 14 -5z m115 -4 c3 -5 -6 -22 -21
-38 -22 -24 -24 -25 -10 -3 24 37 19 47 -10 19 -36 -34 -67 -87 -58 -100 4 -7
1 -10 -7 -7 -22 7 -23 57 -2 80 22 25 73 58 90 58 6 0 14 -4 18 -9z m85 0 c0
-6 -5 -13 -10 -16 -6 -4 -7 -11 -4 -17 4 -6 2 -8 -4 -4 -6 3 -13 -2 -17 -11
-9 -28 -52 -73 -70 -73 -13 0 -14 4 -4 23 34 65 109 133 109 98z m50 -6 c0
-21 -36 -39 -43 -21 -6 16 11 36 30 36 7 0 13 -7 13 -15z m51 -10 c-54 -46
-95 -133 -44 -94 17 12 17 12 1 -5 -21 -24 -48 -14 -48 16 0 31 25 65 64 89
45 27 63 23 27 -6z m89 20 c0 -3 -18 -29 -40 -57 -23 -28 -39 -57 -35 -65 3
-9 0 -13 -7 -11 -7 3 -14 15 -16 27 -4 27 56 110 81 111 9 0 17 -2 17 -5z m80
-4 c0 -4 -18 -31 -41 -60 -23 -28 -37 -56 -33 -62 4 -7 1 -10 -7 -7 -26 9 -20
44 17 91 33 42 64 61 64 38z m80 -2 c0 -11 -136 -189 -154 -201 -31 -22 -35
-4 -6 32 17 22 29 44 25 50 -4 6 -2 9 3 8 5 -2 29 22 52 52 54 68 80 88 80 59z
m-660 -93 c0 -2 -8 -10 -17 -17 -16 -13 -17 -12 -4 4 13 16 21 21 21 13z m470
0 c0 -2 -8 -10 -17 -17 -16 -13 -17 -12 -4 4 13 16 21 21 21 13z m157 -37
c-17 -24 -66 -59 -82 -59 -5 0 4 9 21 19 18 11 40 31 50 44 23 31 32 27 11 -4z
m-509 -136 c-86 -2 -230 -2 -320 0 -90 1 -19 3 157 3 176 0 249 -2 163 -3z
m-698 -125 l9 -23 7 23 c3 12 10 22 15 22 5 0 2 -14 -7 -32 -16 -30 -17 -31
-30 -13 -14 19 -19 45 -9 45 3 0 10 -10 15 -22z m77 -25 c-3 -10 -5 -2 -5 17
0 19 2 27 5 18 2 -10 2 -26 0 -35z m57 25 l7 -23 9 23 c14 33 21 27 9 -8 -6
-16 -15 -30 -19 -30 -4 0 -13 14 -19 30 -5 17 -6 30 -2 30 5 0 12 -10 15 -22z
m101 -18 c7 -23 6 -24 -9 -11 -15 13 -19 13 -27 0 -8 -11 -9 -10 -6 6 2 11 8
19 15 18 7 -2 9 4 5 15 -4 11 -3 14 4 7 6 -5 14 -21 18 -35z m98 21 c-6 -22
14 -38 29 -23 8 8 7 16 -3 28 -12 15 -12 17 1 12 24 -8 19 -52 -6 -56 -25 -4
-49 22 -40 43 8 22 25 19 19 -4z m157 -2 c13 -24 4 -41 -10 -19 -8 13 -10 12
-10 -2 0 -10 -4 -18 -8 -18 -5 0 -7 14 -4 30 5 35 17 38 32 9z m39 -11 c-1
-18 -3 -25 -6 -15 -2 9 -8 17 -13 17 -5 0 -7 7 -4 15 11 27 24 16 23 -17z m80
6 c13 -29 6 -47 -10 -24 -8 13 -10 13 -18 0 -6 -8 -13 -12 -16 -8 -3 3 0 12 8
19 7 8 12 20 9 27 -8 24 15 12 27 -14z m50 14 c-3 -26 1 -38 15 -38 8 0 17 6
19 13 3 7 6 5 6 -5 1 -18 -15 -23 -43 -12 -16 6 -22 35 -9 47 10 10 14 8 12
-5z m102 -4 c12 -14 14 -14 20 3 5 13 7 8 6 -14 0 -39 -7 -41 -26 -10 l-15 22
-7 -25 c-7 -22 -7 -22 -6 8 1 36 8 40 28 16z m79 -14 c0 -16 -4 -30 -10 -30
-5 0 -10 14 -10 30 0 17 5 30 10 30 6 0 10 -13 10 -30z m45 20 c-3 -5 0 -10 7
-10 10 0 10 -2 -1 -9 -7 -5 -10 -14 -7 -20 4 -6 2 -11 -3 -11 -6 0 -11 14 -11
30 0 17 5 30 11 30 5 0 7 -4 4 -10z m75 -20 c0 -16 -4 -30 -10 -30 -5 0 -10
14 -10 30 0 17 5 30 10 30 6 0 10 -13 10 -30z m43 14 c-4 -11 1 -22 13 -31 19
-14 19 -15 -1 -11 -21 3 -36 58 -16 58 6 0 8 -7 4 -16z m80 -3 c-6 -22 14 -38
29 -23 8 8 7 16 -3 28 -12 15 -12 17 1 12 24 -8 19 -52 -6 -56 -25 -4 -49 22
-40 43 8 22 25 19 19 -4z m-563 -539 c0 -4 -5 -13 -12 -20 -9 -9 -8 -12 5 -12
13 0 16 -4 10 -17 -12 -25 -10 -132 2 -135 6 -2 11 13 13 32 2 19 9 38 15 42
9 6 8 11 -3 18 -13 9 -13 11 0 20 10 6 11 10 3 10 -7 0 -13 7 -13 15 0 8 5 15
11 15 6 0 9 9 6 20 -4 16 0 20 17 20 22 0 23 -5 29 -96 5 -70 3 -99 -6 -108
-7 -7 -38 -15 -69 -19 -51 -5 -58 -3 -71 17 -8 12 -13 33 -12 46 1 14 3 55 4
93 l1 67 35 0 c19 0 35 -4 35 -8z m-953 -84 c-3 -7 -5 -2 -5 12 0 14 2 19 5
13 2 -7 2 -19 0 -25z m1591 -53 c2 -16 1 -53 -3 -81 l-6 -52 -56 -4 c-30 -1
-58 1 -61 6 -7 13 -5 143 3 157 4 5 32 9 63 7 55 -3 57 -4 60 -33z m-1128 17
c9 -4 15 -22 16 -44 l1 -38 -52 0 c-57 0 -76 17 -50 44 11 11 12 16 2 19 -9 4
-8 8 3 16 17 12 57 13 80 3z m-545 -91 c0 -68 -9 -90 -11 -28 -1 18 -2 42 -3
55 0 13 -5 20 -11 17 -6 -4 -9 -21 -6 -38 3 -18 2 -38 -2 -44 -5 -7 -8 12 -8
41 0 47 2 54 18 51 10 -2 18 0 18 6 0 5 1 9 3 9 1 0 2 -31 2 -69z m22 17 c-3
-7 -5 -2 -5 12 0 14 2 19 5 13 2 -7 2 -19 0 -25z m0 -40 c-3 -8 -6 -5 -6 6 -1
11 2 17 5 13 3 -3 4 -12 1 -19z m543 10 c-1 -24 -27 -61 -34 -49 -10 15 -49
14 -65 -1 -11 -11 -12 -8 -7 15 4 17 2 27 -4 27 -6 0 -8 5 -5 10 9 15 115 13
115 -2z m822 -70 c-2 -5 -30 -8 -63 -8 -77 0 -78 24 -1 28 51 3 52 4 53 35 2
30 2 29 8 -8 4 -22 5 -43 3 -47z m-406 3 c-9 -10 -15 -29 -13 -42 2 -13 2 -18
0 -11 -3 7 -9 10 -14 7 -18 -12 -9 19 13 42 26 27 39 31 14 4z m-163 -11 c5
-19 0 -20 -62 -20 -60 0 -67 2 -67 20 0 18 7 20 62 20 53 0 62 -3 67 -20z
m-247 -15 c-2 -13 1 -22 6 -19 5 3 15 1 23 -6 11 -9 11 -16 -1 -45 -8 -19 -14
-50 -14 -70 0 -19 -5 -44 -12 -55 -10 -15 -10 -27 -1 -52 17 -47 26 -406 10
-422 -15 -17 -47 -8 -40 10 4 11 -5 14 -34 14 -32 0 -39 -3 -39 -20 0 -11 4
-20 8 -20 4 0 5 -13 2 -28 -6 -27 -5 -28 35 -24 40 4 52 14 31 27 -15 9 -12
25 5 25 8 0 15 -6 16 -12 0 -10 2 -10 6 0 10 25 19 11 22 -35 1 -25 -3 -59
-10 -75 -11 -27 -14 -28 -78 -28 -50 1 -74 6 -102 23 l-35 22 -3 155 c-1 85
-4 157 -6 158 -8 9 -76 -21 -84 -37 -5 -9 -13 -76 -17 -149 -4 -73 -10 -135
-14 -137 -9 -6 -20 82 -20 170 0 39 -6 81 -13 95 -7 14 -39 38 -77 56 -36 18
-77 46 -92 63 -46 51 -47 159 -3 264 8 20 19 37 23 37 4 0 15 14 24 30 l17 30
36 -17 c42 -20 45 -32 8 -26 l-28 3 25 -11 c38 -18 52 -19 46 -3 -3 8 1 14 9
14 8 0 15 -4 15 -10 0 -5 10 -10 23 -10 21 1 20 2 -5 16 -36 19 -35 30 5 54
38 23 94 26 123 5 19 -12 24 -12 40 0 11 8 30 15 44 15 14 1 19 4 13 7 -9 3
-10 10 -3 24 9 15 22 19 64 19 52 0 54 -1 52 -25z m1018 14 c13 11 16 11 16
-2 0 -8 6 -18 13 -20 6 -3 2 -6 -10 -6 -12 -1 -27 -10 -34 -22 -9 -17 -7 -25
12 -45 l22 -24 19 23 c13 14 18 31 15 47 -3 14 0 33 8 43 12 16 14 15 31 -10
19 -30 23 -40 31 -89 3 -21 14 -36 38 -48 30 -16 32 -20 24 -49 -16 -64 -21
-75 -38 -80 -25 -6 -31 -63 -31 -296 -1 -217 -6 -241 -56 -248 -57 -8 -117 0
-122 16 -2 6 0 11 6 11 5 0 15 18 22 40 13 39 14 40 55 37 l43 -3 6 59 c9 87
6 298 -4 267 -6 -18 -8 -7 -9 42 -1 61 1 67 21 70 11 2 22 11 24 21 2 13 -5
17 -26 17 -16 0 -35 3 -43 6 -9 3 -16 -3 -20 -16 -4 -15 0 -23 13 -28 16 -6
18 -22 16 -207 l-1 -200 -34 -5 c-35 -5 -54 -28 -79 -95 -9 -27 -10 -25 -5 20
2 28 1 45 -4 38 -4 -6 -7 82 -6 195 2 215 10 332 21 331 27 -4 104 2 98 8 -3
4 -31 6 -60 5 -51 -1 -54 0 -59 26 -3 15 -1 29 4 30 5 2 9 18 8 35 -1 30 -1
30 -8 7 -6 -21 -8 -22 -14 -8 -7 19 25 84 52 105 11 10 17 10 22 1 6 -9 11 -9
23 1z m-654 -18 c-5 -11 -10 -36 -10 -55 0 -29 -3 -34 -17 -29 -11 4 -12 8 -5
11 7 2 12 21 12 41 0 38 6 51 22 51 5 0 4 -9 -2 -19z m258 -54 c2 -35 -1 -57
-8 -57 -5 0 -10 18 -10 41 0 22 -5 49 -11 61 -9 17 -8 19 8 16 14 -3 19 -14
21 -61z m232 47 c0 -2 -7 -4 -15 -4 -8 0 -15 4 -15 10 0 5 7 7 15 4 8 -4 15
-8 15 -10z m90 13 c0 -2 -7 -18 -16 -36 -11 -22 -20 -29 -26 -23 -7 7 -4 19 8
36 16 22 34 34 34 23z m-384 -19 c4 -7 3 -8 -4 -4 -7 4 -12 2 -12 -5 0 -7 -3
-10 -6 -6 -6 5 3 27 11 27 2 0 7 -5 11 -12z m-310 -29 c1 -15 3 -33 7 -41 3
-8 -1 -15 -9 -15 -7 0 -11 4 -8 8 6 11 -37 22 -67 17 -17 -2 -25 -11 -29 -33
-4 -19 -11 -29 -21 -27 -11 3 -12 1 -1 -10 7 -7 18 -13 25 -13 7 -1 11 -6 10
-12 -3 -15 31 -26 55 -19 12 4 26 -2 37 -14 17 -18 17 -23 5 -31 -11 -6 -12
-11 -4 -16 6 -5 11 -24 10 -43 -1 -30 -5 -36 -31 -40 -30 -6 -30 -6 -5 -14 42
-15 50 -31 50 -98 0 -44 -3 -59 -10 -48 -8 13 -10 12 -10 -2 0 -10 5 -18 10
-18 6 0 10 -14 10 -31 0 -22 -5 -32 -20 -36 -11 -3 -20 -12 -20 -19 0 -8 -7
-14 -15 -14 -8 0 -15 -4 -15 -10 0 -5 8 -9 18 -8 38 3 51 -2 46 -17 -5 -12
-24 -15 -83 -15 -42 0 -92 3 -112 6 l-37 6 0 199 c0 188 1 199 18 199 10 0 22
5 25 10 3 6 -5 10 -19 10 -36 0 -41 17 -9 28 22 8 23 11 8 11 -18 1 -18 2 3
17 12 8 27 12 34 8 7 -4 8 -3 4 4 -4 7 -19 12 -33 12 -24 0 -25 2 -19 42 8 51
11 55 50 79 23 15 46 19 91 17 57 -3 60 -4 61 -29z m933 -8 c5 -9 11 -28 15
-43 5 -23 3 -28 -13 -28 -14 0 -20 10 -25 39 -3 22 -9 48 -13 58 -6 16 -5 16
11 4 9 -8 21 -21 25 -30z m-290 -81 c-1 -53 -6 -44 -12 24 -3 30 -1 43 4 35 5
-8 8 -34 8 -59z m-353 -8 c-5 -8 -66 -4 -66 4 0 2 16 4 36 4 19 0 33 -4 30 -8z
m104 -27 c0 -16 -6 -25 -15 -25 -15 0 -21 31 -8 43 13 14 23 6 23 -18z m-396
-5 c-6 -6 -15 -5 -24 1 -13 9 -12 10 3 5 9 -3 17 0 17 6 0 6 3 8 7 5 4 -4 2
-12 -3 -17z m662 -45 c-1 -33 -16 -33 -16 0 0 14 4 25 9 25 5 0 8 -11 7 -25z
m-276 -9 c0 -2 3 -11 6 -19 6 -17 -36 -28 -59 -15 -10 5 -18 4 -23 -3 -5 -8
-9 -8 -14 1 -9 14 -120 3 -120 -12 0 -5 10 -8 23 -7 12 1 29 -1 37 -4 8 -4 40
-5 70 -4 30 2 61 -1 68 -6 9 -7 11 -5 6 8 -5 13 -4 16 4 11 16 -10 16 -86 0
-86 -9 0 -8 -4 2 -11 12 -9 13 -12 1 -16 -11 -4 -11 -7 0 -14 11 -6 10 -11 -4
-27 -9 -10 -17 -23 -17 -28 0 -5 5 -2 10 6 8 12 10 11 10 -7 0 -12 -6 -23 -12
-26 -10 -3 -10 -7 1 -20 9 -12 12 -36 9 -82 -4 -62 -16 -94 -25 -67 -3 7 -22
12 -46 12 -31 0 -38 -3 -27 -10 10 -7 -14 -10 -78 -10 -55 0 -91 4 -87 9 3 5
-9 11 -27 13 l-33 3 -3 63 c-2 42 2 69 10 80 11 13 10 15 -4 9 -12 -4 -18 -1
-18 9 0 8 4 13 9 9 6 -3 6 7 0 27 -5 18 -9 70 -9 115 l0 83 83 2 c45 1 117 0
160 -1 49 -1 77 2 77 8 0 6 5 11 10 11 6 0 10 -2 10 -4z m660 -16 c0 -5 -20
-10 -45 -10 -25 0 -45 5 -45 10 0 6 20 10 45 10 25 0 45 -4 45 -10z m-207 -7
c-7 -2 -19 -2 -25 0 -7 3 -2 5 12 5 14 0 19 -2 13 -5z m411 -15 c-3 -4 -20 -8
-37 -7 -24 0 -27 2 -14 8 24 9 57 9 51 -1z m-214 -8 c0 -5 -16 -10 -35 -10
-19 0 -35 5 -35 10 0 6 16 10 35 10 19 0 35 -4 35 -10z m-100 -14 c0 -8 -4
-18 -10 -21 -5 -3 -10 3 -10 14 0 12 5 21 10 21 6 0 10 -6 10 -14z m-272 -43
c-1 -44 -2 -45 -5 -10 -4 35 -6 37 -41 37 -20 0 -47 3 -59 6 -13 4 -23 2 -23
-4 0 -22 33 -42 67 -42 32 0 34 2 22 18 -13 16 -12 16 4 3 17 -14 18 -16 2
-27 -10 -7 -12 -15 -6 -18 6 -4 8 -20 4 -36 -6 -32 12 -43 20 -12 2 9 4 -32 5
-93 2 -105 -7 -151 -22 -126 -5 7 -49 12 -114 13 l-107 2 95 3 c105 3 140 9
140 23 0 21 -74 29 -94 9 -15 -14 -59 -11 -100 6 l-36 15 0 74 0 75 28 -5 c19
-3 23 -2 12 5 -8 5 -17 8 -21 5 -4 -2 -10 0 -14 6 -3 5 2 10 12 11 10 0 13 3
6 6 -23 9 -14 41 13 47 15 4 24 10 20 13 -3 3 -1 12 5 20 9 10 6 12 -20 7 -20
-4 -31 -3 -31 5 0 7 38 11 120 11 l120 0 -2 -47z m313 -36 c-5 -26 -4 -50 1
-53 16 -10 -3 -24 -33 -24 -26 0 -29 3 -29 31 0 16 4 28 9 25 11 -7 9 13 -3
32 -5 8 1 22 16 37 33 34 49 15 39 -48z m-851 -318 c12 -7 12 -8 -4 -9 -15 0
-16 -3 -6 -15 10 -12 10 -15 -4 -15 -37 0 -1 -49 37 -50 9 0 17 -4 17 -10 0
-15 -62 -12 -82 4 -13 10 -18 27 -18 65 0 50 1 52 23 45 12 -3 29 -10 37 -15z
m-333 -36 c-3 -10 -5 -4 -5 12 0 17 2 24 5 18 2 -7 2 -21 0 -30z m121 -40 c48
-3 90 -10 93 -15 3 -5 4 -22 1 -38 -4 -30 -4 -30 -71 -29 -56 1 -137 15 -106
18 6 1 4 5 -4 10 -8 5 -16 15 -17 23 -1 7 -6 22 -10 32 -6 16 -4 18 10 13 10
-4 57 -10 104 -14z m726 2 c-4 -8 -8 -15 -10 -15 -2 0 -4 7 -4 15 0 8 4 15 10
15 5 0 7 -7 4 -15z m-268 -49 c-3 -36 -12 -56 -26 -56 -5 0 -5 14 1 32 6 23 5
34 -4 40 -9 6 -9 10 3 17 21 14 29 5 26 -33z m-133 17 c-2 -7 6 -15 17 -18 11
-4 20 -11 20 -16 0 -6 5 -7 10 -4 6 3 10 1 10 -4 0 -6 -4 -11 -10 -11 -5 0 -7
-6 -5 -12 4 -10 -9 -12 -50 -10 -35 3 -55 0 -55 -7 0 -6 -8 -11 -17 -10 -11 0
-13 3 -5 6 25 10 12 33 -19 33 -26 0 -29 2 -16 14 8 8 29 16 48 18 19 2 35 9
35 16 3 22 4 23 22 20 9 -2 16 -9 15 -15z m80 10 c-7 -2 -21 -2 -30 0 -10 3
-4 5 12 5 17 0 24 -2 18 -5z m985 -43 c-3 -31 -7 -36 -39 -44 -20 -5 -61 -6
-91 -2 -48 6 -57 11 -62 31 -12 46 -2 50 100 50 l95 0 -3 -35z m-1991 -36 c-3
-3 -12 -4 -19 -1 -8 3 -5 6 6 6 11 1 17 -2 13 -5z m161 -21 c-21 -2 -55 -2
-75 0 -21 2 -4 4 37 4 41 0 58 -2 38 -4z m1278 -652 c-4 -5 -2 -21 4 -35 9
-24 7 -26 -15 -26 -22 0 -24 2 -15 26 6 14 8 30 4 35 -3 5 2 9 11 9 9 0 14 -4
11 -9z m-1039 -17 c3 -8 -2 -23 -11 -32 -15 -15 -16 -14 -16 16 0 33 16 43 27
16z m59 -15 c1 -18 -4 -25 -18 -25 -12 0 -18 8 -18 21 0 43 34 46 36 4z m55
22 c-8 -5 -11 -16 -6 -30 5 -15 2 -21 -9 -21 -10 0 -16 9 -16 23 0 28 7 37 29
37 13 0 13 -2 2 -9z m64 -2 c4 -6 0 -9 -11 -7 -11 2 -20 -4 -22 -14 -2 -11 5
-18 20 -21 l23 -4 -23 -2 c-27 -1 -39 23 -22 44 15 18 26 19 35 4z m32 -36
c-3 -10 -5 -2 -5 17 0 19 2 27 5 18 2 -10 2 -26 0 -35z m48 34 c-12 -10 -14
-16 -7 -21 17 -10 15 -26 -3 -26 -9 0 -15 9 -15 23 0 28 7 37 29 37 12 0 11
-3 -4 -13z m100 3 c3 -5 -3 -10 -14 -10 -28 0 -27 -28 2 -33 l22 -4 -23 -2
c-27 -1 -39 23 -22 44 14 17 26 19 35 5z m75 -26 c0 -19 -5 -24 -25 -24 -20 0
-25 5 -25 24 0 13 6 26 13 29 22 7 37 -4 37 -29z m250 21 c17 -20 5 -45 -20
-45 -11 0 -23 7 -26 15 -6 15 11 45 26 45 4 0 13 -7 20 -15z m54 9 c24 -9 21
-54 -4 -54 -16 0 -20 7 -20 30 0 32 1 33 24 24z m57 -8 c-8 -10 -9 -16 -1 -21
15 -9 12 -25 -5 -25 -15 0 -21 40 -8 53 13 13 25 7 14 -7z m65 -17 c1 -18 -5
-25 -18 -26 -12 -1 -18 5 -18 21 0 43 34 48 36 5z m129 20 c4 -6 0 -9 -11 -7
-11 2 -20 -4 -22 -14 -2 -13 3 -18 19 -18 17 0 20 -3 11 -12 -8 -8 -15 -8 -27
2 -18 15 -19 32 -3 48 15 15 25 15 33 1z m132 -33 c-4 -9 -16 -16 -27 -16 -15
0 -20 7 -20 24 0 13 6 26 13 29 18 7 41 -19 34 -37z m-1174 4 c4 -16 0 -20
-20 -20 -13 0 -22 3 -20 8 2 4 7 15 10 25 8 22 22 15 30 -13z m542 20 c10 16
25 12 25 -8 0 -28 -10 -33 -28 -15 -14 14 -17 14 -23 -3 -6 -15 -8 -13 -8 10
-1 23 2 26 13 17 10 -8 16 -9 21 -1z m112 1 c10 9 13 5 12 -17 0 -16 -3 -23
-6 -16 -2 6 -11 12 -18 12 -7 0 -16 -6 -18 -12 -3 -7 -6 0 -6 17 -1 22 2 26
11 17 8 -8 15 -9 25 -1z m333 -33 c0 -4 -12 -8 -26 -8 -14 0 -23 3 -21 8 2 4
7 16 11 27 7 20 8 20 22 1 8 -11 14 -23 14 -28z m-853 -50 c0 -7 3 -22 6 -33
5 -16 2 -20 -17 -21 -17 -1 -23 2 -19 12 3 8 8 12 13 9 4 -2 5 7 2 20 -2 14 0
25 5 25 5 0 10 -6 10 -12z m-54 -11 c3 12 5 9 6 -9 1 -29 -12 -37 -25 -16 -5
8 -10 6 -15 -8 -6 -15 -8 -11 -8 15 -1 33 0 34 18 17 18 -17 19 -17 24 1z
m132 -17 c0 -29 -32 -41 -41 -16 -9 24 4 48 23 44 12 -2 18 -12 18 -28z m105
21 c0 -5 -7 -8 -16 -7 -27 2 -28 -23 -2 -33 l23 -10 -23 0 c-27 -1 -39 23 -22
44 14 16 40 20 40 6z m68 -19 c4 -28 -24 -40 -45 -19 -14 13 -14 19 -3 32 18
22 44 15 48 -13z m71 1 c0 -16 -3 -22 -6 -16 -3 9 -10 10 -24 3 -16 -9 -19 -7
-19 9 0 13 5 19 14 15 8 -3 17 -1 21 5 10 18 15 13 14 -16z m67 16 c3 -6 -3
-21 -15 -32 l-21 -21 0 32 c0 32 21 45 36 21z m42 -16 c8 -25 7 -28 -14 -28
-13 0 -24 1 -24 2 0 5 23 53 26 53 1 0 6 -12 12 -27z m67 -6 c1 -15 -3 -27 -7
-27 -4 0 -8 6 -8 13 0 8 -4 7 -10 -3 -7 -11 -10 -7 -10 18 0 27 4 33 18 30 11
-2 17 -13 17 -31z m46 1 c-3 -24 -6 -27 -9 -13 -2 11 -9 26 -14 33 -8 9 -5 12
9 12 16 0 19 -5 14 -32z m36 -15 c-3 -10 -5 -2 -5 17 0 19 2 27 5 18 2 -10 2
-26 0 -35z m47 -5 c7 -5 5 -8 -6 -8 -14 0 -18 8 -17 33 2 27 2 28 6 7 3 -14
10 -28 17 -32z m41 22 c7 0 16 8 18 18 3 9 5 1 6 -18 0 -25 -2 -31 -8 -21 -8
12 -12 12 -25 2 -14 -12 -16 -9 -15 20 1 19 3 26 6 17 2 -10 11 -18 18 -18z
m76 21 c-10 -7 -11 -13 -2 -30 10 -17 9 -21 -4 -21 -10 0 -15 10 -15 30 0 22
5 30 18 30 13 0 14 -2 3 -9z m99 0 c0 -5 -7 -8 -16 -7 -27 2 -28 -23 -2 -33
l23 -10 -23 0 c-27 -1 -39 23 -22 44 14 16 40 20 40 6z m75 -21 c0 -18 -6 -26
-23 -28 -13 -2 -25 3 -28 12 -10 26 4 48 28 44 17 -2 23 -10 23 -28z m72 -17
c-3 -2 -14 0 -25 6 -15 8 -22 8 -25 -2 -3 -6 -6 -2 -6 11 -1 19 3 22 18 17 11
-3 23 0 28 7 6 9 9 6 11 -10 2 -13 1 -26 -1 -29z m-1013 -54 c14 12 16 10 16
-15 0 -20 -3 -25 -9 -16 -4 8 -12 14 -16 14 -4 0 -12 -6 -16 -14 -6 -9 -9 -3
-9 17 0 22 3 26 9 16 8 -12 12 -12 25 -2z m66 0 c-11 -8 -12 -12 -2 -16 17 -7
15 -33 -3 -33 -10 0 -15 10 -15 30 0 22 5 30 18 30 15 0 15 -2 2 -11z m53 -18
c-4 -4 -11 -10 -15 -15 -5 -5 -8 3 -8 19 0 24 2 26 15 15 9 -7 12 -16 8 -19z
m23 -19 c-11 -10 -15 4 -8 28 l7 25 3 -23 c2 -13 1 -26 -2 -30z m72 20 c4 -28
-24 -40 -45 -19 -14 13 -14 19 -3 32 18 22 44 15 48 -13z m60 -2 c2 -20 -2
-26 -18 -26 -15 0 -20 7 -20 29 0 22 4 28 18 25 10 -2 18 -14 20 -28z m46 15
c-10 -8 -14 -15 -8 -15 7 0 14 -7 18 -15 4 -10 -1 -15 -14 -15 -16 0 -20 7
-20 30 0 24 4 30 22 30 21 0 21 0 2 -15z m66 4 c0 -5 -6 -7 -12 -3 -7 4 -5 -2
6 -14 17 -20 17 -22 2 -28 -10 -4 -23 -1 -29 5 -9 9 -7 11 8 5 19 -7 19 -7 2
13 -9 11 -14 23 -10 26 10 11 33 8 33 -4z m95 -19 c0 -16 -6 -26 -17 -28 -14
-3 -18 3 -18 28 0 25 4 31 18 28 11 -2 17 -12 17 -28z m45 19 c-11 -8 -12 -12
-2 -16 17 -7 15 -33 -3 -33 -10 0 -15 10 -15 30 0 22 5 30 18 30 15 0 15 -2 2
-11z m67 -36 c-3 -10 -5 -2 -5 17 0 19 2 27 5 18 2 -10 2 -26 0 -35z m63 17
c0 -20 -5 -30 -15 -30 -10 0 -15 10 -15 30 0 20 5 30 15 30 10 0 15 -10 15
-30z m150 20 c8 12 10 9 10 -14 0 -23 -3 -26 -14 -17 -11 9 -15 9 -19 -1 -3
-7 -6 1 -6 17 -1 23 2 27 9 15 9 -13 11 -13 20 0z m80 -5 c17 -20 5 -45 -20
-45 -23 0 -35 22 -26 45 7 19 30 19 46 0z m52 6 c-10 -6 -10 -10 2 -21 18 -14
12 -30 -12 -30 -13 0 -14 2 -4 9 10 6 10 10 -2 21 -18 14 -12 30 12 30 13 0
14 -2 4 -9z m-198 -17 c10 -25 7 -29 -18 -30 -22 -2 -24 0 -14 22 13 28 23 31
32 8z m618 -169 c3 -13 1 -22 -3 -19 -9 5 -13 44 -5 44 2 0 6 -11 8 -25z m77
-46 c-7 -4 -17 -5 -22 -2 -5 3 -3 9 4 14 7 4 17 5 22 2 5 -3 3 -9 -4 -14z"/>
<path d="M531 1909 c-18 -17 -22 -28 -17 -52 4 -17 11 -36 16 -41 15 -15 73
-9 87 10 30 41 3 104 -43 104 -11 0 -31 -10 -43 -21z"/>
<path d="M491 1864 c0 -11 3 -14 6 -6 3 7 2 16 -1 19 -3 4 -6 -2 -5 -13z"/>
<path d="M348 1833 c7 -3 16 -2 19 1 4 3 -2 6 -13 5 -11 0 -14 -3 -6 -6z"/>
<path d="M390 1836 c0 -2 7 -7 16 -10 8 -3 12 -2 9 4 -6 10 -25 14 -25 6z"/>
<path d="M443 1725 c-3 -9 -3 -18 -1 -21 3 -3 8 4 11 16 6 23 -1 27 -10 5z"/>
<path d="M214 1709 c-3 -6 -12 -8 -20 -5 -7 3 -16 2 -18 -3 -3 -4 12 -7 32 -7
21 1 39 -4 42 -11 3 -9 10 -5 19 10 7 12 10 19 6 15 -4 -4 -18 -3 -31 2 -15 6
-26 6 -30 -1z"/>
<path d="M297 1697 c2 -4 16 -5 31 -2 34 6 64 -3 56 -17 -4 -7 -2 -8 5 -4 6 4
9 11 6 16 -3 4 1 10 7 13 7 2 -15 3 -49 3 -33 -1 -59 -4 -56 -9z"/>
<path d="M82 1680 c0 -14 2 -19 5 -12 2 6 2 18 0 25 -3 6 -5 1 -5 -13z"/>
<path d="M235 1630 c-3 -5 -1 -10 4 -10 6 0 11 5 11 10 0 6 -2 10 -4 10 -3 0
-8 -4 -11 -10z"/>
<path d="M556 1633 c-13 -14 -5 -33 14 -33 11 0 20 6 20 14 0 15 -24 28 -34
19z"/>
<path d="M493 1566 c-3 -6 -3 -8 1 -4 5 4 19 3 32 -2 16 -6 24 -6 24 1 0 6 6
7 13 3 6 -4 9 -3 4 1 -11 13 -67 13 -74 1z"/>
<path d="M470 1526 c0 -9 5 -16 10 -16 6 0 10 4 10 9 0 6 -4 13 -10 16 -5 3
-10 -1 -10 -9z"/>
<path d="M530 1536 c0 -3 9 -10 20 -16 11 -6 20 -8 20 -6 0 3 -9 10 -20 16
-11 6 -20 8 -20 6z"/>
<path d="M591 1524 c0 -11 3 -14 6 -6 3 7 2 16 -1 19 -3 4 -6 -2 -5 -13z"/>
<path d="M563 1383 c9 -2 23 -2 30 0 6 3 -1 5 -18 5 -16 0 -22 -2 -12 -5z"/>
<path d="M431 1327 c1 -26 16 -76 19 -62 7 38 3 76 -7 80 -8 3 -13 -4 -12 -18z"/>
<path d="M558 1193 c7 -3 16 -2 19 1 4 3 -2 6 -13 5 -11 0 -14 -3 -6 -6z"/>
<path d="M1699 1900 c-8 -9 -13 -22 -11 -29 2 -7 -2 -11 -9 -10 -8 1 -25 -3
-39 -9 -21 -9 -15 -11 43 -11 63 -1 88 11 52 25 -8 4 -12 10 -9 15 3 5 1 15
-3 22 -6 11 -11 10 -24 -3z"/>
<path d="M1575 1710 c-3 -6 1 -7 9 -4 18 7 21 14 7 14 -6 0 -13 -4 -16 -10z"/>
<path d="M1712 1210 c0 -14 2 -19 5 -12 2 6 2 18 0 25 -3 6 -5 1 -5 -13z"/>
<path d="M840 1940 c20 -13 33 -13 25 0 -3 6 -14 10 -23 10 -15 0 -15 -2 -2
-10z"/>
<path d="M741 1914 c-12 -15 -21 -38 -20 -53 1 -23 2 -23 9 7 4 18 16 42 25
52 10 11 15 20 12 20 -3 0 -15 -12 -26 -26z"/>
<path d="M671 1603 c-2 -64 5 -68 13 -8 2 22 5 41 5 43 1 1 10 -2 20 -8 13 -6
22 -7 26 0 3 5 12 7 20 4 7 -3 22 -1 32 5 15 10 12 11 -19 9 -20 -1 -40 1 -44
5 -4 4 -17 7 -29 7 -20 0 -22 -6 -24 -57z"/>
<path d="M816 1595 c4 -8 11 -15 16 -15 6 0 5 6 -2 15 -7 8 -14 15 -16 15 -2
0 -1 -7 2 -15z"/>
<path d="M865 1551 c-6 -11 9 -23 19 -14 9 9 7 23 -3 23 -6 0 -12 -4 -16 -9z"/>
<path d="M811 1484 c0 -11 3 -14 6 -6 3 7 2 16 -1 19 -3 4 -6 -2 -5 -13z"/>
<path d="M685 1392 c-8 -8 -6 -22 3 -20 4 1 19 -2 35 -5 63 -16 77 -17 77 -7
0 5 -10 10 -22 10 -33 0 -68 11 -63 19 5 9 -22 11 -30 3z"/>
<path d="M955 1710 c-3 -6 1 -7 9 -4 18 7 21 14 7 14 -6 0 -13 -4 -16 -10z"/>
<path d="M990 1710 c0 -13 11 -13 30 0 12 8 11 10 -7 10 -13 0 -23 -4 -23 -10z"/>
<path d="M1084 1658 c-3 -4 -4 -8 -2 -9 27 -6 38 -5 38 5 0 14 -28 17 -36 4z"/>
<path d="M1075 1600 c-3 -6 -10 -8 -15 -5 -5 3 -8 -4 -7 -15 1 -21 1 -21 18 1
9 12 19 18 22 12 6 -10 48 -10 65 1 7 4 12 2 12 -4 0 -6 8 -10 18 -8 10 2 16
-2 14 -10 -1 -8 2 -11 8 -7 6 3 8 11 5 16 -4 5 -1 9 4 9 6 0 11 3 11 8 0 10
-62 9 -77 -1 -8 -5 -13 -4 -13 2 0 6 -7 11 -15 11 -8 0 -15 -5 -15 -11 0 -8
-4 -8 -14 0 -10 8 -16 9 -21 1z"/>
<path d="M1006 1588 c3 -4 11 -5 19 -1 21 7 19 12 -4 10 -11 0 -18 -5 -15 -9z"/>
<path d="M1075 1531 c-3 -5 -1 -12 5 -16 5 -3 10 1 10 9 0 18 -6 21 -15 7z"/>
<path d="M1100 1525 c0 -8 5 -15 11 -15 5 0 7 5 3 11 -4 7 1 7 16 -1 12 -7 20
-7 16 -2 -3 6 0 13 6 15 7 3 -2 6 -19 6 -23 1 -33 -4 -33 -14z"/>
<path d="M1170 1530 c0 -5 5 -10 10 -10 6 0 10 5 10 10 0 6 -4 10 -10 10 -5 0
-10 -4 -10 -10z"/>
<path d="M1040 1489 c0 -5 5 -7 10 -4 6 3 10 8 10 11 0 2 -4 4 -10 4 -5 0 -10
-5 -10 -11z"/>
<path d="M1070 1489 c0 -5 5 -7 10 -4 6 3 10 8 10 11 0 2 -4 4 -10 4 -5 0 -10
-5 -10 -11z"/>
<path d="M1117 1494 c-8 -8 1 -24 14 -24 5 0 9 7 9 15 0 15 -12 20 -23 9z"/>
<path d="M1170 1490 c0 -5 5 -10 10 -10 6 0 10 5 10 10 0 6 -4 10 -10 10 -5 0
-10 -4 -10 -10z"/>
<path d="M1180 1392 c-35 -2 -70 -8 -76 -13 -8 -7 -14 -6 -19 1 -3 5 -18 9
-33 9 -24 -2 -24 -2 -4 -6 12 -2 20 -8 17 -13 -9 -14 34 -22 73 -14 21 4 49 6
63 5 21 -2 61 24 48 32 -2 1 -33 1 -69 -1z"/>
<path d="M1028 1333 c6 -2 18 -2 25 0 6 3 1 5 -13 5 -14 0 -19 -2 -12 -5z"/>
<path d="M1372 1628 c-17 -17 -15 -24 8 -25 25 -2 34 11 17 26 -10 8 -17 7
-25 -1z"/>
<path d="M1423 1567 c-3 -7 -3 -9 1 -5 5 4 19 3 33 -3 13 -5 22 -5 19 0 -9 15
-46 20 -53 8z"/>
<path d="M1307 1516 c-3 -8 -2 -18 3 -21 13 -8 20 9 11 24 -6 10 -10 9 -14 -3z"/>
<path d="M1502 1460 c-1 -29 3 -48 9 -45 12 8 12 95 0 95 -5 0 -9 -23 -9 -50z"/>
<path d="M1360 1420 c0 -5 11 -10 25 -10 14 0 25 5 25 10 0 6 -11 10 -25 10
-14 0 -25 -4 -25 -10z"/>
<path d="M780 1175 c-8 -9 -8 -15 -2 -15 12 0 26 19 19 26 -2 2 -10 -2 -17
-11z"/>
<path d="M815 1170 c-3 -5 1 -10 10 -10 9 0 13 5 10 10 -3 6 -8 10 -10 10 -2
0 -7 -4 -10 -10z"/>
<path d="M571 424 c0 -11 3 -14 6 -6 3 7 2 16 -1 19 -3 4 -6 -2 -5 -13z"/>
<path d="M986 433 c-12 -12 -6 -33 9 -33 8 0 15 6 15 14 0 17 -14 28 -24 19z"/>
<path d="M1232 418 c5 -15 28 -18 29 -3 0 6 -7 12 -17 13 -10 3 -15 -1 -12
-10z"/>
<path d="M1310 421 c0 -12 5 -21 10 -21 6 0 10 6 10 14 0 8 -4 18 -10 21 -5 3
-10 -3 -10 -14z"/>
<path d="M1676 433 c-12 -12 -6 -33 9 -33 8 0 15 6 15 14 0 17 -14 28 -24 19z"/>
<path d="M717 333 c-13 -12 -7 -33 8 -33 8 0 15 9 15 20 0 20 -11 26 -23 13z"/>
<path d="M877 326 c-7 -16 1 -26 20 -26 7 0 13 9 13 20 0 23 -25 27 -33 6z"/>
<path d="M1140 330 c0 -5 5 -10 11 -10 5 0 7 5 4 10 -3 6 -8 10 -11 10 -2 0
-4 -4 -4 -10z"/>
<path d="M1544 329 c-10 -17 13 -36 27 -22 12 12 4 33 -11 33 -5 0 -12 -5 -16
-11z"/>
<path d="M815 240 c-8 -14 3 -30 21 -30 8 0 14 9 14 20 0 21 -24 28 -35 10z"/>
<path d="M895 240 c-3 -5 -1 -10 4 -10 6 0 11 5 11 10 0 6 -2 10 -4 10 -3 0
-8 -4 -11 -10z"/>
<path d="M1100 230 c0 -19 3 -21 12 -12 9 9 9 15 0 24 -9 9 -12 7 -12 -12z"/>
<path d="M1497 244 c-14 -14 -7 -35 11 -32 9 2 17 10 17 17 0 16 -18 25 -28
15z"/>
<path d="M15 2300 c-8 -13 3 -30 18 -30 8 0 7 3 -2 9 -7 5 -10 14 -7 20 4 6 5
11 2 11 -3 0 -8 -4 -11 -10z"/>
<path d="M97 2286 c-3 -8 -2 -18 3 -21 13 -8 20 9 11 24 -6 10 -10 9 -14 -3z"/>
<path d="M87 2236 c-3 -8 0 -16 6 -19 7 -3 13 3 13 14 0 22 -12 25 -19 5z"/>
<path d="M2172 1545 c0 -16 2 -22 5 -12 2 9 2 23 0 30 -3 6 -5 -1 -5 -18z"/>
<path d="M1910 1520 c0 -13 5 -18 14 -14 8 3 12 12 9 20 -8 21 -23 17 -23 -6z"/>
<path d="M1854 1425 c-8 -19 3 -35 26 -35 19 0 30 17 23 38 -6 17 -42 15 -49
-3z"/>
<path d="M2060 1410 c0 -13 7 -20 18 -20 24 0 32 8 25 26 -8 22 -43 17 -43 -6z"/>
<path d="M1795 1381 c-3 -5 -2 -12 3 -15 5 -3 9 1 9 9 0 17 -3 19 -12 6z"/>
<path d="M1856 1361 c-4 -5 3 -7 14 -4 23 6 26 13 6 13 -8 0 -17 -4 -20 -9z"/>
<path d="M2046 1358 c3 -5 10 -6 15 -3 13 9 11 12 -6 12 -8 0 -12 -4 -9 -9z"/>
</g>
</svg>
