<?xml version="1.0" standalone="no"?>
<!DOCTYPE svg PUBLIC "-//W3C//DTD SVG 20010904//EN"
 "http://www.w3.org/TR/2001/REC-SVG-20010904/DTD/svg10.dtd">
<svg version="1.0" xmlns="http://www.w3.org/2000/svg"
 width="970.000000pt" height="251.000000pt" viewBox="0 0 970.000000 251.000000"
 preserveAspectRatio="xMidYMid meet">

<g transform="translate(0.000000,251.000000) scale(0.100000,-0.100000)"
fill="#000000" stroke="none">
<path d="M0 1260 l0 -1250 4850 0 4850 0 0 1250 0 1250 -4850 0 -4850 0 0
-1250z m4280 1236 c0 -2 -8 -10 -17 -17 -16 -13 -17 -12 -4 4 13 16 21 21 21
13z m36 -8 c4 -7 4 -10 -1 -6 -11 11 -36 -12 -28 -25 4 -6 1 -7 -6 -3 -9 6 -8
13 5 27 20 22 21 23 30 7z m22 -1 c-1 -3 8 -18 22 -34 l25 -28 -26 22 c-18 16
-28 20 -36 12 -8 -8 -13 -7 -18 3 -5 7 -5 10 0 6 11 -11 36 12 28 26 -3 6 -3
8 1 4 4 -3 6 -9 4 -11z m595 -1 c-3 -6 0 -5 7 1 11 10 17 10 29 0 12 -9 13 -9
7 1 -5 9 4 12 34 12 23 0 39 -4 35 -9 -3 -5 -1 -13 5 -16 6 -4 9 -1 8 7 -3 11
397 13 2315 16 l2317 2 0 -1240 -1 -1240 -4840 0 -4841 0 4 143 c2 78 7 142
10 142 3 0 13 6 22 14 9 8 16 10 15 5 -3 -20 2 -35 10 -29 6 3 8 14 6 25 -2
11 0 22 5 25 5 3 7 -3 5 -14 -2 -11 3 -26 12 -33 14 -11 15 -10 9 12 l-7 25
14 -23 c7 -12 16 -20 20 -16 4 4 1 14 -5 23 -7 9 -8 13 -4 9 5 -4 15 -3 22 3
10 8 12 6 9 -10 -2 -11 0 -23 6 -26 5 -4 9 -24 9 -46 l0 -39 4680 0 4680 0 0
442 0 443 -87 87 -88 88 88 88 87 87 0 438 0 437 -2297 1 c-1264 1 -2301 1
-2305 0 -12 -2 -10 17 2 24 6 3 10 0 11 -7 0 -10 2 -10 6 1 5 11 7 11 15 0 8
-11 9 -10 5 3 -3 9 0 22 8 28 11 9 16 7 24 -8 6 -11 8 -22 6 -24 -3 -3 7 -4
22 -3 17 0 28 7 28 16 0 7 6 15 13 15 6 1 13 2 15 4 1 1 10 3 20 5 18 4 41
-27 29 -40 -4 -5 0 -4 8 1 21 12 52 12 70 0 13 -9 13 -8 3 5 -7 9 -9 20 -5 25
4 4 -2 2 -12 -6 -18 -14 -19 -13 -13 5 l7 20 -15 -20 c-17 -22 -24 -21 -42 5
-13 18 -28 20 -50 7 -6 -4 -14 -3 -18 3 -4 6 -11 8 -16 4 -5 -3 -7 -9 -4 -14
3 -5 1 -11 -5 -15 -5 -3 -10 0 -10 7 0 9 -3 9 -10 -2 -9 -14 -10 -12 -10 15 0
3 2 4 4 3 2 -2 13 5 24 15 14 13 22 15 27 7 5 -8 11 -8 19 -1 7 6 15 9 18 6 2
-3 5 2 5 10 0 9 -5 11 -11 7 -20 -15 -41 -7 -40 14 1 11 -5 21 -12 21 -8 0
-10 -5 -6 -11 15 -20 7 -41 -13 -41 -11 1 -19 6 -17 13 1 7 -4 11 -10 10 -8
-2 -12 6 -12 20 1 12 -1 20 -4 17 -3 -2 -11 0 -18 6 -8 7 -14 7 -19 -1 -4 -6
-1 -9 6 -8 7 2 13 -5 14 -14 0 -10 -4 -18 -10 -17 -5 1 -9 5 -7 10 1 5 -3 8
-9 7 -6 -2 -13 5 -14 15 -2 11 -7 22 -10 25 -4 4 -5 -1 -3 -10 1 -9 -1 -17 -7
-17 -5 -1 -10 5 -10 12 0 13 -24 17 -40 7 -9 -6 -31 -6 -37 0 -2 1 -19 3 -40
4 -34 2 -36 1 -27 -20 5 -14 4 -26 -1 -29 -6 -4 -10 -3 -11 2 -2 24 -8 46 -15
51 -4 4 -4 -1 -1 -10 3 -10 2 -20 -3 -23 -6 -4 -10 4 -11 17 -1 23 -1 23 -9
-2 l-8 -25 -2 25 -2 25 -8 -25 c-7 -22 -15 -11 -11 14 1 5 -5 4 -13 -4 -13
-10 -16 -10 -16 1 0 11 -2 11 -10 -1 -9 -13 -10 -13 -10 0 0 12 -2 12 -9 1 -6
-9 -11 -10 -15 -2 -10 16 -26 3 -19 -15 5 -13 7 -13 14 -2 7 10 9 10 9 -2 0
-13 1 -13 10 0 9 13 10 13 10 0 0 -13 1 -13 11 0 8 12 9 9 4 -10 -5 -19 -4
-22 4 -10 10 13 11 13 11 0 0 -13 1 -13 10 0 9 13 10 13 10 0 0 -13 1 -13 10
0 9 13 10 13 10 0 0 -13 2 -13 11 0 9 12 10 12 5 -3 -3 -11 -9 -31 -12 -45 -4
-21 -3 -24 5 -12 6 8 11 24 12 35 1 17 2 16 9 -5 l8 -25 2 25 2 25 8 -25 8
-25 2 25 c1 23 2 23 9 5 5 -11 4 -21 0 -23 -5 -2 -9 -8 -9 -14 0 -6 7 -4 17 3
14 12 16 12 8 0 -5 -10 -4 -12 4 -7 7 5 10 2 9 -5 -2 -8 8 -13 27 -14 17 0 35
-3 40 -6 6 -3 22 -5 37 -4 20 1 25 -2 20 -14 -4 -11 -7 -12 -10 -2 -4 11 -6
11 -13 0 -7 -12 -9 -11 -9 1 0 13 -1 13 -10 0 -9 -13 -10 -13 -10 0 0 13 -1
13 -10 0 -9 -13 -10 -13 -10 0 0 13 -1 13 -10 0 -9 -13 -10 -13 -10 0 0 13 -1
13 -10 0 -9 -13 -10 -13 -10 0 0 13 -1 13 -10 0 -8 -12 -10 -12 -10 -1 0 11
-3 11 -17 0 -10 -8 -14 -9 -10 -2 4 6 3 14 -3 18 -5 3 -10 1 -10 -6 0 -6 -9
-1 -20 12 -10 13 -19 19 -20 13 0 -5 5 -15 10 -20 7 -7 6 -11 -4 -11 -8 0 -15
3 -14 6 2 20 -3 31 -12 26 -6 -4 -8 -10 -5 -15 12 -19 -15 -19 -28 0 -7 11
-17 17 -20 13 -4 -3 -1 -13 5 -22 10 -13 10 -14 -2 -4 -11 10 -17 10 -29 0
-14 -11 -14 -10 -2 6 17 21 22 55 9 63 -7 4 -12 -16 -10 -38 1 -3 -6 -12 -15
-20 -14 -11 -16 -11 -8 2 15 23 16 50 4 68 -9 14 -10 14 -6 -5 3 -13 1 -25 -3
-28 -4 -3 -7 9 -6 25 1 17 -1 30 -6 30 -9 0 -10 -5 -11 -47 0 -18 4 -27 13
-25 10 2 11 0 2 -11 -7 -8 -8 -18 -4 -22 4 -5 1 -5 -6 -1 -7 4 -10 11 -7 16 3
5 1 11 -4 15 -6 3 -8 12 -5 20 3 8 -1 23 -9 34 -14 21 -14 21 -24 -2 -6 -12
-9 -30 -7 -40 1 -9 -2 -15 -6 -12 -5 3 -7 17 -4 31 3 16 1 23 -6 19 -6 -4 -10
-3 -9 2 3 17 -14 53 -22 47 -5 -3 -5 -14 1 -25 6 -10 8 -19 4 -19 -3 0 0 -8 7
-17 13 -16 12 -17 -3 -4 -10 7 -16 17 -13 21 3 4 -4 19 -15 31 -11 13 -19 19
-20 13 0 -6 3 -14 7 -18 11 -10 12 -37 2 -30 -5 3 -7 9 -4 14 3 5 1 12 -5 15
-6 4 -8 16 -4 28 6 19 5 20 -9 8 -9 -7 -14 -18 -10 -25 3 -6 1 -6 -7 1 -39 36
-25 38 271 39 198 0 286 -3 282 -10z m-115 -16 c5 -5 28 -6 37 -1 22 12 33 8
30 -9 -3 -14 2 -18 15 -15 10 2 25 -4 34 -14 14 -15 14 -18 1 -18 -8 0 -12 3
-10 7 2 4 -8 6 -23 5 -16 -1 -29 5 -33 13 -3 9 -13 16 -22 18 -10 1 -14 -3
-10 -12 3 -9 0 -14 -7 -12 -6 2 -18 -8 -27 -22 -13 -21 -13 -22 0 -7 14 17 15
16 22 -10 5 -21 8 -24 16 -12 7 12 9 12 9 -1 0 -13 2 -13 11 0 9 13 10 12 5
-3 -3 -11 -2 -16 4 -12 6 4 10 12 9 18 -3 24 1 38 9 33 5 -3 7 -18 4 -35 -4
-27 -14 -33 -37 -20 -5 3 -22 5 -38 4 -15 -1 -25 0 -22 3 3 3 -2 13 -10 22 -8
9 -17 32 -20 51 -5 34 -5 36 22 33 15 -1 29 -3 31 -4z m47 -68 c-13 -14 -34
-8 -38 9 -3 10 -1 16 4 13 5 -3 12 2 16 12 5 15 8 14 15 -6 5 -13 6 -25 3 -28z
m141 -9 c-2 -3 -7 -3 -9 -1 -3 2 -17 -8 -31 -21 -18 -17 -26 -20 -26 -10 0 12
-2 11 -10 -1 -8 -11 -10 -8 -7 15 2 17 9 30 15 30 6 0 17 6 23 12 10 10 16 9
31 -4 10 -9 16 -18 14 -20z m-92 -10 c-8 -42 -15 -42 -12 -1 1 20 5 35 9 32 4
-2 5 -17 3 -31z m-389 18 c3 -5 2 -12 -3 -15 -5 -3 -9 1 -9 9 0 17 3 19 12 6z
m583 -190 c9 -6 12 -21 9 -45 -3 -20 -1 -33 4 -30 5 3 9 -20 9 -51 0 -42 -3
-54 -12 -49 -10 6 -10 4 0 -7 16 -17 17 -130 0 -126 -7 1 -12 -7 -13 -18 0
-18 -9 -20 -92 -23 -91 -3 -93 -3 -102 21 -5 14 -15 27 -21 29 -7 2 -8 48 -4
150 6 123 10 148 23 151 30 8 186 7 199 -2z m889 -268 c2 -83 0 -93 -15 -93
-15 0 -17 -7 -14 -35 5 -39 7 -38 -87 -35 -36 1 -51 -2 -46 -9 8 -13 -5 -14
-24 -2 -9 6 -12 21 -9 45 3 24 0 36 -9 36 -9 0 -12 23 -11 88 1 48 3 91 5 95
3 4 50 6 106 5 l102 -3 2 -92z m-1744 70 c4 -3 2 -13 -5 -20 -9 -11 -9 -16 2
-23 10 -6 3 -10 -21 -13 l-34 -4 38 -1 c37 -2 52 -24 25 -35 -10 -4 -9 -8 2
-16 11 -8 -10 -11 -80 -10 -54 0 -87 4 -76 8 19 7 19 8 -2 13 -18 5 -21 10
-13 30 7 19 17 24 67 29 l59 6 -65 1 c-46 2 -61 5 -50 12 10 6 11 10 3 10 -7
0 -13 5 -13 10 0 11 152 14 163 3z m330 -10 c-7 -2 -19 -2 -25 0 -7 3 -2 5 12
5 14 0 19 -2 13 -5z m954 -95 c-3 -8 -6 -5 -6 6 -1 11 2 17 5 13 3 -3 4 -12 1
-19z m-887 -38 c0 -5 -5 -10 -11 -10 -5 0 -7 5 -4 10 3 6 8 10 11 10 2 0 4 -4
4 -10z m747 4 c-3 -3 -12 -4 -19 -1 -8 3 -5 6 6 6 11 1 17 -2 13 -5z m-1130
-20 c2 -7 -3 -19 -12 -27 -9 -9 -15 -20 -15 -24 0 -4 -11 -9 -26 -11 -14 -2
-24 1 -20 6 7 12 -48 6 -74 -8 -30 -16 -34 -12 -15 16 9 15 12 23 6 20 -6 -4
-11 0 -11 11 0 15 -2 16 -10 3 -8 -12 -10 -11 -10 8 0 22 2 23 92 20 57 -2 93
-7 95 -14z m1272 -31 c-1 -42 -2 -44 -9 -21 -7 25 -3 68 6 68 2 0 4 -21 3 -47z
m-920 20 c0 -11 -3 -13 -6 -5 -2 6 -10 9 -15 6 -7 -4 -8 -2 -4 4 11 18 26 14
25 -5z m-89 -13 c0 -5 -2 -10 -4 -10 -3 0 -8 5 -11 10 -3 6 -1 10 4 10 6 0 11
-4 11 -10z m-26 -22 c-3 -4 -9 -8 -15 -8 -5 0 -9 4 -9 8 0 5 7 9 15 9 8 0 12
-4 9 -9z m911 1 c-8 -12 -42 -16 -42 -5 0 7 11 12 23 12 12 0 21 -3 19 -7z
m-417 -28 c-48 -7 -103 -39 -103 -59 0 -6 -6 -17 -12 -23 -7 -7 -13 -17 -13
-23 0 -5 17 6 37 25 21 18 30 25 20 13 -9 -11 -17 -26 -17 -32 0 -7 -7 -12
-15 -12 -9 0 -15 -10 -16 -22 -1 -22 -1 -22 -9 2 -8 25 -8 25 -10 -5 -2 -25
-3 -26 -7 -7 -3 12 5 43 17 68 26 53 76 84 135 82 l40 -1 -47 -6z m172 -1 c8
-5 11 -10 5 -10 -5 0 -17 5 -25 10 -8 5 -10 10 -5 10 6 0 17 -5 25 -10z
m-3322 -16 c31 -21 62 -86 61 -126 -1 -32 -1 -31 -13 12 -18 65 -33 88 -69
110 -18 11 -25 20 -17 20 9 0 26 -7 38 -16z m3644 6 c51 0 59 -2 56 -17 -3
-15 -17 -18 -87 -21 -94 -4 -113 1 -105 22 6 15 39 26 62 20 8 -2 41 -4 74 -4z
m-3807 -10 c-3 -5 -12 -10 -18 -10 -7 0 -6 4 3 10 19 12 23 12 15 0z m2784 -7
c1 15 12 17 91 17 65 0 90 -3 90 -12 0 -7 3 -22 6 -33 5 -19 0 -20 -100 -19
-58 0 -109 4 -113 9 -5 4 -2 5 4 1 9 -5 11 2 8 26 -4 26 -3 29 4 13 8 -17 10
-18 10 -2z m-197 -33 c2 -16 0 -32 -6 -34 -6 -2 -1 -5 10 -5 29 -1 78 -27 65
-35 -22 -14 -40 -71 -42 -132 -1 -35 -8 -76 -15 -90 -18 -33 -18 -113 -1 -119
14 -6 18 -228 3 -242 -5 -4 -6 -3 -3 4 8 12 -10 12 -30 0 -8 -5 -13 -3 -13 3
0 6 -5 8 -12 3 -19 -11 -37 -12 -44 -2 -3 6 -11 6 -17 1 -14 -10 -27 -10 -44
1 -6 4 -14 3 -17 -2 -5 -8 -15 -8 -46 -1 -3 0 4 7 14 15 16 12 17 15 4 15 -18
0 -29 -22 -19 -38 4 -6 17 -10 29 -7 13 2 22 -1 22 -8 0 -8 3 -8 9 2 11 17 25
-3 16 -21 -4 -7 3 -2 14 11 13 14 21 18 21 10 0 -11 2 -11 10 1 6 10 10 11 10
3 0 -9 7 -10 25 -3 14 5 25 7 25 4 0 -4 6 -2 13 4 8 7 18 6 31 -4 17 -12 18
-18 9 -49 -6 -19 -7 -33 -2 -30 13 9 9 -306 -4 -319 -7 -6 -30 -9 -51 -6 -37
5 -39 6 -23 22 9 9 17 19 17 22 0 3 -25 6 -56 6 -50 0 -55 -2 -49 -19 3 -12 0
-21 -10 -25 -9 -3 -13 -2 -10 4 3 6 2 10 -3 10 -6 0 -12 -7 -16 -15 -4 -11 1
-15 18 -15 15 0 26 -7 29 -20 6 -22 -8 -28 -17 -7 -3 6 -3 -1 1 -17 3 -17 1
-31 -6 -36 -7 -4 21 -7 62 -6 41 1 70 4 64 8 -9 6 -9 8 1 8 6 0 12 5 12 11 0
5 -4 8 -9 5 -5 -3 -12 2 -15 11 -4 10 -4 14 0 11 3 -4 15 3 25 15 l18 22 2
-25 c1 -17 3 -20 6 -8 2 10 10 18 17 18 9 0 13 -23 14 -80 1 -53 -2 -80 -9
-80 -6 0 -9 -9 -6 -19 3 -15 -2 -21 -22 -27 l-26 -7 25 -8 c15 -5 -23 -7 -95
-5 -126 4 -155 10 -155 31 0 12 -54 32 -72 27 -5 -1 -8 5 -8 13 0 8 6 14 12
12 8 -1 12 8 10 26 -3 22 1 27 20 28 21 1 21 1 -5 11 -26 9 -28 14 -27 57 1
25 1 119 1 209 -1 128 -4 161 -13 155 -7 -4 -35 -15 -63 -23 -32 -10 -54 -24
-61 -39 -7 -12 -15 -80 -19 -149 -4 -70 -9 -136 -11 -147 -3 -11 -7 -51 -9
-89 -3 -38 -8 -72 -11 -75 -14 -14 -24 32 -24 114 -1 50 -5 140 -9 201 -8 108
-9 113 -40 143 -17 17 -39 31 -47 31 -8 0 -37 9 -64 21 -37 16 -47 25 -42 37
5 15 4 15 -11 3 -14 -11 -18 -11 -23 3 -3 9 -10 13 -15 11 -13 -9 -68 73 -80
119 -26 98 20 362 69 398 10 7 28 30 41 51 12 20 26 37 29 37 4 0 34 -14 66
-30 32 -17 69 -30 82 -30 14 0 24 -6 24 -14 0 -21 15 -27 41 -17 23 8 22 9
-17 29 -23 12 -44 19 -47 16 -6 -6 -67 23 -67 32 0 2 14 -3 32 -12 31 -16 32
-16 51 10 53 73 190 93 242 36 16 -18 20 -18 34 -6 16 14 79 41 116 49 17 4
17 5 -3 6 -15 1 -22 6 -18 14 3 6 9 20 12 30 5 14 19 17 89 17 l83 0 4 -30z
m1599 10 c6 0 7 5 4 10 -3 6 -1 10 4 10 6 0 11 -10 11 -22 0 -13 12 -31 27
-42 18 -13 24 -15 21 -5 -3 8 1 27 9 42 12 24 17 26 29 16 20 -17 61 -74 46
-65 -7 4 -12 2 -12 -4 0 -6 6 -13 14 -16 19 -7 36 -57 36 -105 0 -33 3 -38 30
-44 17 -4 30 -10 30 -15 0 -5 9 -12 20 -15 16 -5 20 -15 20 -53 0 -36 -5 -51
-20 -62 -11 -8 -20 -24 -20 -36 0 -17 -8 -24 -29 -29 -28 -6 -29 -8 -35 -83
-9 -118 -28 -641 -23 -650 3 -4 1 -27 -2 -52 l-7 -45 -17 37 c-18 43 -32 52
-17 12 14 -35 12 -42 -5 -20 -15 19 -15 19 -15 -3 0 -14 4 -20 12 -15 8 5 9 1
5 -12 -7 -18 -6 -18 9 1 l16 20 -4 -20 c-3 -16 -14 -21 -63 -27 -33 -4 -73 -5
-90 -2 -16 3 -43 7 -58 8 -37 4 -42 11 -29 38 8 18 11 19 11 6 1 -28 21 -21
21 8 0 14 -4 23 -10 19 -14 -9 6 41 31 76 23 32 40 36 59 14 9 -11 17 -12 33
-3 18 9 24 6 45 -18 24 -28 24 -28 9 -2 -12 18 -13 28 -5 30 8 3 9 11 3 24 -4
10 -7 24 -5 29 5 19 8 79 13 284 3 113 3 186 0 161 -4 -43 -18 -74 -21 -48 -7
53 -8 130 -3 168 5 35 11 45 26 48 60 9 67 12 55 27 -7 8 -10 21 -7 29 5 12
-9 15 -69 18 l-74 3 0 -27 c0 -16 -6 -28 -12 -28 -10 0 -10 -2 -1 -8 6 -4 13
-25 16 -47 l4 -40 1 42 c2 35 5 40 21 36 19 -5 20 -17 21 -324 l0 -319 -48 0
c-34 0 -54 -5 -64 -17 -22 -25 -58 -99 -58 -118 0 -9 -4 -13 -10 -10 -5 3 -10
27 -10 52 0 51 -8 52 -20 1 -6 -24 -8 -12 -8 47 1 67 2 74 9 40 4 -23 6 20 3
104 -3 80 -2 232 2 338 6 172 9 192 22 180 11 -8 14 -8 9 0 -9 15 2 22 55 33
40 9 38 9 -19 6 -58 -4 -78 4 -53 19 6 3 10 24 10 45 0 21 5 42 10 45 6 3 10
1 10 -5 0 -6 5 -8 13 -3 21 13 107 11 107 -3 0 -7 -15 -15 -32 -17 l-33 -4 32
-1 c23 -2 36 4 47 20 9 12 16 26 16 30 0 8 -162 4 -177 -5 -7 -4 -14 -3 -17 2
-4 5 -2 13 4 16 7 4 8 11 2 18 -6 7 -13 36 -17 66 -4 31 -20 76 -37 105 -16
28 -24 45 -17 39 10 -10 19 -4 47 27 41 49 58 52 31 6 -26 -45 -40 -94 -28
-101 5 -4 9 2 9 12 1 27 46 108 59 106 6 -2 10 3 9 9 -5 21 40 22 45 1 4 -15
6 -14 13 7 4 13 9 19 12 12 2 -6 8 -12 13 -12z m-1011 -7 c0 -5 -7 -17 -15
-27 -8 -11 -15 -37 -15 -59 0 -55 -22 -43 -25 14 -2 28 3 50 13 62 15 17 42
24 42 10z m240 -8 c7 -8 17 -12 22 -9 5 3 12 -3 15 -15 3 -11 9 -19 13 -16 10
6 -10 -87 -21 -99 -4 -5 -4 7 2 28 7 25 7 46 0 64 l-9 27 -2 -25 -1 -25 -10
25 c-6 13 -17 33 -26 42 -9 10 -11 18 -6 18 6 0 16 -7 23 -15z m190 -20 c0 -5
-5 -3 -10 5 -5 8 -10 20 -10 25 0 6 5 3 10 -5 5 -8 10 -19 10 -25z m-56 3 c8
-13 17 -58 21 -101 6 -73 6 -79 -12 -75 -15 3 -19 17 -25 83 -4 44 -12 88 -18
98 -16 27 16 22 34 -5z m306 18 c0 -3 -4 -8 -10 -11 -5 -3 -10 -1 -10 4 0 6 5
11 10 11 6 0 10 -2 10 -4z m-180 -16 c0 -5 -9 -10 -21 -10 -11 0 -17 5 -14 10
3 6 13 10 21 10 8 0 14 -4 14 -10z m240 -5 c24 -14 24 -14 -15 -9 l-40 5 34
-16 c19 -8 32 -18 28 -21 -11 -11 -66 26 -61 41 7 18 22 18 54 0z m-3785 -15
c3 -5 1 -10 -4 -10 -6 0 -11 5 -11 10 0 6 2 10 4 10 3 0 8 -4 11 -10z m4291
-40 c19 -23 34 -48 34 -55 0 -7 3 -27 6 -44 6 -28 4 -31 -17 -31 -37 0 -46 11
-51 66 -3 28 -12 64 -20 81 -23 47 5 37 48 -17z m-1446 25 c0 -8 5 -15 10 -15
6 0 10 -7 10 -15 0 -13 -6 -12 -40 5 -49 25 -95 25 -140 1 -42 -22 -80 -75
-80 -110 1 -22 3 -20 15 14 8 22 15 41 15 42 0 2 19 16 42 33 50 36 92 39 138
8 47 -32 57 -51 42 -80 l-12 -23 3 26 c2 14 -1 26 -7 26 -6 1 -32 5 -58 11
-35 7 -54 6 -72 -3 -14 -7 -28 -10 -32 -7 -4 4 -4 1 0 -5 9 -16 -22 -83 -36
-80 -6 1 -13 -4 -16 -12 -3 -9 0 -11 7 -7 7 4 18 2 26 -4 10 -8 15 -9 15 -2 0
6 11 1 24 -11 26 -23 27 -39 1 -17 -10 8 -15 9 -15 2 0 -28 82 -43 120 -22 11
6 26 23 35 38 13 24 14 25 12 4 -2 -12 -9 -28 -15 -34 -9 -9 -6 -18 14 -39 16
-16 24 -34 21 -46 -4 -15 -5 -14 -6 5 0 12 -5 22 -10 22 -5 0 -8 -8 -7 -17 1
-16 -11 -18 -104 -21 -58 -2 -137 0 -177 3 -62 6 -71 9 -70 25 1 15 12 20 57
25 77 9 91 12 50 14 -19 1 -45 4 -58 7 l-23 7 23 13 c13 7 29 16 35 20 7 3 29
-8 48 -25 50 -44 56 -38 10 9 -33 34 -45 40 -81 40 l-41 0 9 56 c19 123 61
152 221 153 80 1 97 -2 97 -14z m865 5 c3 -6 -4 -10 -17 -10 -18 0 -20 2 -8
10 19 12 18 12 25 0z m-145 -24 c0 -3 -4 -8 -10 -11 -5 -3 -10 -1 -10 4 0 6 5
11 10 11 6 0 10 -2 10 -4z m-3566 -32 c5 -14 4 -15 -9 -4 -17 14 -19 20 -6 20
5 0 12 -7 15 -16z m3503 -21 c-3 -10 -5 -4 -5 12 0 17 2 24 5 18 2 -7 2 -21 0
-30z m-206 4 c-10 -9 -11 -8 -5 6 3 10 9 15 12 12 3 -3 0 -11 -7 -18z m-3491
-2 c0 -25 31 -65 62 -81 36 -19 31 -30 -6 -13 -27 13 -50 42 -66 84 -6 16 -6
25 0 25 6 0 10 -7 10 -15z m4038 -7 c17 -34 20 -148 5 -148 -13 0 -14 6 -15
83 0 23 -7 52 -14 65 -12 18 -12 22 -1 22 8 0 19 -10 25 -22z m-3922 -15 c-7
-7 -26 7 -26 19 0 6 6 6 15 -2 9 -7 13 -15 11 -17z m3096 -1 c-7 -2 -10 -8 -7
-12 3 -5 1 -11 -5 -15 -6 -4 -9 4 -8 18 2 17 7 23 17 19 10 -4 11 -7 3 -10z
m118 -51 c18 -7 20 -10 7 -10 -9 -1 -32 14 -50 32 -18 17 -21 22 -7 10 14 -12
36 -26 50 -32z m623 -12 c-5 -5 -6 11 -3 34 4 41 5 41 8 8 2 -18 0 -37 -5 -42z
m-929 31 c-6 -6 -10 -3 -10 10 0 13 4 16 10 10 7 -7 7 -13 0 -20z m-899 0 c3
-5 1 -10 -4 -10 -6 0 -11 5 -11 10 0 6 2 10 4 10 3 0 8 -4 11 -10z m942 -32
c-3 -7 -5 -2 -5 12 0 14 2 19 5 13 2 -7 2 -19 0 -25z m146 -25 c-7 -2 -19 -2
-25 0 -7 3 -2 5 12 5 14 0 19 -2 13 -5z m290 -4 c-20 -6 -57 -6 -95 0 l-63 9
95 0 c75 0 88 -2 63 -9z m155 -42 c3 -42 1 -47 -18 -47 -19 0 -21 5 -19 50 2
40 6 50 18 48 11 -2 17 -17 19 -51z m-643 13 c-10 -11 -24 -20 -32 -20 -8 0
-2 10 14 24 33 28 45 25 18 -4z m-3393 -15 c101 0 86 -20 -27 -36 -44 -6 -88
-19 -99 -28 -10 -9 -51 -61 -91 -116 -81 -111 -125 -155 -155 -155 -16 0 -7
18 54 103 79 109 123 156 170 179 28 14 27 15 -50 26 -63 8 -85 8 -111 -3 -18
-8 -33 -15 -33 -17 0 -2 -7 -21 -15 -43 -13 -37 -14 -38 -15 -11 0 36 54 90
107 104 23 7 68 8 113 4 41 -4 110 -7 152 -7z m7684 -11 c-3 -8 1 -28 9 -44 8
-16 15 -30 15 -32 0 -2 -16 -3 -35 -4 -40 -1 -40 -2 -20 36 8 16 12 36 9 44
-4 11 0 16 11 16 11 0 15 -5 11 -16z m-3845 -27 c-10 -9 -11 -8 -5 6 3 10 9
15 12 12 3 -3 0 -11 -7 -18z m2309 -47 c0 -3 -16 -5 -35 -6 -19 0 -35 1 -35 2
0 2 8 19 17 39 l17 36 18 -33 c9 -18 17 -35 18 -38z m80 55 c10 -12 10 -18 0
-30 -7 -8 -18 -15 -25 -15 -8 0 -16 -6 -18 -12 -3 -7 -6 6 -6 30 -1 35 2 42
18 42 10 0 24 -7 31 -15z m78 2 c7 -8 7 -18 2 -27 -5 -9 -5 -19 2 -27 13 -17
-4 -17 -21 0 -11 10 -14 9 -18 -1 -3 -6 -9 -10 -14 -6 -10 6 -12 57 -2 67 11
11 40 8 51 -6z m65 6 c-26 -5 -31 -23 -8 -23 8 0 15 -4 15 -10 0 -5 -7 -10
-15 -10 -23 0 -18 -18 8 -23 19 -4 18 -4 -5 -6 -26 -1 -28 2 -28 39 0 37 2 40
28 39 23 -2 24 -2 5 -6z m103 -4 c4 -7 0 -9 -13 -5 -12 4 -25 1 -33 -9 -17
-21 5 -48 33 -39 13 4 17 2 13 -5 -16 -26 -66 -4 -66 29 0 33 50 55 66 29z
m41 -51 c-2 -13 -4 -3 -4 22 0 25 2 35 4 23 2 -13 2 -33 0 -45z m66 55 c-26
-5 -31 -23 -8 -23 8 0 15 -4 15 -10 0 -5 -7 -10 -15 -10 -23 0 -18 -18 8 -23
19 -4 18 -4 -5 -6 -26 -1 -28 2 -28 39 0 37 2 40 28 39 23 -2 24 -2 5 -6z
m153 -4 c4 -7 0 -9 -13 -5 -12 4 -25 1 -33 -9 -17 -21 5 -48 33 -39 13 4 17 2
13 -5 -16 -26 -66 -4 -66 29 0 33 50 55 66 29z m94 -4 c26 -32 -13 -81 -47
-59 -35 22 -23 74 17 74 10 0 23 -7 30 -15z m75 -15 c4 0 14 8 21 18 12 15 13
11 12 -28 0 -25 -3 -35 -5 -22 -4 18 -8 21 -18 12 -10 -8 -15 -8 -21 2 -6 9
-10 6 -15 -12 -5 -19 -7 -15 -8 20 0 39 1 43 13 28 7 -10 17 -18 21 -18z m140
0 c4 0 14 8 21 18 12 15 13 11 12 -28 0 -25 -3 -35 -5 -22 -4 18 -8 21 -18 12
-10 -8 -15 -8 -21 2 -6 9 -10 6 -15 -12 -5 -19 -7 -15 -8 20 0 39 1 43 13 28
7 -10 17 -18 21 -18z m143 18 c30 -30 0 -75 -43 -64 -19 5 -25 13 -25 35 0 38
41 56 68 29z m96 -10 c15 -25 -4 -53 -35 -53 -25 0 -37 30 -25 61 8 20 46 14
60 -8z m64 15 c-10 -2 -18 -7 -18 -10 0 -3 8 -12 18 -19 16 -13 16 -13 0 -14
-10 0 -18 -4 -18 -9 0 -5 8 -12 18 -15 10 -3 6 -4 -8 -3 -43 3 -41 78 2 76 17
-1 18 -2 6 -6z m90 -6 c7 -8 7 -18 2 -27 -5 -9 -5 -19 2 -27 13 -16 -4 -17
-20 -1 -9 9 -12 9 -12 0 0 -7 -4 -12 -10 -12 -5 0 -10 18 -10 40 0 32 4 40 19
40 10 0 23 -6 29 -13z m92 -57 c0 -3 -16 -5 -35 -6 -19 0 -35 1 -35 2 0 2 8
19 17 39 l17 36 18 -33 c9 -18 17 -35 18 -38z m86 59 c4 -7 0 -9 -13 -5 -12 4
-25 1 -33 -9 -17 -21 5 -48 34 -40 21 6 21 6 2 -9 -18 -14 -21 -14 -38 1 -21
19 -23 44 -6 61 15 15 45 16 54 1z m184 -4 c26 -32 -13 -81 -47 -59 -35 22
-23 74 17 74 10 0 23 -7 30 -15z m-3497 -2 c-18 -2 -48 -2 -65 0 -18 2 -4 4
32 4 36 0 50 -2 33 -4z m147 -33 c0 -25 -5 -40 -12 -40 -8 0 -13 15 -13 40 0
25 5 40 13 40 7 0 12 -15 12 -40z m-430 -34 c0 -8 7 -16 15 -20 8 -3 15 -13
14 -23 0 -11 -3 -13 -6 -5 -2 6 -22 12 -44 12 -28 0 -37 -4 -33 -14 3 -7 -1
-16 -9 -19 -9 -3 -14 1 -13 11 1 18 -11 21 -104 22 -93 1 -110 -2 -103 -14 3
-6 0 -6 -8 2 -16 15 -29 16 -29 1 0 -5 6 -7 13 -3 9 5 9 4 0 -6 -14 -16 -41
-22 -62 -15 -11 4 -11 8 -1 20 16 19 -1 20 -33 4 -16 -9 -22 -9 -25 0 -2 6 -8
11 -14 11 -6 0 -3 -9 6 -19 17 -18 17 -19 -1 -24 -10 -3 21 -5 68 -6 66 -1 90
3 99 14 12 14 15 14 30 0 13 -12 42 -16 119 -17 66 0 101 -5 102 -12 0 -6 1
-32 2 -58 1 -57 23 -74 25 -20 0 29 -1 33 -8 17 l-9 -20 0 20 c0 11 4 29 8 40
5 11 4 25 -1 33 -8 9 -6 12 7 12 16 0 17 -10 11 -112 -3 -62 -6 -165 -6 -228
0 -84 -4 -122 -15 -140 l-14 -25 -2 40 c-1 28 -3 33 -6 15 -3 -14 -9 -27 -14
-31 -5 -3 -48 -6 -96 -8 -60 -2 -93 -7 -104 -17 -14 -12 -18 -13 -28 0 -13 15
-61 28 -61 16 0 -4 -12 -6 -27 -4 -28 4 -28 4 -3 -5 17 -6 20 -9 8 -10 -10 -1
-18 -6 -18 -12 0 -6 -9 -9 -20 -6 -11 3 -23 1 -26 -4 -3 -5 9 -9 25 -9 18 0
31 5 31 12 0 9 3 9 12 0 8 -8 53 -12 136 -12 119 0 123 1 117 20 -4 11 -2 20
4 20 6 0 10 -3 10 -7 -6 -34 19 -45 41 -18 16 20 34 19 26 -1 -4 -10 -2 -13 6
-8 8 5 9 2 5 -10 -4 -10 -7 -24 -7 -32 0 -8 -9 -14 -21 -14 -14 0 -19 5 -16
14 7 18 -11 22 -71 17 -29 -2 -40 -6 -31 -12 7 -4 11 -10 8 -13 -4 -5 -116 -7
-179 -5 -8 1 -30 -2 -47 -6 -21 -5 -33 -4 -33 3 0 15 33 24 64 18 14 -3 28 -1
31 4 3 6 -24 9 -62 9 -38 0 -85 2 -105 6 l-36 7 -5 121 c-6 137 -11 307 -12
412 l0 70 140 5 c77 3 129 7 115 10 -14 3 11 6 55 7 52 0 71 -2 55 -7 -17 -6
0 -8 53 -9 62 -1 77 2 77 14 0 8 7 15 15 15 8 0 15 -6 15 -14z m1013 5 c9 -1
17 -8 17 -16 0 -12 -15 -15 -71 -15 -44 0 -68 4 -64 10 3 6 1 10 -5 10 -6 0
-9 4 -6 8 3 5 29 7 58 6 29 -2 61 -3 71 -3z m-1365 -8 c-10 -2 -26 -2 -35 0
-10 3 -2 5 17 5 19 0 27 -2 18 -5z m1069 -7 c0 -15 -42 -31 -57 -21 -5 3 -7
12 -3 20 7 20 60 20 60 1z m633 -6 c10 -18 8 -20 -19 -20 -17 0 -31 6 -35 15
-4 11 -13 14 -33 9 -16 -4 -29 -11 -31 -16 -6 -15 -20 -8 -25 12 -5 19 0 20
64 20 58 0 70 -3 79 -20z m-1944 -11 c3 -5 10 -7 15 -4 5 4 9 1 9 -4 0 -6 -7
-11 -15 -11 -8 0 -15 -7 -15 -16 0 -10 6 -14 14 -11 14 6 23 -49 26 -165 l1
-58 -30 0 c-21 0 -34 -7 -42 -22 -11 -21 -11 -22 4 -9 14 11 17 11 17 0 0 -8
6 -5 15 7 13 16 14 16 9 1 -4 -12 -2 -16 8 -12 12 5 15 -5 15 -42 1 -35 -1
-41 -6 -23 l-7 25 -12 -22 c-14 -25 -16 -44 -4 -42 25 4 32 -4 32 -36 0 -24
-5 -35 -15 -35 -8 0 -15 -5 -15 -11 0 -6 7 -8 16 -5 8 3 12 2 9 -4 -3 -6 -18
-10 -32 -10 -18 0 -24 -4 -19 -15 6 -17 -19 -45 -40 -45 -8 0 -14 -5 -14 -10
0 -6 10 -10 23 -9 12 1 39 1 60 1 34 -2 37 -4 36 -29 -2 -24 -2 -25 -6 -5 -5
24 -11 26 -33 12 -13 -8 -12 -10 5 -10 15 0 17 -2 6 -12 -16 -17 -213 -15
-294 2 l-58 12 1 146 c0 81 -3 197 -6 257 -4 70 -2 124 5 150 7 26 7 43 1 49
-6 6 -10 14 -10 18 0 12 338 9 346 -3z m-3470 -11 c4 -7 4 -10 -1 -6 -4 4 -16
3 -25 -2 -20 -11 -110 -126 -110 -141 0 -15 22 -10 44 9 l21 17 -19 -23 c-30
-35 -60 -26 -64 19 -4 45 33 93 93 120 48 22 52 23 61 7z m264 -3 c16 -20 5
-48 -42 -102 -43 -49 -39 -66 9 -38 l28 17 -24 -21 c-33 -29 -65 -24 -69 11
-2 20 7 38 38 72 23 25 40 50 38 56 -4 13 -83 -52 -128 -106 -22 -27 -44 -43
-58 -43 -21 -1 -22 1 -10 22 35 62 104 137 126 137 l23 0 -22 -32 -23 -33 42
38 c47 41 54 44 72 22z m174 6 c3 -5 -2 -8 -11 -7 -17 1 -122 -120 -123 -141
0 -16 12 -17 28 -1 6 6 15 9 18 5 4 -3 -5 -12 -19 -18 -21 -9 -30 -9 -43 1
-35 30 10 110 86 150 39 21 56 24 64 11z m434 -3 c14 -14 0 -45 -32 -70 -36
-30 -42 -20 -8 13 32 31 43 63 20 53 -24 -9 -110 -133 -104 -149 7 -19 -8 -20
-23 -1 -28 34 17 108 89 146 42 23 43 23 58 8z m173 -27 c-13 -24 -51 -29 -51
-7 0 20 42 48 53 37 5 -5 4 -18 -2 -30z m115 27 c5 -7 2 -9 -8 -5 -16 6 -53
-28 -101 -94 -43 -58 -29 -81 22 -36 l26 22 -24 -27 c-29 -33 -56 -36 -71 -9
-21 40 25 110 95 142 48 22 52 23 61 7z m5220 -4 c-3 -8 1 -28 9 -44 8 -16 15
-30 15 -32 0 -2 -16 -3 -35 -4 -40 -1 -40 -2 -20 36 8 16 12 36 9 44 -4 11 0
16 11 16 11 0 15 -5 11 -16z m-6349 -51 c-74 -97 -80 -121 -24 -91 20 10 21
10 8 -6 -8 -10 -25 -16 -40 -14 -20 2 -27 9 -29 31 -5 44 66 137 105 137 23 0
22 -3 -20 -57z m477 45 c-4 -7 -42 -58 -84 -113 -42 -55 -80 -106 -84 -113
-15 -24 33 7 88 57 46 42 49 43 25 11 -32 -43 -101 -87 -153 -96 l-38 -7 52
67 c28 36 48 66 44 66 -4 0 6 15 22 33 17 17 43 49 58 70 19 26 35 37 52 37
17 0 23 -4 18 -12z m116 6 c0 -3 -22 -34 -50 -69 -48 -60 -60 -85 -42 -85 12
0 81 67 123 118 25 32 41 43 57 40 19 -3 16 -9 -33 -73 -30 -38 -55 -73 -55
-77 0 -16 25 -7 52 19 15 15 28 22 28 16 0 -18 -50 -53 -76 -53 -19 0 -24 5
-24 26 l0 26 -31 -27 c-39 -32 -73 -30 -77 5 -4 36 74 139 106 140 12 0 22 -3
22 -6z m348 -23 c-12 -16 -39 -52 -58 -80 -35 -51 -64 -71 -81 -54 -6 6 -2 17
11 28 11 10 20 22 20 27 0 5 19 31 43 59 28 33 50 49 65 49 l24 0 -24 -29z
m208 -43 c-31 -39 -56 -75 -56 -80 0 -14 27 -9 40 7 7 9 15 13 18 10 9 -9 -32
-34 -55 -35 -19 0 -23 5 -23 31 0 50 68 139 107 139 23 0 21 -5 -31 -72z m158
60 c-5 -7 -30 -39 -56 -71 -61 -74 -64 -97 -8 -61 l25 16 -24 -21 c-27 -24
-44 -26 -60 -7 -25 30 60 156 106 156 17 0 22 -4 17 -12z m106 6 c0 -3 -39
-56 -86 -116 -47 -60 -88 -116 -91 -124 -4 -12 -63 -35 -71 -28 -2 1 21 33 52
70 30 37 54 70 53 73 -4 13 108 131 125 131 10 0 18 -3 18 -6z m3623 -3 c9 -1
17 -8 17 -16 0 -11 -13 -15 -54 -15 -55 0 -81 15 -55 31 8 4 28 6 44 4 17 -2
38 -4 48 -4z m-1390 -16 c-3 -9 -8 -14 -10 -11 -3 3 -2 9 2 15 9 16 15 13 8
-4z m208 -8 c-10 -9 -11 -8 -5 6 3 10 9 15 12 12 3 -3 0 -11 -7 -18z m53 8
c-4 -8 -10 -15 -15 -15 -4 0 -6 7 -3 15 4 8 10 15 15 15 4 0 6 -7 3 -15z m34
-10 c-3 -3 -9 2 -12 12 -6 14 -5 15 5 6 7 -7 10 -15 7 -18z m82 15 c0 -5 -7
-7 -15 -4 -8 4 -15 8 -15 10 0 2 7 4 15 4 8 0 15 -4 15 -10z m426 -5 c-3 -9 0
-15 10 -15 13 0 15 -11 10 -72 -3 -40 -8 -113 -12 -163 -5 -72 -8 -85 -16 -65
-9 23 -10 24 -20 6 -6 -10 -8 -34 -5 -52 4 -20 2 -32 -4 -29 -5 4 -9 -4 -9
-17 0 -19 2 -20 11 -8 9 13 10 13 5 0 -3 -8 -9 -23 -12 -32 -7 -20 -20 -23
-29 -9 -6 11 -65 -3 -74 -17 -3 -5 -22 -14 -41 -21 -37 -11 -97 -1 -110 19 -5
8 -33 17 -64 19 -5 1 -6 36 -2 84 4 45 7 94 7 110 -1 20 3 27 17 27 10 0 23 5
30 12 9 9 12 9 12 -2 0 -13 2 -13 10 0 9 13 10 13 11 0 1 -8 1 -19 -1 -25 -1
-5 8 -1 19 9 12 11 21 16 21 11 0 -4 6 -3 13 3 17 15 29 15 37 2 5 -8 9 -7 13
5 4 9 3 13 -3 10 -6 -3 -10 -2 -10 4 0 7 -8 7 -22 2 -13 -4 -47 -7 -75 -6 -29
1 -53 -1 -53 -5 0 -4 -7 -7 -14 -7 -22 0 0 37 22 38 13 0 11 3 -5 9 -17 7 -23
18 -23 40 0 19 5 30 14 30 7 0 25 6 39 13 21 11 24 16 14 26 -9 10 -9 12 2 9
7 -2 16 3 18 10 4 9 -7 12 -41 9 -33 -2 -46 0 -46 10 0 10 37 13 171 13 148 0
170 2 165 15 -3 9 0 15 10 15 10 0 14 -6 10 -15z m932 -6 c2 -11 -10 -18 -45
-26 l-48 -10 57 -2 c56 -1 59 -2 85 -43 23 -35 28 -53 29 -112 3 -124 13 -116
-146 -116 -158 0 -150 -6 -150 106 0 96 33 152 105 176 19 6 18 6 -2 7 -22 1
-31 20 -16 35 4 4 34 6 67 4 46 -2 62 -7 64 -19z m882 -6 c0 9 5 19 10 22 6 4
10 -10 10 -36 l0 -42 -25 23 c-20 19 -25 20 -25 7 0 -9 -4 -19 -10 -22 -6 -4
-10 10 -10 36 l0 42 25 -23 c20 -19 25 -20 25 -7z m198 15 c30 -30 0 -75 -43
-64 -19 5 -25 13 -25 35 0 38 41 56 68 29z m148 1 c4 -7 0 -9 -13 -5 -28 9
-50 -18 -33 -39 8 -10 21 -13 33 -9 13 4 17 2 13 -5 -16 -26 -66 -4 -66 29 0
33 50 55 66 29z m92 -1 c30 -30 0 -75 -43 -64 -19 5 -25 13 -25 35 0 38 41 56
68 29z m67 -18 c4 0 14 8 21 18 12 15 13 11 12 -28 0 -25 -3 -35 -5 -22 -4 18
-8 21 -18 12 -10 -8 -15 -8 -21 2 -6 9 -10 6 -15 -12 -5 -19 -7 -15 -8 20 0
39 1 43 13 28 7 -10 17 -18 21 -18z m123 3 c2 -13 -1 -23 -7 -23 -5 0 -17 -7
-25 -16 -15 -14 -16 -12 -16 26 0 37 2 41 23 38 14 -2 23 -11 25 -25z m82 -43
c0 -3 -16 -5 -35 -6 -19 0 -35 1 -35 2 0 2 8 19 17 39 l17 36 18 -33 c9 -18
17 -35 18 -38z m71 60 c7 -58 -1 -88 -15 -57 -5 9 -7 9 -12 -1 -3 -6 -10 -10
-15 -6 -10 6 -12 57 -2 67 10 11 43 8 44 -3z m72 3 c-7 -2 -13 -20 -13 -39 0
-21 -4 -33 -10 -29 -5 3 -10 19 -10 35 0 15 -6 31 -12 33 -7 3 3 5 22 5 19 0
29 -2 23 -5z m44 -55 c-2 -13 -4 -3 -4 22 0 25 2 35 4 23 2 -13 2 -33 0 -45z
m61 -5 c14 -12 13 -13 -6 -13 -19 0 -22 5 -21 43 2 33 3 36 6 12 2 -16 12 -36
21 -42z m64 37 c6 0 17 8 24 18 12 15 13 12 13 -28 0 -40 -1 -43 -13 -27 -7 9
-18 17 -24 17 -6 0 -13 -8 -15 -17 -3 -10 -5 2 -5 27 0 25 2 37 5 28 2 -10 9
-18 15 -18z m106 23 c-10 -2 -18 -7 -18 -10 0 -3 8 -12 18 -19 16 -13 16 -13
0 -14 -10 0 -18 -4 -18 -9 0 -5 8 -12 18 -15 10 -3 6 -4 -8 -3 -43 3 -41 78 2
76 17 -1 18 -2 6 -6z m148 -4 c4 -7 0 -9 -13 -5 -28 9 -50 -18 -33 -39 8 -10
21 -13 33 -9 13 4 17 2 13 -5 -16 -26 -66 -4 -66 29 0 33 50 55 66 29z m88 5
c21 -8 21 -60 0 -68 -30 -12 -54 3 -54 34 0 34 21 47 54 34z m81 -24 c4 0 14
8 21 18 12 15 13 11 12 -28 0 -25 -3 -35 -5 -22 -4 18 -8 21 -18 12 -10 -8
-15 -8 -21 2 -6 9 -10 6 -15 -12 -5 -19 -7 -15 -8 20 0 39 1 43 13 28 7 -10
17 -18 21 -18z m-2812 1 c3 -11 -2 -26 -12 -35 -16 -14 -17 -13 -19 19 -3 39
22 51 31 16z m62 -29 c-3 -3 2 -13 10 -22 14 -15 14 -18 2 -23 -10 -4 -15 -21
-15 -49 0 -24 -1 -62 -1 -85 l-1 -43 -48 0 -48 0 -2 39 c-2 25 2 43 11 48 7 4
16 16 20 26 4 10 3 16 -2 12 -5 -3 -12 4 -16 15 -9 27 52 98 78 92 10 -3 15
-7 12 -10z m100 -2 c3 -5 1 -10 -4 -10 -6 0 -11 5 -11 10 0 6 2 10 4 10 3 0 8
-4 11 -10z m50 -50 c20 -23 33 -156 13 -144 -7 5 -8 2 -2 -7 4 -8 7 -24 6 -36
-2 -12 5 -31 15 -41 16 -17 34 -20 163 -20 80 -1 150 -2 156 -2 7 0 10 -70 10
-212 l-1 -213 -153 -3 c-175 -3 -182 -6 -182 -74 0 -63 -8 -69 -78 -67 -50 2
-60 5 -51 16 9 9 8 13 0 13 -8 0 -8 6 -2 18 5 9 12 25 15 35 4 13 12 16 25 12
11 -3 22 -1 26 5 3 6 -3 10 -14 10 -12 0 -21 5 -21 10 0 6 -13 10 -30 10 -16
0 -30 -4 -30 -10 0 -13 -96 -13 -121 0 -18 10 -19 24 -19 244 l0 234 28 7 c25
7 25 8 7 15 -14 6 -2 9 38 9 31 1 56 -2 55 -6 -4 -20 17 -43 39 -43 17 0 22 4
16 13 -18 29 -11 37 35 37 34 0 43 3 32 10 -8 5 -29 7 -46 4 -25 -5 -35 -1
-46 15 -8 12 -18 18 -21 14 -4 -3 -7 -2 -7 3 0 5 14 16 32 23 18 8 28 16 22
18 -11 4 -10 54 1 72 3 6 13 11 20 11 8 0 19 9 25 20 13 25 22 25 45 0z
m-3738 -42 c-14 -25 -42 -53 -65 -66 -58 -32 -62 -27 -6 11 29 19 57 47 68 70
10 21 20 36 23 33 3 -3 -6 -24 -20 -48z m-557 38 c0 -6 -66 -46 -75 -46 -4 0
7 11 26 24 33 23 49 31 49 22z m5495 -46 c4 0 14 8 21 18 12 15 13 11 12 -28
0 -25 -3 -35 -5 -22 -4 18 -8 21 -18 12 -10 -8 -15 -8 -21 2 -6 9 -10 6 -15
-12 -5 -19 -7 -15 -8 20 0 39 1 43 13 28 7 -10 17 -18 21 -18z m103 23 c-10
-2 -18 -7 -18 -10 0 -3 8 -12 18 -19 16 -13 16 -13 0 -14 -10 0 -18 -4 -18 -9
0 -5 8 -12 18 -15 10 -3 6 -4 -8 -3 -43 3 -41 78 2 76 17 -1 18 -2 6 -6z m85
-33 c3 0 8 10 10 23 2 12 5 2 6 -22 l1 -44 -22 29 -23 28 -6 -29 c-6 -26 -7
-23 -7 15 l-1 45 18 -22 c11 -13 22 -23 24 -23z m111 34 c10 -4 16 -18 16 -35
0 -22 -6 -30 -25 -35 -43 -11 -73 34 -43 64 13 13 28 15 52 6z m94 -7 c7 -8 7
-18 2 -27 -5 -9 -5 -19 2 -27 13 -17 -4 -17 -21 0 -11 10 -14 9 -18 -1 -3 -6
-9 -10 -14 -6 -10 6 -12 57 -2 67 11 11 40 8 51 -6z m65 6 c-26 -5 -31 -23 -8
-23 8 0 15 -4 15 -10 0 -5 -7 -10 -15 -10 -23 0 -18 -18 8 -23 19 -4 18 -4 -5
-6 -26 -1 -28 2 -28 39 0 37 2 40 28 39 23 -2 24 -2 5 -6z m93 -5 c5 -8 2 -9
-9 -5 -22 8 -22 -9 0 -21 10 -6 14 -16 10 -26 -7 -19 -33 -21 -43 -4 -5 8 -2
9 9 5 21 -8 22 1 1 24 -17 19 -12 39 11 39 8 0 17 -5 21 -12z m129 -28 c0 -31
-3 -35 -25 -35 -19 0 -26 6 -28 23 -5 36 5 54 30 50 19 -2 23 -9 23 -38z m73
33 c-10 -2 -18 -7 -18 -10 0 -3 8 -12 18 -19 16 -13 16 -13 0 -14 -10 0 -18
-4 -18 -9 0 -5 8 -12 18 -15 10 -3 6 -4 -8 -3 -43 3 -41 78 2 76 17 -1 18 -2
6 -6z m102 -33 c0 -22 -4 -40 -10 -40 -5 0 -10 18 -10 40 0 22 5 40 10 40 6 0
10 -18 10 -40z m72 10 c5 -36 -5 -55 -26 -47 -16 6 -23 57 -9 70 15 16 31 5
35 -23z m138 -40 c0 -3 -16 -5 -35 -6 -19 0 -35 1 -35 2 0 2 8 19 17 39 l17
36 18 -33 c9 -18 17 -35 18 -38z m73 30 c3 0 8 10 10 23 2 12 5 2 6 -22 l1
-44 -22 29 -23 28 -6 -29 c-6 -26 -7 -23 -7 15 l-1 45 18 -22 c11 -13 22 -23
24 -23z m111 34 c10 -4 16 -18 16 -35 0 -22 -6 -30 -25 -35 -43 -11 -73 34
-43 64 13 13 28 15 52 6z m92 -6 c5 -8 2 -9 -9 -5 -22 8 -22 -9 0 -21 10 -6
14 -16 10 -26 -7 -19 -33 -21 -43 -4 -5 8 -2 9 9 5 21 -8 22 1 1 24 -17 19
-12 39 11 39 8 0 17 -5 21 -12z m-7936 -48 c13 -8 13 -10 -2 -10 -9 0 -20 5
-23 10 -8 13 5 13 25 0z m1470 -140 c63 -3 -236 -6 -665 -6 -429 0 -733 3
-675 6 147 9 1201 9 1340 0z m3259 -231 c-6 -4 -8 -12 -5 -18 5 -7 -1 -11 -16
-10 -13 0 -17 3 -10 6 37 15 -5 20 -152 19 -152 -1 -190 4 -173 20 4 4 54 6
113 5 83 -1 104 1 98 11 -6 9 -3 9 9 -1 17 -13 110 -12 124 2 3 4 9 42 12 84
l6 78 3 -94 c2 -64 -1 -97 -9 -102z m-1732 159 c-3 -8 -6 -5 -6 6 -1 11 2 17
5 13 3 -3 4 -12 1 -19z m1717 -73 c-3 -11 -17 -26 -32 -33 l-27 -12 28 25 c15
14 27 31 27 37 0 6 2 9 5 7 2 -3 2 -14 -1 -24z m-4620 -27 l14 -33 7 33 c4 17
12 32 17 32 5 0 6 -10 2 -22 -25 -80 -30 -82 -58 -15 -18 45 -2 50 18 5z m106
-13 c0 -25 -4 -45 -10 -45 -5 0 -10 20 -10 45 0 25 5 45 10 45 6 0 10 -20 10
-45z m65 15 c9 -39 21 -38 29 2 3 17 9 29 12 25 7 -7 -14 -75 -26 -82 -9 -5
-40 55 -40 76 0 22 19 6 25 -21z m129 -11 c19 -46 14 -63 -9 -33 -15 19 -15
19 -30 0 -8 -11 -15 -16 -15 -12 0 19 24 86 30 86 5 0 15 -19 24 -41z m186 21
c16 -29 3 -59 -27 -66 -41 -11 -71 44 -41 74 19 19 56 14 68 -8z m141 -7 l11
-28 15 30 c15 27 17 28 24 10 11 -29 11 -75 -1 -75 -5 0 -10 12 -11 28 0 27
-1 27 -11 5 -6 -13 -14 -23 -18 -23 -4 0 -12 10 -18 23 -10 22 -11 22 -11 -5
-1 -16 -6 -28 -12 -28 -7 0 -9 9 -5 23 3 12 6 32 6 45 0 31 18 28 31 -5z m161
-18 c10 -25 13 -45 7 -45 -5 0 -12 7 -15 15 -4 8 -12 15 -20 15 -8 0 -14 -7
-14 -15 0 -8 -5 -15 -11 -15 -6 0 -9 3 -7 8 2 4 10 24 18 45 8 20 17 37 20 37
3 0 13 -20 22 -45z m108 37 c0 -5 -10 -8 -22 -8 -28 1 -37 -34 -13 -54 14 -11
17 -10 22 8 7 29 23 28 23 -2 0 -19 -5 -23 -27 -21 -40 3 -41 3 -48 25 -9 29
12 60 40 60 14 0 25 -4 25 -8z m87 -19 l18 -27 6 29 c5 24 7 20 8 -20 l0 -50
-28 35 -29 35 -5 -35 c-3 -30 -4 -28 -5 13 -2 53 9 60 35 20z m97 -13 c-2 -57
-11 -60 -16 -6 -2 27 1 46 7 46 5 0 10 -18 9 -40z m101 30 c-3 -5 -12 -7 -20
-3 -9 3 -15 -1 -15 -11 0 -9 6 -16 13 -17 10 0 10 -2 0 -6 -7 -2 -13 -13 -13
-24 0 -10 -4 -19 -10 -19 -5 0 -10 20 -10 45 0 44 1 45 31 45 17 0 28 -4 24
-10z m55 -35 c0 -25 -4 -45 -10 -45 -5 0 -10 20 -10 45 0 25 5 45 10 45 6 0
10 -20 10 -45z m100 36 c0 -5 -8 -7 -19 -4 -11 3 -21 -2 -24 -11 -10 -25 3
-45 31 -49 24 -3 25 -4 8 -12 -11 -5 -25 -4 -35 2 -20 13 -27 63 -9 74 17 11
48 11 48 0z m108 -3 c7 -7 12 -25 12 -40 0 -21 -6 -29 -25 -34 -42 -11 -67 24
-49 70 7 19 45 21 62 4z m1459 -20 c-3 -8 -6 -5 -6 6 -1 11 2 17 5 13 3 -3 4
-12 1 -19z m0 -100 c-2 -18 -4 -6 -4 27 0 33 2 48 4 33 2 -15 2 -42 0 -60z
m733 78 c0 -3 -4 -8 -10 -11 -5 -3 -10 -1 -10 4 0 6 5 11 10 11 6 0 10 -2 10
-4z m277 -21 c0 -8 -6 -15 -14 -15 -14 0 -17 12 -6 23 11 11 20 8 20 -8z m35
1 c7 4 8 2 4 -5 -9 -13 -26 -5 -25 12 0 9 2 8 6 -1 2 -6 10 -9 15 -6z m81 -1
c-3 -9 -8 -14 -10 -11 -3 3 -2 9 2 15 9 16 15 13 8 -4z m77 -6 c0 -5 -4 -9
-10 -9 -5 0 -10 7 -10 16 0 8 5 12 10 9 6 -3 10 -10 10 -16z m-290 -69 c0 -5
-5 -10 -11 -10 -5 0 -7 5 -4 10 3 6 8 10 11 10 2 0 4 -4 4 -10z m-38 -7 c-25
-10 0 -23 44 -23 28 0 43 -4 39 -10 -4 -6 -12 -7 -18 -3 -7 4 -6 0 2 -10 12
-15 11 -17 -10 -17 -29 0 -12 -20 19 -23 16 -1 19 -5 11 -19 -7 -13 -22 -18
-51 -18 -58 0 -40 -14 27 -20 14 -2 11 -4 -10 -9 -30 -7 -29 -7 13 -15 25 -5
41 -13 39 -19 -5 -16 -97 -18 -97 -3 0 6 -13 17 -30 23 -30 11 -30 11 -30 92
l0 81 33 -1 c17 0 26 -3 19 -6z m-567 -33 c-3 -5 -16 -10 -28 -10 -18 0 -19 2
-7 10 20 13 43 13 35 0z m92 -52 c-2 -13 -4 -3 -4 22 0 25 2 35 4 23 2 -13 2
-33 0 -45z m213 -37 c0 -5 -9 -7 -20 -4 -11 3 -20 7 -20 9 0 2 9 4 20 4 11 0
20 -4 20 -9z m1110 -39 c0 -27 -6 -57 -14 -67 -13 -18 -13 -15 -6 24 9 48 4
71 -14 72 -8 0 13 13 32 18 1 1 2 -21 2 -47z m-1105 18 c77 -4 132 -7 123 -8
-22 -2 -24 -22 -3 -22 17 0 18 -4 9 -37 -5 -19 -13 -23 -45 -23 -26 0 -42 5
-45 15 -4 8 -11 15 -16 15 -6 0 -8 -7 -4 -15 4 -11 -2 -15 -21 -15 -21 0 -24
2 -13 15 18 21 3 19 -27 -5 l-26 -20 54 -2 c53 -2 115 -5 134 -7 6 -1 4 -5 -4
-10 -19 -12 -240 -6 -271 7 -18 8 -20 11 -7 11 25 1 21 19 -5 23 -13 2 -23 10
-24 18 0 8 -6 28 -12 43 -17 40 -16 40 26 32 20 -5 100 -11 177 -15z m685 -78
c0 -36 -6 -66 -15 -78 -13 -18 -14 -16 -15 23 0 23 5 45 11 49 7 4 2 15 -15
29 -24 21 -25 24 -9 28 41 11 43 8 43 -51z m-200 23 c0 -21 6 -26 41 -31 40
-7 41 -7 36 -42 -4 -19 -8 -37 -11 -39 -2 -3 -43 -6 -91 -6 -47 -1 -89 -6 -93
-12 -4 -6 -28 -8 -57 -4 -43 5 -45 6 -14 7 23 1 39 8 43 18 3 8 11 12 17 8 8
-4 9 -3 5 4 -4 7 -16 12 -26 12 -10 0 -22 5 -25 10 -3 6 0 10 7 10 10 0 10 2
-1 9 -19 12 0 21 42 19 21 -1 34 -5 30 -11 -3 -6 -1 -7 6 -3 6 4 9 12 6 17 -4
5 -1 9 4 9 6 0 11 11 11 25 0 22 4 25 35 25 31 0 35 -3 35 -25z m100 10 c-7
-8 -18 -15 -25 -15 -7 0 -18 7 -25 15 -11 13 -7 15 25 15 32 0 36 -2 25 -15z
m597 -17 c-3 -8 -6 -5 -6 6 -1 11 2 17 5 13 3 -3 4 -12 1 -19z m958 -19 c8
-45 -7 -77 -40 -85 -13 -3 -74 -4 -135 -2 -121 3 -130 7 -130 65 0 59 -2 58
154 59 l145 1 6 -38z m-514 14 c0 -4 3 -20 5 -34 5 -29 -13 -39 -68 -39 -20 0
-26 5 -25 19 0 11 5 17 11 14 5 -3 7 5 4 19 -4 22 -1 24 34 27 21 1 38 -2 39
-6z m-2405 -20 c-10 -11 -36 -12 -36 -2 0 5 10 9 22 9 12 0 18 -3 14 -7z
m2049 -13 c-3 -5 -13 -10 -21 -10 -8 0 -12 5 -9 10 3 6 13 10 21 10 8 0 12 -4
9 -10z m158 -7 c-7 -2 -19 -2 -25 0 -7 3 -2 5 12 5 14 0 19 -2 13 -5z m-86 -9
c-3 -3 -12 -4 -19 -1 -8 3 -5 6 6 6 11 1 17 -2 13 -5z m-2270 -27 c-27 -7 -45
-15 -41 -19 9 -10 -4 -10 -47 -1 -34 7 -33 7 21 18 74 16 133 17 67 2z m358
-8 l20 -8 -20 0 c-11 0 -40 6 -65 14 l-45 15 45 -6 c25 -4 54 -10 65 -15z
m-90 -39 c-8 -13 -235 -12 -255 0 -7 4 49 9 124 9 97 1 136 -1 131 -9z"/>
<path d="M4424 2480 c2 -16 20 -14 24 2 3 10 2 10 -6 -1 -7 -9 -11 -10 -15 -2
-4 7 -5 8 -3 1z"/>
<path d="M4466 2468 c12 -41 25 -50 40 -31 12 17 13 17 19 0 7 -17 8 -17 21 0
13 17 15 17 34 -6 11 -13 20 -18 20 -12 0 6 5 11 11 11 5 0 8 -4 4 -9 -3 -5
-1 -12 4 -16 6 -3 7 -13 4 -22 -4 -11 -3 -14 6 -9 7 5 10 15 7 23 -3 8 -1 11
4 8 6 -3 10 1 10 10 0 9 -5 13 -10 10 -6 -3 -13 0 -16 9 -3 8 -14 13 -25 11
-20 -4 -44 26 -31 40 4 5 1 5 -6 1 -7 -4 -10 -13 -6 -19 3 -7 -2 -3 -10 7 -12
15 -16 16 -16 5 0 -12 -2 -12 -10 1 -9 13 -10 13 -10 0 0 -13 -1 -13 -10 0 -6
10 -10 11 -10 3 0 -7 -5 -13 -11 -13 -5 0 -7 5 -4 10 3 6 1 10 -5 10 -7 0 -9
-8 -4 -22z m82 -7 c2 -1 0 -6 -3 -11 -4 -6 -12 -7 -18 -3 -19 12 -37 12 -37 0
0 -5 -3 -8 -6 -4 -16 16 29 29 64 18z"/>
<path d="M5139 2485 c-1 -3 -3 -9 -4 -15 -1 -5 -4 -11 -5 -12 -1 -2 -3 -15 -4
-30 -3 -32 27 -67 40 -47 4 7 3 10 -3 6 -15 -9 -30 13 -27 41 1 12 2 23 4 25
4 5 8 37 4 37 -2 0 -5 -2 -5 -5z"/>
<path d="M5003 2455 c0 -8 4 -12 9 -9 5 3 6 10 3 15 -9 13 -12 11 -12 -6z"/>
<path d="M5074 2454 c1 -8 4 -15 7 -16 2 -2 3 -1 2 1 -2 2 2 9 7 16 7 8 5 12
-4 12 -8 0 -13 -6 -12 -13z"/>
<path d="M5250 2436 c0 -2 8 -10 18 -17 15 -13 16 -12 3 4 -13 16 -21 21 -21
13z"/>
<path d="M4653 2401 c-9 -24 -8 -34 3 -48 8 -10 13 -13 13 -8 -1 6 3 23 10 39
6 16 10 34 7 40 -2 6 -5 2 -6 -9 -1 -18 -2 -18 -8 -2 -6 15 -9 13 -19 -12z
m14 -23 c-3 -8 -6 -5 -6 6 -1 11 2 17 5 13 3 -3 4 -12 1 -19z"/>
<path d="M5174 2414 c1 -8 4 -15 7 -16 2 -2 3 -1 2 1 -2 2 2 9 7 16 7 8 5 12
-4 12 -8 0 -13 -6 -12 -13z"/>
<path d="M5240 2416 c0 -2 8 -10 18 -17 15 -13 16 -12 3 4 -13 16 -21 21 -21
13z"/>
<path d="M5290 2416 c0 -2 8 -10 18 -17 15 -13 16 -12 3 4 -13 16 -21 21 -21
13z"/>
<path d="M5203 2395 c0 -8 4 -12 9 -9 5 3 6 10 3 15 -9 13 -12 11 -12 -6z"/>
<path d="M5284 2378 c0 -13 -3 -23 -9 -23 -5 0 -16 -4 -23 -8 -8 -6 -15 0 -21
15 -7 15 -10 17 -10 7 -1 -22 25 -44 34 -29 5 8 11 7 21 -1 9 -7 14 -8 12 -3
-2 5 2 10 7 11 6 0 9 -3 7 -9 -1 -5 2 -6 8 -3 8 5 7 12 -4 23 -8 10 -15 21
-14 25 0 5 -2 11 -5 13 -2 3 -4 -5 -3 -18z"/>
<path d="M5332 2388 c2 -7 -4 -12 -12 -10 -11 3 -11 -1 3 -16 9 -10 14 -22 10
-27 -5 -4 -2 -5 5 0 10 5 11 10 3 18 -7 7 -7 14 0 23 7 8 7 14 -1 19 -6 4 -9
1 -8 -7z"/>
<path d="M5389 2398 c-5 -18 -6 -38 -1 -34 7 8 12 36 6 36 -2 0 -4 -1 -5 -2z"/>
<path d="M4710 2384 c0 -12 19 -32 33 -33 4 -1 8 -1 10 -2 1 0 10 -2 20 -4 15
-3 16 -1 6 11 -6 7 -15 11 -20 9 -4 -3 -12 3 -18 12 -8 14 -10 15 -11 3 0 -13
-1 -13 -10 0 -5 8 -10 10 -10 4z"/>
<path d="M5453 2375 c0 -8 4 -12 9 -9 5 3 6 10 3 15 -9 13 -12 11 -12 -6z"/>
<path d="M5355 2371 c-3 -5 -1 -12 5 -16 6 -4 7 -11 4 -17 -4 -7 -2 -8 5 -4 8
6 9 12 2 20 -6 7 -8 16 -4 19 3 4 4 7 0 7 -3 0 -8 -4 -12 -9z"/>
<path d="M5401 2356 c-9 -11 -9 -16 1 -22 7 -4 10 -4 6 1 -4 4 -3 14 3 22 6 7
9 13 6 13 -2 0 -10 -6 -16 -14z"/>
<path d="M4981 2344 c0 -11 3 -14 6 -6 3 7 2 16 -1 19 -3 4 -6 -2 -5 -13z"/>
<path d="M5091 2344 c0 -11 3 -14 6 -6 3 7 2 16 -1 19 -3 4 -6 -2 -5 -13z"/>
<path d="M5111 2344 c0 -11 3 -14 6 -6 3 7 2 16 -1 19 -3 4 -6 -2 -5 -13z"/>
<path d="M5426 2338 c3 -5 10 -6 15 -3 13 9 11 12 -6 12 -8 0 -12 -4 -9 -9z"/>
<path d="M25 284 c0 -12 4 -22 10 -21 5 1 9 -3 10 -10 0 -6 3 -14 8 -17 4 -3
5 -3 2 1 -3 3 0 12 7 20 9 11 16 9 42 -14 17 -15 23 -18 13 -6 -12 14 -15 23
-8 28 6 3 11 12 11 18 0 8 -3 8 -9 -1 -6 -11 -10 -10 -15 5 -7 17 -8 17 -21 0
-13 -18 -13 -18 -19 1 -9 26 -31 24 -31 -4z m29 -10 c3 -8 2 -12 -4 -9 -6 3
-10 10 -10 16 0 14 7 11 14 -7z m40 0 c3 -8 2 -12 -4 -9 -6 3 -10 10 -10 16 0
14 7 11 14 -7z"/>
<path d="M133 283 c-3 -10 -8 -21 -10 -25 -2 -4 1 -10 7 -13 6 -4 10 -3 9 2
-1 4 0 17 1 28 2 17 3 17 10 -5 7 -23 8 -23 9 -3 1 28 -17 40 -26 16z"/>
<path d="M73 235 c0 -8 4 -12 9 -9 5 3 6 10 3 15 -9 13 -12 11 -12 -6z"/>
<path d="M4795 2460 c-4 -6 -10 -8 -15 -5 -4 3 -7 -3 -5 -12 2 -10 4 -25 5
-33 1 -13 2 -13 7 0 3 8 12 22 20 32 9 10 11 18 4 22 -5 4 -12 2 -16 -4z m15
-4 c0 -2 -8 -10 -17 -17 -16 -13 -17 -12 -4 4 13 16 21 21 21 13z"/>
<path d="M4964 2395 c-4 -8 -11 -12 -17 -8 -6 3 -7 1 -3 -5 10 -16 14 -15 26
8 6 11 8 20 5 20 -3 0 -8 -7 -11 -15z"/>
<path d="M4990 2200 c9 -6 11 -10 3 -10 -7 0 -10 -6 -7 -14 4 -11 -4 -16 -28
-19 l-33 -4 37 -1 c20 -1 40 -6 43 -12 3 -5 1 -10 -5 -10 -7 0 -10 -7 -6 -15
3 -8 0 -15 -6 -15 -7 0 -7 -4 1 -14 9 -11 8 -17 -3 -29 -14 -13 -13 -16 7 -22
13 -4 17 -8 9 -12 -6 -2 -10 -9 -6 -14 3 -5 -3 -9 -12 -9 -16 0 -16 -1 2 -15
17 -13 17 -14 2 -15 -10 0 -18 -4 -18 -10 0 -5 8 -10 18 -10 13 0 14 -2 3 -9
-18 -12 -5 -31 22 -31 13 0 26 10 33 24 9 20 9 23 -2 19 -8 -3 -14 1 -14 11 0
9 5 16 12 16 9 0 9 3 0 12 -17 17 -15 38 3 38 8 0 15 5 15 10 0 6 -7 10 -15
10 -21 0 -19 27 3 39 16 10 16 10 0 11 -10 0 -18 7 -18 15 0 8 8 15 18 16 14
0 14 2 -3 9 -19 8 -19 9 4 9 17 1 22 5 17 17 -3 9 -6 22 -6 30 0 10 -12 14
-42 14 -32 0 -39 -3 -28 -10z"/>
<path d="M5858 2023 c7 -3 16 -2 19 1 4 3 -2 6 -13 5 -11 0 -14 -3 -6 -6z"/>
<path d="M5853 1853 c9 -2 23 -2 30 0 6 3 -1 5 -18 5 -16 0 -22 -2 -12 -5z"/>
<path d="M4165 1830 c-8 -13 5 -13 25 0 13 8 13 10 -2 10 -9 0 -20 -4 -23 -10z"/>
<path d="M4228 1683 c7 -3 16 -2 19 1 4 3 -2 6 -13 5 -11 0 -14 -3 -6 -6z"/>
<path d="M4150 1616 c-14 -8 -28 -12 -32 -10 -4 3 -5 -5 -3 -16 3 -13 0 -18
-7 -14 -8 5 -9 1 -5 -10 4 -9 3 -15 -2 -12 -5 3 -11 -12 -13 -33 -2 -30 0 -37
8 -30 8 7 15 6 20 -2 4 -8 3 -9 -4 -5 -21 13 -13 -10 11 -32 35 -33 109 -31
136 4 33 41 29 108 -8 145 -32 32 -62 36 -101 15z m120 -129 c0 -2 -10 -12
-22 -23 l-23 -19 19 23 c18 21 26 27 26 19z m-125 -35 c-3 -3 -11 0 -18 7 -9
10 -8 11 6 5 10 -3 15 -9 12 -12z"/>
<path d="M3780 1581 c0 -5 5 -13 10 -16 6 -3 10 -2 10 4 0 5 -4 13 -10 16 -5
3 -10 2 -10 -4z"/>
<path d="M4075 1579 c-4 -6 -5 -12 -2 -15 2 -3 7 2 10 11 7 17 1 20 -8 4z"/>
<path d="M3598 1545 c23 -7 52 -10 65 -7 20 6 20 7 -8 13 -16 4 -46 7 -65 7
l-35 1 43 -14z"/>
<path d="M3815 1550 c3 -5 1 -10 -5 -10 -6 0 -9 -4 -5 -9 3 -6 14 -9 25 -8 18
1 18 2 3 19 -17 20 -28 24 -18 8z"/>
<path d="M4062 1520 c0 -19 2 -27 5 -17 2 9 2 25 0 35 -3 9 -5 1 -5 -18z"/>
<path d="M3650 1524 l-45 -14 45 5 c25 4 49 10 55 16 11 11 3 10 -55 -7z"/>
<path d="M3553 1523 c9 -2 25 -2 35 0 9 3 1 5 -18 5 -19 0 -27 -2 -17 -5z"/>
<path d="M3764 1491 c4 -6 20 -11 35 -11 15 0 32 -5 38 -11 9 -9 16 -8 27 4
14 13 14 16 0 21 -9 4 -12 2 -8 -5 6 -11 -26 -7 -80 8 -12 3 -16 1 -12 -6z"/>
<path d="M3905 1490 c-3 -5 -1 -11 5 -15 6 -4 8 -10 5 -15 -3 -5 4 -7 15 -5
11 2 20 1 20 -3 1 -7 50 -46 50 -39 0 11 -90 84 -95 77z"/>
<path d="M3520 1465 c-11 -13 -10 -14 4 -9 9 3 16 10 16 15 0 13 -6 11 -20 -6z"/>
<path d="M4066 1360 c4 -19 10 -44 15 -55 l8 -20 0 20 c0 11 -7 36 -15 55
l-14 35 6 -35z"/>
<path d="M3987 1354 c-4 -4 -2 -13 4 -21 9 -9 8 -13 0 -13 -6 0 -11 -13 -11
-30 0 -16 5 -30 11 -30 6 0 8 7 5 16 -3 8 -1 24 4 35 11 20 0 56 -13 43z"/>
<path d="M3580 1309 c0 -5 11 -9 25 -9 14 0 25 2 25 4 0 2 -11 6 -25 8 -14 3
-25 1 -25 -3z"/>
<path d="M3628 1281 c-13 -19 -16 -20 -22 -6 -7 19 -22 12 -37 -18 -9 -19 -8
-19 11 3 l21 25 -6 -25 c-5 -19 -4 -22 4 -10 10 13 11 13 11 0 0 -13 1 -13 10
0 8 12 10 12 10 1 0 -11 3 -11 15 -1 12 10 15 10 15 -1 0 -11 2 -11 10 1 11
17 14 37 3 27 -3 -4 -11 1 -18 10 -11 14 -13 14 -27 -6z m22 -5 c0 -3 -4 -8
-10 -11 -5 -3 -10 -1 -10 4 0 6 5 11 10 11 6 0 10 -2 10 -4z"/>
<path d="M3694 1279 c-9 -14 -14 -59 -7 -59 3 0 13 10 24 23 12 15 18 17 19 8
0 -11 4 -10 16 5 15 18 15 18 10 0 -5 -15 -4 -17 8 -7 9 8 15 8 18 1 1 -5 9 0
17 12 13 21 13 22 -2 9 -10 -7 -17 -9 -17 -3 0 11 -18 11 -37 -1 -8 -5 -13 -3
-13 4 0 6 -9 1 -20 -12 -10 -13 -19 -19 -20 -13 0 5 5 15 12 22 6 6 9 14 6 17
-3 4 -9 1 -14 -6z"/>
<path d="M3822 1268 c-6 -6 -12 -17 -12 -22 0 -6 7 -2 16 9 13 17 16 18 24 5
9 -13 10 -13 10 0 0 12 2 12 9 2 4 -8 12 -14 17 -15 5 -1 8 -9 7 -17 -1 -9 6
-6 18 9 23 28 24 41 4 41 -8 0 -15 -5 -15 -11 0 -5 5 -7 12 -3 7 5 8 3 3 -6
-7 -11 -10 -10 -19 1 -15 19 -58 23 -74 7z"/>
<path d="M3420 1249 c0 -13 -3 -35 -6 -49 -6 -24 -6 -24 8 -5 15 20 18 59 5
71 -4 4 -7 -4 -7 -17z"/>
<path d="M3675 1170 c-11 -5 -14 -9 -7 -9 7 -1 10 -7 7 -13 -4 -7 0 -5 8 4 8
10 16 15 19 12 4 -3 9 -1 13 5 7 13 -12 13 -40 1z"/>
<path d="M3847 1169 c7 -7 15 -10 18 -7 3 3 -2 9 -12 12 -14 6 -15 5 -6 -5z"/>
<path d="M4172 1155 c-6 -11 -13 -19 -16 -17 -3 1 -6 0 -6 -3 0 -3 0 -11 0
-18 0 -8 12 -13 33 -12 25 1 33 5 35 23 2 14 -2 22 -11 22 -9 0 -17 6 -19 12
-3 8 -9 5 -16 -7z"/>
<path d="M3635 1120 c-3 -5 1 -10 10 -10 9 0 13 5 10 10 -3 6 -8 10 -10 10 -2
0 -7 -4 -10 -10z"/>
<path d="M3841 1044 c0 -11 3 -14 6 -6 3 7 2 16 -1 19 -3 4 -6 -2 -5 -13z"/>
<path d="M4046 995 c-3 -8 -1 -17 3 -20 5 -3 11 2 15 10 3 8 1 17 -3 20 -5 3
-11 -2 -15 -10z"/>
<path d="M4081 992 c-10 -18 -9 -21 4 -16 8 4 15 1 15 -7 0 -7 2 -10 5 -7 3 3
2 16 -3 29 l-9 23 -12 -22z"/>
<path d="M4135 990 c10 -11 20 -18 23 -15 3 3 11 0 17 -5 9 -8 11 -4 7 15 -4
24 -5 24 -17 8 -13 -17 -14 -17 -20 0 -4 9 -12 17 -18 17 -5 0 -2 -9 8 -20z"/>
<path d="M4222 990 c0 -14 2 -19 5 -12 2 6 2 18 0 25 -3 6 -5 1 -5 -13z"/>
<path d="M4262 990 c0 -14 2 -19 5 -12 2 6 2 18 0 25 -3 6 -5 1 -5 -13z"/>
<path d="M3971 904 c0 -11 3 -14 6 -6 3 7 2 16 -1 19 -3 4 -6 -2 -5 -13z"/>
<path d="M3977 809 c4 -13 8 -18 11 -10 2 7 -1 18 -6 23 -8 8 -9 4 -5 -13z"/>
<path d="M4138 782 c6 -2 12 -10 12 -18 0 -8 7 -14 16 -14 9 0 12 5 8 11 -5 8
1 10 19 7 14 -3 28 0 30 6 3 7 -14 11 -47 12 -28 0 -45 -1 -38 -4z"/>
<path d="M3970 651 c0 -38 4 -72 9 -75 4 -3 8 26 8 64 0 39 -4 73 -8 76 -5 3
-9 -26 -9 -65z"/>
<path d="M4148 468 c8 -8 20 -8 44 -1 l33 11 -44 1 c-34 1 -42 -2 -33 -11z"/>
<path d="M5950 1704 c0 -3 10 -18 21 -32 12 -15 19 -20 15 -12 -3 8 -9 23 -12
33 -6 16 -24 25 -24 11z"/>
<path d="M5859 1676 c-41 -20 -37 -60 11 -107 23 -22 37 -32 31 -21 -8 16 -6
21 14 32 24 13 30 26 27 63 -1 12 2 16 11 11 7 -4 9 -3 4 2 -5 5 -12 9 -15 9
-4 0 -11 3 -17 6 -25 15 -44 16 -66 5z"/>
<path d="M5736 1618 c-3 -13 -5 -41 -5 -63 1 -33 3 -29 9 20 8 63 7 81 -4 43z"/>
<path d="M6030 1567 c0 -26 5 -47 10 -47 6 0 8 16 4 43 -9 58 -14 59 -14 4z"/>
<path d="M5963 1587 c-4 -8 -16 -18 -25 -23 -24 -13 -7 -40 18 -29 11 5 24 9
29 10 12 1 7 29 -6 33 -5 2 -7 8 -3 13 3 5 3 9 0 9 -3 0 -9 -6 -13 -13z"/>
<path d="M5879 1523 c-1 -4 -1 -11 0 -15 0 -5 -6 -8 -16 -8 -9 0 -14 -3 -10
-6 3 -3 43 -6 89 -6 63 0 83 3 83 13 0 10 -16 14 -60 14 -33 1 -66 4 -73 9 -6
4 -13 4 -13 -1z"/>
<path d="M5768 1513 c7 -3 16 -2 19 1 4 3 -2 6 -13 5 -11 0 -14 -3 -6 -6z"/>
<path d="M5828 1513 c7 -3 16 -2 19 1 4 3 -2 6 -13 5 -11 0 -14 -3 -6 -6z"/>
<path d="M5870 1448 c0 -11 28 -10 35 1 3 6 -4 9 -15 8 -11 -1 -20 -5 -20 -9z"/>
<path d="M5953 1412 c7 -10 13 -10 15 -3 2 6 8 9 13 5 5 -3 9 0 9 5 0 6 -11
10 -24 9 -20 -2 -23 -5 -13 -16z"/>
<path d="M6011 1414 c0 -11 3 -14 6 -6 3 7 2 16 -1 19 -3 4 -6 -2 -5 -13z"/>
<path d="M6031 1414 c0 -11 3 -14 6 -6 3 7 2 16 -1 19 -3 4 -6 -2 -5 -13z"/>
<path d="M6065 1410 c3 -5 8 -10 11 -10 2 0 4 5 4 10 0 6 -5 10 -11 10 -5 0
-7 -4 -4 -10z"/>
<path d="M5979 1218 c-5 -18 -6 -38 -1 -34 7 8 12 36 6 36 -2 0 -4 -1 -5 -2z"/>
<path d="M5806 554 c-4 -9 -4 -19 -1 -22 2 -3 7 3 11 12 4 9 4 19 1 22 -2 3
-7 -3 -11 -12z"/>
<path d="M4520 1620 c-8 -5 -12 -11 -9 -14 3 -3 14 1 25 9 21 16 8 20 -16 5z"/>
<path d="M4573 1623 c9 -2 15 -8 13 -12 -3 -4 4 -7 15 -7 10 0 19 3 19 7 0 9
-28 19 -48 18 -15 -1 -15 -2 1 -6z"/>
<path d="M7436 1403 c-11 -11 -6 -23 9 -23 8 0 15 4 15 9 0 13 -16 22 -24 14z"/>
<path d="M7510 1396 c0 -9 7 -16 16 -16 17 0 14 22 -4 28 -7 2 -12 -3 -12 -12z"/>
<path d="M8024 1396 c-8 -22 3 -49 19 -43 6 2 12 14 12 27 0 27 -22 39 -31 16z"/>
<path d="M8380 1395 c-11 -13 -11 -19 3 -33 20 -19 41 -5 35 24 -4 24 -22 28
-38 9z"/>
<path d="M8480 1380 c0 -33 11 -38 30 -15 10 12 10 18 0 30 -19 23 -30 18 -30
-15z"/>
<path d="M8650 1396 c0 -9 5 -16 10 -16 6 0 10 4 10 9 0 6 -4 13 -10 16 -5 3
-10 -1 -10 -9z"/>
<path d="M8994 1396 c-8 -22 3 -49 19 -43 6 2 12 14 12 27 0 27 -22 39 -31 16z"/>
<path d="M4915 1290 c3 -5 8 -10 11 -10 2 0 4 5 4 10 0 6 -5 10 -11 10 -5 0
-7 -4 -4 -10z"/>
<path d="M4786 1265 c-16 -12 -17 -15 -4 -15 9 0 18 7 22 15 7 18 6 18 -18 0z"/>
<path d="M5000 1216 c0 -10 -5 -16 -12 -13 -8 3 -14 -4 -14 -17 -1 -16 5 -22
22 -24 13 -1 24 3 24 9 0 6 -7 8 -16 5 -14 -5 -15 -4 -4 9 11 14 15 14 29 1
15 -14 17 -13 17 5 0 11 -5 18 -13 15 -7 -3 -17 3 -22 12 -10 16 -10 16 -11
-2z"/>
<path d="M4750 1163 c0 -4 5 -15 10 -23 8 -13 10 -13 10 2 0 9 -4 20 -10 23
-5 3 -10 3 -10 -2z"/>
<path d="M4827 1152 c9 -6 7 -15 -7 -37 -23 -35 -27 -59 -5 -31 10 13 15 15
15 6 0 -9 5 -8 16 6 15 18 15 18 10 0 -6 -16 -4 -17 9 -6 29 24 10 37 -24 16
-11 -7 -13 -5 -8 8 4 10 7 20 7 22 0 2 10 4 23 4 18 0 19 2 7 10 -8 5 -24 10
-35 10 -13 0 -16 -3 -8 -8z"/>
<path d="M4891 1102 c-17 -31 -13 -40 5 -14 9 13 14 26 11 29 -3 2 -10 -4 -16
-15z"/>
<path d="M4917 1107 c-9 -23 -9 -27 1 -26 22 4 34 -3 28 -16 -9 -24 -1 -18 28
20 24 32 25 35 7 32 -10 -2 -26 -9 -34 -15 -13 -11 -16 -10 -19 5 -3 17 -4 17
-11 0z m45 -19 c-7 -7 -12 -8 -12 -2 0 14 12 26 19 19 2 -3 -1 -11 -7 -17z"/>
<path d="M5002 1099 c-19 -30 -13 -36 9 -9 l20 25 -7 -25 -7 -25 21 25 21 25
-6 -25 c-5 -24 -5 -25 10 -5 23 28 21 31 -16 32 -23 0 -38 -6 -45 -18z"/>
<path d="M5103 1108 c-23 -30 -26 -42 -5 -24 21 18 22 18 22 1 0 -18 1 -18 15
1 8 10 15 22 15 27 0 12 -37 8 -47 -5z"/>
<path d="M5156 1103 c-10 -25 -7 -28 8 -7 14 18 14 16 12 -18 -2 -21 -2 -38 0
-38 5 0 44 67 44 76 0 5 -9 -4 -20 -21 -11 -16 -20 -25 -20 -18 0 6 5 15 10
18 16 10 12 21 -9 22 -11 1 -22 -5 -25 -14z"/>
<path d="M5244 1065 c0 -20 3 -32 7 -28 12 13 15 56 4 60 -5 1 -10 -13 -11
-32z"/>
<path d="M5077 1013 c-15 -15 -7 -43 13 -43 11 0 20 6 20 13 0 8 3 9 8 1 14
-22 42 -12 42 15 0 14 -4 22 -8 16 -8 -12 -37 -13 -48 -2 -9 9 -19 9 -27 0z
m23 -23 c0 -5 -4 -10 -10 -10 -5 0 -10 5 -10 10 0 6 5 10 10 10 6 0 10 -4 10
-10z"/>
<path d="M4769 1003 c-1 -5 -1 -15 0 -25 1 -9 -3 -19 -9 -23 -5 -3 -9 -16 -9
-28 1 -19 2 -19 6 -3 4 13 7 15 13 7 5 -10 9 -9 13 3 4 9 3 16 -2 16 -4 0 -6
14 -3 30 2 17 2 30 -2 30 -3 0 -7 -3 -7 -7z"/>
<path d="M4860 990 c0 -11 4 -20 9 -20 5 0 7 9 4 20 -3 11 -7 20 -9 20 -2 0
-4 -9 -4 -20z"/>
<path d="M4905 1000 c-8 -14 3 -30 21 -30 8 0 14 9 14 20 0 21 -24 28 -35 10z
m25 -10 c0 -5 -4 -10 -10 -10 -5 0 -10 5 -10 10 0 6 5 10 10 10 6 0 10 -4 10
-10z"/>
<path d="M4960 993 c0 -12 8 -19 20 -20 15 -1 20 4 19 20 0 12 -3 16 -6 9 -4
-10 -8 -10 -19 -1 -11 9 -14 8 -14 -8z"/>
<path d="M5010 990 c0 -16 5 -21 23 -18 12 2 22 10 22 18 0 8 -10 16 -22 18
-18 3 -23 -2 -23 -18z"/>
<path d="M5246 981 c-4 -7 -5 -15 -2 -18 9 -9 19 4 14 18 -4 11 -6 11 -12 0z"/>
<path d="M4860 930 c0 -15 5 -20 18 -18 9 2 17 10 17 18 0 8 -8 16 -17 18 -13
2 -18 -3 -18 -18z m30 0 c0 -5 -4 -10 -10 -10 -5 0 -10 5 -10 10 0 6 5 10 10
10 6 0 10 -4 10 -10z"/>
<path d="M4919 948 c-7 -24 -5 -38 6 -38 14 0 27 25 18 34 -6 6 -22 8 -24 4z"/>
<path d="M4968 928 c5 -22 18 -23 26 -2 8 21 9 20 -13 20 -12 0 -17 -6 -13
-18z"/>
<path d="M5043 934 c-7 -18 11 -39 26 -30 17 11 13 29 -4 22 -8 -3 -15 -1 -15
4 0 5 8 11 18 13 16 4 16 5 -1 6 -10 0 -20 -6 -24 -15z"/>
<path d="M5102 930 c0 -14 2 -19 5 -12 2 6 2 18 0 25 -3 6 -5 1 -5 -13z"/>
<path d="M5120 930 c0 -13 7 -18 20 -17 11 1 20 8 20 17 0 9 -9 16 -20 17 -13
1 -20 -4 -20 -17z"/>
<path d="M5243 942 c-10 -7 -10 -12 1 -27 13 -19 14 -18 13 8 -1 15 -2 27 -2
27 0 0 -6 -4 -12 -8z"/>
<path d="M4765 860 c-8 -13 3 -30 18 -29 9 0 9 2 0 5 -7 3 -9 12 -6 20 6 16
-3 19 -12 4z"/>
<path d="M5243 863 c-15 -5 -17 -23 -4 -23 5 0 11 7 15 15 3 8 4 15 3 14 -1 0
-8 -3 -14 -6z"/>
<path d="M5251 814 c0 -11 3 -14 6 -6 3 7 2 16 -1 19 -3 4 -6 -2 -5 -13z"/>
<path d="M4782 785 c0 -16 2 -22 5 -12 2 9 2 23 0 30 -3 6 -5 -1 -5 -18z"/>
<path d="M4833 763 c9 -2 23 -2 30 0 6 3 -1 5 -18 5 -16 0 -22 -2 -12 -5z"/>
<path d="M4782 740 c2 -8 14 -16 26 -18 17 -3 20 0 15 14 -4 12 -8 14 -11 6
-3 -10 -7 -10 -20 0 -13 11 -14 11 -10 -2z"/>
<path d="M4337 1178 c-8 -31 0 -36 12 -7 7 17 10 19 10 7 1 -12 6 -15 18 -11
11 4 14 3 9 -5 -4 -7 -2 -12 3 -12 6 0 11 6 11 13 0 7 4 6 10 -4 7 -13 18 -15
47 -9 21 3 47 11 58 17 11 6 24 11 28 11 5 0 11 3 15 6 10 10 -38 7 -59 -4
-13 -7 -19 -7 -19 0 0 5 -7 10 -15 10 -8 0 -15 -5 -15 -11 0 -5 5 -7 10 -4 6
3 10 1 10 -4 0 -13 -3 -13 -24 -5 -8 3 -13 11 -10 17 3 8 -12 13 -45 15 -43 3
-49 0 -54 -20z"/>
<path d="M4651 1183 c-6 -10 -11 -12 -11 -5 0 7 -13 12 -32 12 l-33 0 43 -22
c39 -20 61 -47 26 -34 -8 3 -13 2 -10 -3 7 -11 56 -21 56 -10 0 4 -6 10 -12
12 -10 4 -10 6 0 6 18 1 16 61 -3 61 -7 0 -19 -8 -24 -17z"/>
<path d="M4347 1143 c-4 -3 -7 -38 -7 -77 1 -67 2 -69 14 -41 7 17 9 31 5 33
-4 2 -3 16 1 33 6 21 5 27 -2 23 -7 -5 -9 0 -6 14 6 23 5 26 -5 15z"/>
<path d="M4530 1092 c0 -13 9 -17 35 -18 28 0 35 3 35 19 0 19 -1 20 -20 2
-11 -10 -20 -13 -20 -8 0 6 -7 13 -15 17 -10 3 -15 -1 -15 -12z"/>
<path d="M4423 1063 c4 -3 0 -17 -9 -31 -8 -13 -13 -26 -10 -29 3 -3 9 2 12
11 5 14 9 15 16 4 7 -10 8 -8 4 5 -3 11 0 20 9 23 18 7 10 24 -12 24 -9 0 -13
-3 -10 -7z"/>
<path d="M4477 1027 c-4 -10 2 -13 18 -13 13 1 27 5 30 8 4 4 -1 5 -12 4 -10
-2 -21 1 -24 6 -3 5 -9 3 -12 -5z"/>
<path d="M4543 1027 c-3 -6 -1 -7 4 -4 6 4 14 0 17 -9 5 -14 9 -14 23 -3 9 8
17 12 19 9 1 -3 6 -1 11 4 5 5 3 6 -4 2 -8 -4 -13 -2 -13 5 0 7 -7 4 -16 -7
-11 -13 -14 -14 -11 -3 6 17 -20 22 -30 6z"/>
<path d="M4519 993 c-13 -16 -12 -17 4 -4 9 7 17 15 17 17 0 8 -8 3 -21 -13z"/>
<path d="M4436 952 c-3 -6 -1 -14 5 -17 5 -4 8 -14 4 -24 -4 -11 -3 -13 5 -5
7 7 7 19 2 34 -5 14 -11 19 -16 12z"/>
<path d="M4480 925 c0 -14 4 -25 9 -25 4 0 6 11 3 25 -2 14 -6 25 -8 25 -2 0
-4 -11 -4 -25z"/>
<path d="M4510 944 c0 -6 7 -19 15 -30 8 -10 14 -14 14 -9 0 6 -6 19 -14 29
-8 11 -15 15 -15 10z"/>
<path d="M4562 925 c0 -16 2 -22 5 -12 2 9 2 23 0 30 -3 6 -5 -1 -5 -18z"/>
<path d="M4590 925 c0 -14 4 -25 9 -25 4 0 6 11 3 25 -2 14 -6 25 -8 25 -2 0
-4 -11 -4 -25z"/>
<path d="M4630 925 c0 -14 4 -25 9 -25 4 0 6 11 3 25 -2 14 -6 25 -8 25 -2 0
-4 -11 -4 -25z"/>
<path d="M4340 900 c0 -22 4 -40 8 -40 5 0 8 -12 7 -27 -1 -16 0 -20 2 -10 2
9 9 14 15 11 5 -4 4 4 -3 17 -7 13 -12 39 -10 57 1 17 -3 32 -9 32 -5 0 -10
-18 -10 -40z"/>
<path d="M4660 880 c0 -5 5 -10 10 -10 6 0 10 5 10 10 0 6 -4 10 -10 10 -5 0
-10 -4 -10 -10z"/>
<path d="M4374 788 c-3 -4 -10 -6 -15 -3 -5 3 -6 -1 -3 -9 4 -11 11 -13 22 -7
10 5 25 7 35 6 9 -2 17 0 17 5 0 11 -49 19 -56 8z"/>
<path d="M4440 771 c0 -7 -6 -11 -15 -7 -8 3 -15 1 -15 -5 0 -6 -4 -7 -10 -4
-5 3 -10 1 -10 -5 0 -7 6 -10 14 -7 8 3 16 1 18 -5 4 -12 126 -20 133 -8 3 4
-17 11 -45 15 -30 4 -54 13 -60 23 -6 12 -9 13 -10 3z"/>
<path d="M5500 1231 c5 -10 7 -21 4 -24 -3 -3 7 -12 23 -20 33 -17 128 -22
118 -7 -7 11 8 14 18 4 9 -10 -16 -32 -30 -27 -18 7 -16 -12 2 -31 8 -8 13
-20 11 -28 -2 -7 -7 -28 -10 -47 -5 -30 -4 -32 11 -20 15 12 16 12 10 -6 -7
-18 -6 -19 6 -3 9 12 14 51 15 116 2 90 1 98 -17 98 -11 0 -17 -5 -14 -11 3
-5 0 -4 -8 3 -16 15 -53 16 -43 1 4 -7 -1 -7 -16 1 -12 6 -24 9 -27 7 -2 -3
-18 -1 -34 3 -26 8 -28 7 -19 -9z"/>
<path d="M5440 1157 c-17 -13 -27 -53 -11 -43 5 4 12 2 15 -3 10 -16 46 0 46
21 0 17 -5 19 -27 14 -20 -5 -24 -4 -13 3 8 6 12 12 10 15 -3 2 -12 -1 -20 -7z"/>
<path d="M5519 1052 c-13 -15 -12 -16 4 -3 9 7 17 9 17 4 0 -14 28 -12 33 2 8
18 -40 16 -54 -3z"/>
<path d="M5595 1062 c2 -3 0 -14 -6 -25 -8 -14 -8 -18 0 -13 6 4 15 15 20 25
7 13 6 18 -5 18 -7 0 -12 -2 -9 -5z"/>
<path d="M5349 983 c14 -28 15 -54 1 -33 -5 8 -10 10 -10 4 0 -6 8 -18 18 -27
17 -16 18 -15 18 17 0 19 -3 33 -5 30 -2 -2 -10 4 -18 14 -13 15 -13 15 -4 -5z"/>
<path d="M5407 959 c4 -13 8 -18 11 -10 2 7 -1 18 -6 23 -8 8 -9 4 -5 -13z"/>
<path d="M5430 969 c0 -15 18 -19 23 -6 3 8 -1 14 -9 14 -8 0 -14 -4 -14 -8z"/>
<path d="M5477 974 c-12 -12 -8 -23 13 -34 23 -12 26 -2 7 24 -7 9 -16 14 -20
10z"/>
<path d="M5522 955 c0 -16 2 -22 5 -12 2 9 2 23 0 30 -3 6 -5 -1 -5 -18z"/>
<path d="M5432 842 c-13 -2 -22 -8 -20 -14 2 -5 6 -8 9 -6 3 2 12 -2 20 -8 15
-13 59 -2 59 15 0 11 -36 18 -68 13z"/>
<path d="M6490 1270 c0 -5 22 -10 49 -10 28 0 53 5 56 10 4 6 -15 10 -49 10
-31 0 -56 -4 -56 -10z"/>
<path d="M7640 1265 c-11 -13 -11 -19 3 -33 20 -19 41 -5 35 24 -4 24 -22 28
-38 9z"/>
<path d="M7880 1265 c-11 -13 -11 -19 3 -33 20 -19 41 -5 35 24 -4 24 -22 28
-38 9z"/>
<path d="M8086 1271 c-4 -7 -5 -15 -2 -18 9 -9 19 4 14 18 -4 11 -6 11 -12 0z"/>
<path d="M8240 1265 c0 -8 5 -15 10 -15 6 0 10 7 10 15 0 8 -4 15 -10 15 -5 0
-10 -7 -10 -15z"/>
<path d="M8820 1266 c-10 -13 -10 -19 0 -32 12 -14 15 -14 29 0 14 15 14 17 0
32 -14 14 -17 14 -29 0z"/>
<path d="M6268 1073 c6 -2 18 -2 25 0 6 3 1 5 -13 5 -14 0 -19 -2 -12 -5z"/>
<path d="M6271 1034 c0 -11 3 -14 6 -6 3 7 2 16 -1 19 -3 4 -6 -2 -5 -13z"/>
<path d="M6274 971 c3 -5 15 -7 26 -4 28 7 25 13 -6 13 -14 0 -23 -4 -20 -9z"/>
<path d="M6370 910 c-9 -6 -10 -10 -3 -10 6 0 15 5 18 10 8 12 4 12 -15 0z"/>
<path d="M6400 916 c0 -2 7 -9 15 -16 13 -11 14 -10 9 4 -5 14 -24 23 -24 12z"/>
<path d="M6650 904 c0 -14 3 -14 15 -4 8 7 15 14 15 16 0 2 -7 4 -15 4 -8 0
-15 -7 -15 -16z"/>
<path d="M6192 848 c-19 -19 -14 -56 8 -68 43 -23 82 19 59 62 -11 20 -49 24
-67 6z"/>
<path d="M6510 835 c-26 -32 13 -81 48 -59 34 22 22 74 -18 74 -10 0 -23 -7
-30 -15z"/>
<path d="M6103 784 c4 -4 2 -13 -4 -20 -14 -17 -3 -35 16 -27 8 3 15 0 15 -6
0 -9 5 -9 19 -1 16 8 22 6 30 -7 9 -17 10 -17 17 0 5 15 9 16 15 5 6 -8 9 -9
9 -1 0 6 8 10 18 8 22 -3 34 4 26 16 -3 5 -11 6 -17 2 -15 -10 -147 -11 -147
-1 0 4 7 11 16 16 15 8 14 10 -2 16 -10 4 -15 4 -11 0z"/>
<path d="M6430 770 c0 -5 7 -7 15 -4 8 4 15 8 15 10 0 2 -7 4 -15 4 -8 0 -15
-4 -15 -10z"/>
<path d="M6560 753 c0 -5 -32 -8 -72 -8 -55 0 -72 -3 -75 -15 -3 -9 -1 -11 4
-5 4 6 27 11 49 11 33 0 41 -3 37 -15 -4 -14 -3 -14 9 0 8 9 28 15 50 14 21
-1 43 3 50 8 10 6 9 7 -2 4 -8 -2 -23 0 -32 5 -10 5 -18 5 -18 1z"/>
<path d="M6278 732 c-11 -15 -11 -15 2 -6 18 14 50 10 61 -8 6 -9 8 -7 7 7 -2
26 -51 31 -70 7z"/>
<path d="M6491 674 c0 -11 3 -14 6 -6 3 7 2 16 -1 19 -3 4 -6 -2 -5 -13z"/>
<path d="M6365 540 c-3 -5 -2 -10 4 -10 5 0 13 5 16 10 3 6 2 10 -4 10 -5 0
-13 -4 -16 -10z"/>
<path d="M6268 533 c6 -2 18 -2 25 0 6 3 1 5 -13 5 -14 0 -19 -2 -12 -5z"/>
<path d="M7797 1143 c-11 -10 -8 -41 4 -49 6 -3 18 1 27 9 13 13 13 19 2 31
-14 17 -23 20 -33 9z"/>
<path d="M7890 1136 c0 -9 7 -16 16 -16 9 0 14 5 12 12 -6 18 -28 21 -28 4z"/>
<path d="M8180 1120 c0 -21 4 -30 13 -27 6 2 12 14 12 27 0 13 -6 25 -12 28
-9 2 -13 -7 -13 -28z"/>
<path d="M8435 1100 c3 -5 8 -10 11 -10 2 0 4 5 4 10 0 6 -5 10 -11 10 -5 0
-7 -4 -4 -10z"/>
<path d="M8747 1143 c-11 -10 -8 -41 4 -49 6 -3 18 1 27 9 13 13 13 19 2 31
-14 17 -23 20 -33 9z"/>
<path d="M1300 780 c0 -5 5 -10 10 -10 6 0 10 5 10 10 0 6 -4 10 -10 10 -5 0
-10 -4 -10 -10z"/>
<path d="M1460 786 c0 -26 24 -51 40 -41 14 8 13 38 -2 53 -19 19 -38 14 -38
-12z"/>
<path d="M2432 778 c3 -36 31 -51 42 -23 8 21 -10 55 -30 55 -11 0 -14 -9 -12
-32z"/>
<path d="M4850 560 c0 -5 9 -10 20 -10 11 0 20 5 20 10 0 6 -9 10 -20 10 -11
0 -20 -4 -20 -10z"/>
<path d="M4921 394 c0 -11 3 -14 6 -6 3 7 2 16 -1 19 -3 4 -6 -2 -5 -13z"/>
</g>
</svg>
